0
SECTION
2
HEADER
9
$ACADVER
1
AC1009
9
$INSUNITS
70
4
0
ENDSEC
0
SECTION
2
TABLES
0
TABLE
2
LAYER
70
10
0
LAYER
2
AXIS
70
0
62
8
6
CONTINUOUS
0
LAYER
2
WALL
70
0
62
7
6
CONTINUOUS
0
LAYER
2
ROOM
70
0
62
4
6
CONTINUOUS
0
LAYER
2
FURN
70
0
62
9
6
CONTINUOUS
0
LAYER
2
TEXT
70
0
62
2
6
CONTINUOUS
0
LAYER
2
DIM
70
0
62
3
6
CONTINUOUS
0
LAYER
2
GLASS
70
0
62
5
6
CONTINUOUS
0
LAYER
2
SITE
70
0
62
30
6
CONTINUOUS
0
LAYER
2
DOOR
70
0
62
6
6
CONTINUOUS
0
LAYER
2
FRAME
70
0
62
7
6
CONTINUOUS
0
ENDTAB
0
TABLE
2
STYLE
70
1
0
STYLE
2
STANDARD
70
0
40
0
41
1
50
0
71
0
42
250
3
arial.ttf
4

0
ENDTAB
0
ENDSEC
0
SECTION
2
ENTITIES
0
LINE
8
WALL
10
0
20
0
30
0
11
5000
21
0
31
0
0
LINE
8
WALL
10
5000
20
0
30
0
11
5000
21
18000
31
0
0
LINE
8
WALL
10
5000
20
18000
30
0
11
0
21
18000
31
0
0
LINE
8
WALL
10
0
20
18000
30
0
11
0
21
0
31
0
0
LINE
8
WALL
10
200.00000000000017
20
200.00000000000017
30
0
11
4800
21
200.00000000000017
31
0
0
LINE
8
WALL
10
4800
20
200.00000000000017
30
0
11
4800
21
17800
31
0
0
LINE
8
WALL
10
4800
20
17800
30
0
11
200.00000000000017
21
17800
31
0
0
LINE
8
WALL
10
200.00000000000017
20
17800
30
0
11
200.00000000000017
21
200.00000000000017
31
0
0
LINE
8
AXIS
10
2500
20
-1500
30
0
11
2500
21
19500
31
0
0
LINE
8
ROOM
10
0
20
0
30
0
11
5000
21
0
31
0
0
LINE
8
ROOM
10
5000
20
0
30
0
11
5000
21
5400
31
0
0
LINE
8
ROOM
10
5000
20
5400
30
0
11
0
21
5400
31
0
0
LINE
8
ROOM
10
0
20
5400
30
0
11
0
21
0
31
0
0
TEXT
8
TEXT
10
2500
20
2850
30
0
40
280
1
Ph\U+00F2ng kh\U+00E1ch
50
0
72
1
11
2500
21
2850
31
0
0
TEXT
8
TEXT
10
2500
20
2450
30
0
40
180
1
23.9 m\U+00B2
50
0
72
1
11
2500
21
2450
31
0
0
LINE
8
ROOM
10
0
20
5400
30
0
11
5000
21
5400
31
0
0
LINE
8
ROOM
10
5000
20
5400
30
0
11
5000
21
9600
31
0
0
LINE
8
ROOM
10
5000
20
9600
30
0
11
0
21
9600
31
0
0
LINE
8
ROOM
10
0
20
9600
30
0
11
0
21
5400
31
0
0
TEXT
8
TEXT
10
2500
20
7650
30
0
40
280
1
B\U+1EBFp + \U+0102n
50
0
72
1
11
2500
21
7650
31
0
0
TEXT
8
TEXT
10
2500
20
7250
30
0
40
180
1
18.4 m\U+00B2
50
0
72
1
11
2500
21
7250
31
0
0
LINE
8
ROOM
10
0
20
9600
30
0
11
1200
21
9600
31
0
0
LINE
8
ROOM
10
1200
20
9600
30
0
11
1200
21
13200
31
0
0
LINE
8
ROOM
10
1200
20
13200
30
0
11
0
21
13200
31
0
0
LINE
8
ROOM
10
0
20
13200
30
0
11
0
21
9600
31
0
0
TEXT
8
TEXT
10
600
20
11550
30
0
40
220
1
C\U+1EA7u thang
50
0
72
1
11
600
21
11550
31
0
0
TEXT
8
TEXT
10
600
20
11150
30
0
40
180
1
3.6 m\U+00B2
50
0
72
1
11
600
21
11150
31
0
0
LINE
8
GLASS
10
1200
20
9900
30
0
11
2750
21
9900
31
0
0
LINE
8
GLASS
10
2750
20
9900
30
0
11
2750
21
12800
31
0
0
LINE
8
GLASS
10
2750
20
12800
30
0
11
1200
21
12800
31
0
0
LINE
8
GLASS
10
1200
20
12800
30
0
11
1200
21
9900
31
0
0
LINE
8
GLASS
10
1200
20
9900
30
0
11
2750
21
12800
31
0
0
LINE
8
GLASS
10
2750
20
9900
30
0
11
1200
21
12800
31
0
0
TEXT
8
TEXT
10
1975
20
11500
30
0
40
220
1
Gi\U+1EBFng tr\U+1EDDi gi\U+1EEFa
50
0
72
1
11
1975
21
11500
31
0
0
TEXT
8
TEXT
10
1975
20
11100
30
0
40
180
1
4.2 m\U+00B2
50
0
72
1
11
1975
21
11100
31
0
0
LINE
8
ROOM
10
3150
20
10300
30
0
11
5000
21
10300
31
0
0
LINE
8
ROOM
10
5000
20
10300
30
0
11
5000
21
12800
31
0
0
LINE
8
ROOM
10
5000
20
12800
30
0
11
3150
21
12800
31
0
0
LINE
8
ROOM
10
3150
20
12800
30
0
11
3150
21
10300
31
0
0
TEXT
8
TEXT
10
4075
20
11700
30
0
40
220
1
WC chung
50
0
72
1
11
4075
21
11700
31
0
0
TEXT
8
TEXT
10
4075
20
11300
30
0
40
180
1
3.9 m\U+00B2
50
0
72
1
11
4075
21
11300
31
0
0
LINE
8
ROOM
10
0
20
13200
30
0
11
5000
21
13200
31
0
0
LINE
8
ROOM
10
5000
20
13200
30
0
11
5000
21
18000
31
0
0
LINE
8
ROOM
10
5000
20
18000
30
0
11
0
21
18000
31
0
0
LINE
8
ROOM
10
0
20
18000
30
0
11
0
21
13200
31
0
0
TEXT
8
TEXT
10
2500
20
15750
30
0
40
280
1
Ph\U+00F2ng ng\U+1EE7 01
50
0
72
1
11
2500
21
15750
31
0
0
TEXT
8
TEXT
10
2500
20
15350
30
0
40
180
1
20.7 m\U+00B2
50
0
72
1
11
2500
21
15350
31
0
0
LINE
8
FURN
10
120
20
9750
30
0
11
1120
21
9750
31
0
0
LINE
8
FURN
10
120
20
10030
30
0
11
1120
21
10030
31
0
0
LINE
8
FURN
10
120
20
10310
30
0
11
1120
21
10310
31
0
0
LINE
8
FURN
10
120
20
10590
30
0
11
1120
21
10590
31
0
0
LINE
8
FURN
10
120
20
10870
30
0
11
1120
21
10870
31
0
0
LINE
8
FURN
10
120
20
11150
30
0
11
1120
21
11150
31
0
0
LINE
8
FURN
10
120
20
11430
30
0
11
1120
21
11430
31
0
0
LINE
8
FURN
10
120
20
11710
30
0
11
1120
21
11710
31
0
0
LINE
8
FURN
10
120
20
11990
30
0
11
1120
21
11990
31
0
0
LINE
8
FURN
10
120
20
12270
30
0
11
1120
21
12270
31
0
0
LINE
8
FURN
10
450
20
2000
30
0
11
2950
21
2000
31
0
0
LINE
8
FURN
10
2950
20
2000
30
0
11
2950
21
2850
31
0
0
LINE
8
FURN
10
2950
20
2850
30
0
11
450
21
2850
31
0
0
LINE
8
FURN
10
450
20
2850
30
0
11
450
21
2000
31
0
0
LINE
8
FURN
10
1000
20
3050
30
0
11
2200
21
3050
31
0
0
LINE
8
FURN
10
2200
20
3050
30
0
11
2200
21
3600
31
0
0
LINE
8
FURN
10
2200
20
3600
30
0
11
1000
21
3600
31
0
0
LINE
8
FURN
10
1000
20
3600
30
0
11
1000
21
3050
31
0
0
LINE
8
FURN
10
4250
20
1700
30
0
11
4600
21
1700
31
0
0
LINE
8
FURN
10
4600
20
1700
30
0
11
4600
21
3300
31
0
0
LINE
8
FURN
10
4600
20
3300
30
0
11
4250
21
3300
31
0
0
LINE
8
FURN
10
4250
20
3300
30
0
11
4250
21
1700
31
0
0
LINE
8
FURN
10
250
20
5650
30
0
11
850
21
5650
31
0
0
LINE
8
FURN
10
850
20
5650
30
0
11
850
21
9250
31
0
0
LINE
8
FURN
10
850
20
9250
30
0
11
250
21
9250
31
0
0
LINE
8
FURN
10
250
20
9250
30
0
11
250
21
5650
31
0
0
LINE
8
FURN
10
2350
20
6850
30
0
11
4050
21
6850
31
0
0
LINE
8
FURN
10
4050
20
6850
30
0
11
4050
21
7750
31
0
0
LINE
8
FURN
10
4050
20
7750
30
0
11
2350
21
7750
31
0
0
LINE
8
FURN
10
2350
20
7750
30
0
11
2350
21
6850
31
0
0
CIRCLE
8
FURN
10
2550
20
6700
30
0
40
120
0
CIRCLE
8
FURN
10
3850
20
6700
30
0
40
120
0
CIRCLE
8
FURN
10
2550
20
7950
30
0
40
120
0
CIRCLE
8
FURN
10
3850
20
7950
30
0
40
120
0
LINE
8
FURN
10
1500
20
14350
30
0
11
3500
21
14350
31
0
0
LINE
8
FURN
10
3500
20
14350
30
0
11
3500
21
16750
31
0
0
LINE
8
FURN
10
3500
20
16750
30
0
11
1500
21
16750
31
0
0
LINE
8
FURN
10
1500
20
16750
30
0
11
1500
21
14350
31
0
0
LINE
8
DOOR
10
2200
20
13200
30
0
11
2200
21
14000
31
0
0
ARC
8
DOOR
10
2200
20
13200
30
0
40
800
50
0
51
90
0
LINE
8
DOOR
10
3150
20
10900
30
0
11
3850
21
10900
31
0
0
ARC
8
DOOR
10
3150
20
10900
30
0
40
700
50
0
51
90
0
LINE
8
DOOR
10
4000
20
12800
30
0
11
4000
21
12100
31
0
0
ARC
8
DOOR
10
4000
20
12800
30
0
40
700
50
270
51
360
0
LINE
8
GLASS
10
400
20
550
30
0
11
4600.000000000001
21
550
31
0
0
LINE
8
GLASS
10
400
20
600.0000000000001
30
0
11
4600.000000000001
21
600.0000000000001
31
0
0
LINE
8
GLASS
10
400
20
650
30
0
11
4600.000000000001
21
650
31
0
0
LINE
8
GLASS
10
900
20
17800
30
0
11
4100.000000000001
21
17800
31
0
0
LINE
8
GLASS
10
900
20
17900
30
0
11
4100.000000000001
21
17900
31
0
0
LINE
8
GLASS
10
900
20
18000
30
0
11
4100.000000000001
21
18000
31
0
0
LINE
8
AXIS
10
2000
20
-2300
30
0
11
2000
21
-1900
31
0
0
CIRCLE
8
AXIS
10
2000
20
-2550
30
0
40
250
0
TEXT
8
TEXT
10
2000
20
-2550
30
0
40
250
1
A
50
0
72
1
11
2000
21
-2550
31
0
0
LINE
8
AXIS
10
2000
20
18500
30
0
11
2000
21
19300
31
0
0
CIRCLE
8
AXIS
10
2000
20
19550
30
0
40
250
0
TEXT
8
TEXT
10
2000
20
19550
30
0
40
250
1
A
50
0
72
1
11
2000
21
19550
31
0
0
LINE
8
DIM
10
0
20
-900
30
0
11
5000
21
-900
31
0
0
LINE
8
DIM
10
0
20
0
30
0
11
0
21
-900
31
0
0
LINE
8
DIM
10
-80
20
-980
30
0
11
80
21
-820
31
0
0
LINE
8
DIM
10
5000
20
0
30
0
11
5000
21
-900
31
0
0
LINE
8
DIM
10
4920
20
-980
30
0
11
5080
21
-820
31
0
0
TEXT
8
DIM
10
2500
20
-780
30
0
40
200
1
5.00
50
0
72
1
11
2500
21
-780
31
0
0
LINE
8
DIM
10
-900
20
0
30
0
11
-900
21
18000
31
0
0
LINE
8
DIM
10
0
20
0
30
0
11
-900
21
0
31
0
0
LINE
8
DIM
10
-980
20
-80
30
0
11
-820
21
80
31
0
0
LINE
8
DIM
10
0
20
18000
30
0
11
-900
21
18000
31
0
0
LINE
8
DIM
10
-980
20
17920
30
0
11
-820
21
18080
31
0
0
TEXT
8
DIM
10
-1020
20
9000
30
0
40
200
1
18.00
50
90
72
1
11
-1020
21
9000
31
0
0
LINE
8
DIM
10
5700
20
0
30
0
11
5700
21
5400
31
0
0
LINE
8
DIM
10
5000
20
0
30
0
11
5700
21
0
31
0
0
LINE
8
DIM
10
5620
20
-80
30
0
11
5780
21
80
31
0
0
LINE
8
DIM
10
5000
20
5400
30
0
11
5700
21
5400
31
0
0
LINE
8
DIM
10
5620
20
5320
30
0
11
5780
21
5480
31
0
0
TEXT
8
DIM
10
5580
20
2700
30
0
40
200
1
5.40
50
90
72
1
11
5580
21
2700
31
0
0
LINE
8
DIM
10
5700
20
5400
30
0
11
5700
21
9600.000000000002
31
0
0
LINE
8
DIM
10
5000
20
5400
30
0
11
5700
21
5400
31
0
0
LINE
8
DIM
10
5620
20
5320
30
0
11
5780
21
5480
31
0
0
LINE
8
DIM
10
5000
20
9600.000000000002
30
0
11
5700
21
9600.000000000002
31
0
0
LINE
8
DIM
10
5620
20
9520.000000000002
30
0
11
5780
21
9680.000000000002
31
0
0
TEXT
8
DIM
10
5580
20
7500.000000000001
30
0
40
200
1
4.20
50
90
72
1
11
5580
21
7500.000000000001
31
0
0
LINE
8
DIM
10
5700
20
13200
30
0
11
5700
21
18000
31
0
0
LINE
8
DIM
10
5000
20
13200
30
0
11
5700
21
13200
31
0
0
LINE
8
DIM
10
5620
20
13120
30
0
11
5780
21
13280
31
0
0
LINE
8
DIM
10
5000
20
18000
30
0
11
5700
21
18000
31
0
0
LINE
8
DIM
10
5620
20
17920
30
0
11
5780
21
18080
31
0
0
TEXT
8
DIM
10
5580
20
15600
30
0
40
200
1
4.80
50
90
72
1
11
5580
21
15600
31
0
0
TEXT
8
TEXT
10
2500
20
-3400
30
0
40
350
1
M\U+1EB6T B\U+1EB0NG T\U+1EA6NG 1
50
0
72
1
11
2500
21
-3400
31
0
0
TEXT
8
TEXT
10
2500
20
-3900
30
0
40
220
1
TL 1:100
50
0
72
1
11
2500
21
-3900
31
0
0
TEXT
8
TEXT
10
2500
20
-1400
30
0
40
200
1
M\U+1EB6T TI\U+1EC0N
50
0
72
1
11
2500
21
-1400
31
0
0
LINE
8
WALL
10
10000
20
0
30
0
11
15000
21
0
31
0
0
LINE
8
WALL
10
15000
20
0
30
0
11
15000
21
18000
31
0
0
LINE
8
WALL
10
15000
20
18000
30
0
11
10000
21
18000
31
0
0
LINE
8
WALL
10
10000
20
18000
30
0
11
10000
21
0
31
0
0
LINE
8
WALL
10
10200
20
200.00000000000017
30
0
11
14800
21
200.00000000000017
31
0
0
LINE
8
WALL
10
14800
20
200.00000000000017
30
0
11
14800
21
17800
31
0
0
LINE
8
WALL
10
14800
20
17800
30
0
11
10200
21
17800
31
0
0
LINE
8
WALL
10
10200
20
17800
30
0
11
10200
21
200.00000000000017
31
0
0
LINE
8
AXIS
10
12500
20
-1500
30
0
11
12500
21
19500
31
0
0
LINE
8
ROOM
10
10000
20
0
30
0
11
15000
21
0
31
0
0
LINE
8
ROOM
10
15000
20
0
30
0
11
15000
21
1100
31
0
0
LINE
8
ROOM
10
15000
20
1100
30
0
11
10000
21
1100
31
0
0
LINE
8
ROOM
10
10000
20
1100
30
0
11
10000
21
0
31
0
0
LINE
8
ROOM
10
10000
20
1100
30
0
11
15000
21
1100
31
0
0
LINE
8
ROOM
10
15000
20
1100
30
0
11
15000
21
5400
31
0
0
LINE
8
ROOM
10
15000
20
5400
30
0
11
10000
21
5400
31
0
0
LINE
8
ROOM
10
10000
20
5400
30
0
11
10000
21
1100
31
0
0
TEXT
8
TEXT
10
12500
20
3400
30
0
40
280
1
Ph\U+00F2ng ng\U+1EE7 02
50
0
72
1
11
12500
21
3400
31
0
0
TEXT
8
TEXT
10
12500
20
3000
30
0
40
180
1
19.3 m\U+00B2
50
0
72
1
11
12500
21
3000
31
0
0
LINE
8
ROOM
10
10000
20
5400
30
0
11
15000
21
5400
31
0
0
LINE
8
ROOM
10
15000
20
5400
30
0
11
15000
21
9600
31
0
0
LINE
8
ROOM
10
15000
20
9600
30
0
11
10000
21
9600
31
0
0
LINE
8
ROOM
10
10000
20
9600
30
0
11
10000
21
5400
31
0
0
TEXT
8
TEXT
10
12500
20
7650
30
0
40
280
1
Ph\U+00F2ng ng\U+1EE7 03
50
0
72
1
11
12500
21
7650
31
0
0
TEXT
8
TEXT
10
12500
20
7250
30
0
40
180
1
18.4 m\U+00B2
50
0
72
1
11
12500
21
7250
31
0
0
LINE
8
ROOM
10
10000
20
9600
30
0
11
11200
21
9600
31
0
0
LINE
8
ROOM
10
11200
20
9600
30
0
11
11200
21
13200
31
0
0
LINE
8
ROOM
10
11200
20
13200
30
0
11
10000
21
13200
31
0
0
LINE
8
ROOM
10
10000
20
13200
30
0
11
10000
21
9600
31
0
0
TEXT
8
TEXT
10
10600
20
11550
30
0
40
220
1
C\U+1EA7u thang
50
0
72
1
11
10600
21
11550
31
0
0
TEXT
8
TEXT
10
10600
20
11150
30
0
40
180
1
3.6 m\U+00B2
50
0
72
1
11
10600
21
11150
31
0
0
LINE
8
GLASS
10
11200
20
9900
30
0
11
12600
21
9900
31
0
0
LINE
8
GLASS
10
12600
20
9900
30
0
11
12600
21
12800
31
0
0
LINE
8
GLASS
10
12600
20
12800
30
0
11
11200
21
12800
31
0
0
LINE
8
GLASS
10
11200
20
12800
30
0
11
11200
21
9900
31
0
0
LINE
8
GLASS
10
11200
20
9900
30
0
11
12600
21
12800
31
0
0
LINE
8
GLASS
10
12600
20
9900
30
0
11
11200
21
12800
31
0
0
TEXT
8
TEXT
10
11900
20
11500
30
0
40
220
1
Gi\U+1EBFng tr\U+1EDDi gi\U+1EEFa
50
0
72
1
11
11900
21
11500
31
0
0
TEXT
8
TEXT
10
11900
20
11100
30
0
40
180
1
3.8 m\U+00B2
50
0
72
1
11
11900
21
11100
31
0
0
LINE
8
ROOM
10
12850
20
10050
30
0
11
15000
21
10050
31
0
0
LINE
8
ROOM
10
15000
20
10050
30
0
11
15000
21
12900
31
0
0
LINE
8
ROOM
10
15000
20
12900
30
0
11
12850
21
12900
31
0
0
LINE
8
ROOM
10
12850
20
12900
30
0
11
12850
21
10050
31
0
0
TEXT
8
TEXT
10
13925
20
11625
30
0
40
280
1
WC chung r\U+1ED9ng
50
0
72
1
11
13925
21
11625
31
0
0
TEXT
8
TEXT
10
13925
20
11225
30
0
40
180
1
5.9 m\U+00B2
50
0
72
1
11
13925
21
11225
31
0
0
LINE
8
ROOM
10
10000
20
13200
30
0
11
15000
21
13200
31
0
0
LINE
8
ROOM
10
15000
20
13200
30
0
11
15000
21
18000
31
0
0
LINE
8
ROOM
10
15000
20
18000
30
0
11
10000
21
18000
31
0
0
LINE
8
ROOM
10
10000
20
18000
30
0
11
10000
21
13200
31
0
0
TEXT
8
TEXT
10
12500
20
15750
30
0
40
280
1
Ph\U+00F2ng ng\U+1EE7 04
50
0
72
1
11
12500
21
15750
31
0
0
TEXT
8
TEXT
10
12500
20
15350
30
0
40
180
1
20.7 m\U+00B2
50
0
72
1
11
12500
21
15350
31
0
0
LINE
8
FURN
10
10120
20
9750
30
0
11
11120
21
9750
31
0
0
LINE
8
FURN
10
10120
20
10030
30
0
11
11120
21
10030
31
0
0
LINE
8
FURN
10
10120
20
10310
30
0
11
11120
21
10310
31
0
0
LINE
8
FURN
10
10120
20
10590
30
0
11
11120
21
10590
31
0
0
LINE
8
FURN
10
10120
20
10870
30
0
11
11120
21
10870
31
0
0
LINE
8
FURN
10
10120
20
11150
30
0
11
11120
21
11150
31
0
0
LINE
8
FURN
10
10120
20
11430
30
0
11
11120
21
11430
31
0
0
LINE
8
FURN
10
10120
20
11710
30
0
11
11120
21
11710
31
0
0
LINE
8
FURN
10
10120
20
11990
30
0
11
11120
21
11990
31
0
0
LINE
8
FURN
10
10120
20
12270
30
0
11
11120
21
12270
31
0
0
LINE
8
FURN
10
11350
20
2000
30
0
11
13650
21
2000
31
0
0
LINE
8
FURN
10
13650
20
2000
30
0
11
13650
21
4100
31
0
0
LINE
8
FURN
10
13650
20
4100
30
0
11
11350
21
4100
31
0
0
LINE
8
FURN
10
11350
20
4100
30
0
11
11350
21
2000
31
0
0
LINE
8
FURN
10
11400
20
6350
30
0
11
13400
21
6350
31
0
0
LINE
8
FURN
10
13400
20
6350
30
0
11
13400
21
8350
31
0
0
LINE
8
FURN
10
13400
20
8350
30
0
11
11400
21
8350
31
0
0
LINE
8
FURN
10
11400
20
8350
30
0
11
11400
21
6350
31
0
0
LINE
8
FURN
10
11500
20
14350
30
0
11
13500
21
14350
31
0
0
LINE
8
FURN
10
13500
20
14350
30
0
11
13500
21
16750
31
0
0
LINE
8
FURN
10
13500
20
16750
30
0
11
11500
21
16750
31
0
0
LINE
8
FURN
10
11500
20
16750
30
0
11
11500
21
14350
31
0
0
CIRCLE
8
FURN
10
14350
20
11400
30
0
40
220
0
LINE
8
FURN
10
13150
20
10300
30
0
11
13850
21
10300
31
0
0
LINE
8
FURN
10
13850
20
10300
30
0
11
13850
21
11000
31
0
0
LINE
8
FURN
10
13850
20
11000
30
0
11
13150
21
11000
31
0
0
LINE
8
FURN
10
13150
20
11000
30
0
11
13150
21
10300
31
0
0
LINE
8
DOOR
10
13900
20
5400
30
0
11
13900
21
4600
31
0
0
ARC
8
DOOR
10
13900
20
5400
30
0
40
800
50
270
51
360
0
LINE
8
DOOR
10
13900
20
9600
30
0
11
13900
21
8800
31
0
0
ARC
8
DOOR
10
13900
20
9600
30
0
40
800
50
270
51
360
0
LINE
8
DOOR
10
12850
20
10900
30
0
11
13550
21
10900
31
0
0
ARC
8
DOOR
10
12850
20
10900
30
0
40
700
50
0
51
90
0
LINE
8
DOOR
10
13900
20
13200
30
0
11
13900
21
14000
31
0
0
ARC
8
DOOR
10
13900
20
13200
30
0
40
800
50
0
51
90
0
LINE
8
GLASS
10
10500
20
1050
30
0
11
14500
21
1050
31
0
0
LINE
8
GLASS
10
10500
20
1100
30
0
11
14500
21
1100
31
0
0
LINE
8
GLASS
10
10500
20
1150
30
0
11
14500
21
1150
31
0
0
LINE
8
GLASS
10
11200
20
9550
30
0
11
12600
21
9550
31
0
0
LINE
8
GLASS
10
11200
20
9600.000000000002
30
0
11
12600
21
9600.000000000002
31
0
0
LINE
8
GLASS
10
11200
20
9650
30
0
11
12600
21
9650
31
0
0
LINE
8
GLASS
10
10900
20
17800
30
0
11
14100
21
17800
31
0
0
LINE
8
GLASS
10
10900
20
17900
30
0
11
14100
21
17900
31
0
0
LINE
8
GLASS
10
10900
20
18000
30
0
11
14100
21
18000
31
0
0
LINE
8
GLASS
10
10000
20
0
30
0
11
15000
21
0
31
0
0
LINE
8
GLASS
10
10000
20
25
30
0
11
15000
21
25
31
0
0
LINE
8
GLASS
10
10000
20
50
30
0
11
15000
21
50
31
0
0
LINE
8
DIM
10
10000
20
-900
30
0
11
15000
21
-900
31
0
0
LINE
8
DIM
10
10000
20
0
30
0
11
10000
21
-900
31
0
0
LINE
8
DIM
10
9920
20
-980
30
0
11
10080
21
-820
31
0
0
LINE
8
DIM
10
15000
20
0
30
0
11
15000
21
-900
31
0
0
LINE
8
DIM
10
14920
20
-980
30
0
11
15080
21
-820
31
0
0
TEXT
8
DIM
10
12500
20
-780
30
0
40
200
1
5.00
50
0
72
1
11
12500
21
-780
31
0
0
LINE
8
DIM
10
9100
20
0
30
0
11
9100
21
18000
31
0
0
LINE
8
DIM
10
10000
20
0
30
0
11
9100
21
0
31
0
0
LINE
8
DIM
10
9020
20
-80
30
0
11
9180
21
80
31
0
0
LINE
8
DIM
10
10000
20
18000
30
0
11
9100
21
18000
31
0
0
LINE
8
DIM
10
9020
20
17920
30
0
11
9180
21
18080
31
0
0
TEXT
8
DIM
10
8980
20
9000
30
0
40
200
1
18.00
50
90
72
1
11
8980
21
9000
31
0
0
LINE
8
DIM
10
15700
20
0
30
0
11
15700
21
1100
31
0
0
LINE
8
DIM
10
15000
20
0
30
0
11
15700
21
0
31
0
0
LINE
8
DIM
10
15620
20
-80
30
0
11
15780
21
80
31
0
0
LINE
8
DIM
10
15000
20
1100
30
0
11
15700
21
1100
31
0
0
LINE
8
DIM
10
15620
20
1020
30
0
11
15780
21
1180
31
0
0
TEXT
8
DIM
10
15580
20
550
30
0
40
200
1
1.10
50
90
72
1
11
15580
21
550
31
0
0
LINE
8
DIM
10
15700
20
1100
30
0
11
15700
21
5400
31
0
0
LINE
8
DIM
10
15000
20
1100
30
0
11
15700
21
1100
31
0
0
LINE
8
DIM
10
15620
20
1020
30
0
11
15780
21
1180
31
0
0
LINE
8
DIM
10
15000
20
5400
30
0
11
15700
21
5400
31
0
0
LINE
8
DIM
10
15620
20
5320
30
0
11
15780
21
5480
31
0
0
TEXT
8
DIM
10
15580
20
3250
30
0
40
200
1
4.30
50
90
72
1
11
15580
21
3250
31
0
0
LINE
8
DIM
10
15700
20
5400
30
0
11
15700
21
9600.000000000002
31
0
0
LINE
8
DIM
10
15000
20
5400
30
0
11
15700
21
5400
31
0
0
LINE
8
DIM
10
15620
20
5320
30
0
11
15780
21
5480
31
0
0
LINE
8
DIM
10
15000
20
9600.000000000002
30
0
11
15700
21
9600.000000000002
31
0
0
LINE
8
DIM
10
15620
20
9520.000000000002
30
0
11
15780
21
9680.000000000002
31
0
0
TEXT
8
DIM
10
15580
20
7500.000000000001
30
0
40
200
1
4.20
50
90
72
1
11
15580
21
7500.000000000001
31
0
0
LINE
8
DIM
10
15700
20
13200
30
0
11
15700
21
18000
31
0
0
LINE
8
DIM
10
15000
20
13200
30
0
11
15700
21
13200
31
0
0
LINE
8
DIM
10
15620
20
13120
30
0
11
15780
21
13280
31
0
0
LINE
8
DIM
10
15000
20
18000
30
0
11
15700
21
18000
31
0
0
LINE
8
DIM
10
15620
20
17920
30
0
11
15780
21
18080
31
0
0
TEXT
8
DIM
10
15580
20
15600
30
0
40
200
1
4.80
50
90
72
1
11
15580
21
15600
31
0
0
TEXT
8
TEXT
10
12500
20
-3400
30
0
40
350
1
M\U+1EB6T B\U+1EB0NG T\U+1EA6NG 2
50
0
72
1
11
12500
21
-3400
31
0
0
TEXT
8
TEXT
10
12500
20
-3900
30
0
40
220
1
TL 1:100
50
0
72
1
11
12500
21
-3900
31
0
0
TEXT
8
TEXT
10
12500
20
-1400
30
0
40
200
1
M\U+1EB6T TI\U+1EC0N
50
0
72
1
11
12500
21
-1400
31
0
0
LINE
8
WALL
10
20000
20
0
30
0
11
25000
21
0
31
0
0
LINE
8
WALL
10
25000
20
0
30
0
11
25000
21
18000
31
0
0
LINE
8
WALL
10
25000
20
18000
30
0
11
20000
21
18000
31
0
0
LINE
8
WALL
10
20000
20
18000
30
0
11
20000
21
0
31
0
0
LINE
8
WALL
10
20200
20
200.00000000000017
30
0
11
24800
21
200.00000000000017
31
0
0
LINE
8
WALL
10
24800
20
200.00000000000017
30
0
11
24800
21
17800
31
0
0
LINE
8
WALL
10
24800
20
17800
30
0
11
20200
21
17800
31
0
0
LINE
8
WALL
10
20200
20
17800
30
0
11
20200
21
200.00000000000017
31
0
0
LINE
8
AXIS
10
22500
20
-1500
30
0
11
22500
21
19500
31
0
0
LINE
8
ROOM
10
20000
20
0
30
0
11
25000
21
0
31
0
0
LINE
8
ROOM
10
25000
20
0
30
0
11
25000
21
4500
31
0
0
LINE
8
ROOM
10
25000
20
4500
30
0
11
20000
21
4500
31
0
0
LINE
8
ROOM
10
20000
20
4500
30
0
11
20000
21
0
31
0
0
TEXT
8
TEXT
10
22500
20
2400
30
0
40
280
1
S\U+00E2n th\U+01B0\U+1EE3ng tr\U+01B0\U+1EDBc
50
0
72
1
11
22500
21
2400
31
0
0
TEXT
8
TEXT
10
22500
20
2000
30
0
40
180
1
22.5 m\U+00B2
50
0
72
1
11
22500
21
2000
31
0
0
LINE
8
ROOM
10
20000
20
4500
30
0
11
25000
21
4500
31
0
0
LINE
8
ROOM
10
25000
20
4500
30
0
11
25000
21
9200
31
0
0
LINE
8
ROOM
10
25000
20
9200
30
0
11
20000
21
9200
31
0
0
LINE
8
ROOM
10
20000
20
9200
30
0
11
20000
21
4500
31
0
0
TEXT
8
TEXT
10
22500
20
7000
30
0
40
280
1
Ph\U+00F2ng th\U+1EDD
50
0
72
1
11
22500
21
7000
31
0
0
TEXT
8
TEXT
10
22500
20
6600
30
0
40
180
1
20.7 m\U+00B2
50
0
72
1
11
22500
21
6600
31
0
0
LINE
8
ROOM
10
20000
20
9200
30
0
11
25000
21
9200
31
0
0
LINE
8
ROOM
10
25000
20
9200
30
0
11
25000
21
13200
31
0
0
LINE
8
ROOM
10
25000
20
13200
30
0
11
20000
21
13200
31
0
0
LINE
8
ROOM
10
20000
20
13200
30
0
11
20000
21
9200
31
0
0
TEXT
8
TEXT
10
22500
20
11350
30
0
40
280
1
L\U+00F5i thang + k\U+1EF9 thu\U+1EADt
50
0
72
1
11
22500
21
11350
31
0
0
TEXT
8
TEXT
10
22500
20
10950
30
0
40
180
1
16.0 m\U+00B2
50
0
72
1
11
22500
21
10950
31
0
0
LINE
8
ROOM
10
20000
20
13200
30
0
11
25000
21
13200
31
0
0
LINE
8
ROOM
10
25000
20
13200
30
0
11
25000
21
18000
31
0
0
LINE
8
ROOM
10
25000
20
18000
30
0
11
20000
21
18000
31
0
0
LINE
8
ROOM
10
20000
20
18000
30
0
11
20000
21
13200
31
0
0
TEXT
8
TEXT
10
22500
20
15750
30
0
40
280
1
S\U+00E2n ph\U+01A1i sau
50
0
72
1
11
22500
21
15750
31
0
0
TEXT
8
TEXT
10
22500
20
15350
30
0
40
180
1
24.0 m\U+00B2
50
0
72
1
11
22500
21
15350
31
0
0
LINE
8
FURN
10
21500
20
6200
30
0
11
23500
21
6200
31
0
0
LINE
8
FURN
10
23500
20
6200
30
0
11
23500
21
6750
31
0
0
LINE
8
FURN
10
23500
20
6750
30
0
11
21500
21
6750
31
0
0
LINE
8
FURN
10
21500
20
6750
30
0
11
21500
21
6200
31
0
0
LINE
8
FURN
10
21700
20
6850
30
0
11
23300
21
6850
31
0
0
LINE
8
FURN
10
23300
20
6850
30
0
11
23300
21
7200
31
0
0
LINE
8
FURN
10
23300
20
7200
30
0
11
21700
21
7200
31
0
0
LINE
8
FURN
10
21700
20
7200
30
0
11
21700
21
6850
31
0
0
LINE
8
DOOR
10
23900
20
9200
30
0
11
23900
21
8400
31
0
0
ARC
8
DOOR
10
23900
20
9200
30
0
40
800
50
270
51
360
0
LINE
8
DOOR
10
23900
20
13200
30
0
11
23900
21
14100
31
0
0
ARC
8
DOOR
10
23900
20
13200
30
0
40
900
50
0
51
90
0
LINE
8
GLASS
10
20500
20
4450
30
0
11
24500
21
4450
31
0
0
LINE
8
GLASS
10
20500
20
4500
30
0
11
24500
21
4500
31
0
0
LINE
8
GLASS
10
20500
20
4550
30
0
11
24500
21
4550
31
0
0
LINE
8
GLASS
10
20000
20
0
30
0
11
25000
21
0
31
0
0
LINE
8
GLASS
10
20000
20
25
30
0
11
25000
21
25
31
0
0
LINE
8
GLASS
10
20000
20
50
30
0
11
25000
21
50
31
0
0
LINE
8
DIM
10
20000
20
-900
30
0
11
25000
21
-900
31
0
0
LINE
8
DIM
10
20000
20
0
30
0
11
20000
21
-900
31
0
0
LINE
8
DIM
10
19920
20
-980
30
0
11
20080
21
-820
31
0
0
LINE
8
DIM
10
25000
20
0
30
0
11
25000
21
-900
31
0
0
LINE
8
DIM
10
24920
20
-980
30
0
11
25080
21
-820
31
0
0
TEXT
8
DIM
10
22500
20
-780
30
0
40
200
1
5.00
50
0
72
1
11
22500
21
-780
31
0
0
LINE
8
DIM
10
19100
20
0
30
0
11
19100
21
18000
31
0
0
LINE
8
DIM
10
20000
20
0
30
0
11
19100
21
0
31
0
0
LINE
8
DIM
10
19020
20
-80
30
0
11
19180
21
80
31
0
0
LINE
8
DIM
10
20000
20
18000
30
0
11
19100
21
18000
31
0
0
LINE
8
DIM
10
19020
20
17920
30
0
11
19180
21
18080
31
0
0
TEXT
8
DIM
10
18980
20
9000
30
0
40
200
1
18.00
50
90
72
1
11
18980
21
9000
31
0
0
LINE
8
DIM
10
25700
20
0
30
0
11
25700
21
4500
31
0
0
LINE
8
DIM
10
25000
20
0
30
0
11
25700
21
0
31
0
0
LINE
8
DIM
10
25620
20
-80
30
0
11
25780
21
80
31
0
0
LINE
8
DIM
10
25000
20
4500
30
0
11
25700
21
4500
31
0
0
LINE
8
DIM
10
25620
20
4420
30
0
11
25780
21
4580
31
0
0
TEXT
8
DIM
10
25580
20
2250
30
0
40
200
1
4.50
50
90
72
1
11
25580
21
2250
31
0
0
LINE
8
DIM
10
25700
20
4500
30
0
11
25700
21
9200
31
0
0
LINE
8
DIM
10
25000
20
4500
30
0
11
25700
21
4500
31
0
0
LINE
8
DIM
10
25620
20
4420
30
0
11
25780
21
4580
31
0
0
LINE
8
DIM
10
25000
20
9200
30
0
11
25700
21
9200
31
0
0
LINE
8
DIM
10
25620
20
9120
30
0
11
25780
21
9280
31
0
0
TEXT
8
DIM
10
25580
20
6850
30
0
40
200
1
4.70
50
90
72
1
11
25580
21
6850
31
0
0
LINE
8
DIM
10
25700
20
9200
30
0
11
25700
21
13200
31
0
0
LINE
8
DIM
10
25000
20
9200
30
0
11
25700
21
9200
31
0
0
LINE
8
DIM
10
25620
20
9120
30
0
11
25780
21
9280
31
0
0
LINE
8
DIM
10
25000
20
13200
30
0
11
25700
21
13200
31
0
0
LINE
8
DIM
10
25620
20
13120
30
0
11
25780
21
13280
31
0
0
TEXT
8
DIM
10
25580
20
11200
30
0
40
200
1
4.00
50
90
72
1
11
25580
21
11200
31
0
0
LINE
8
DIM
10
25700
20
13200
30
0
11
25700
21
18000
31
0
0
LINE
8
DIM
10
25000
20
13200
30
0
11
25700
21
13200
31
0
0
LINE
8
DIM
10
25620
20
13120
30
0
11
25780
21
13280
31
0
0
LINE
8
DIM
10
25000
20
18000
30
0
11
25700
21
18000
31
0
0
LINE
8
DIM
10
25620
20
17920
30
0
11
25780
21
18080
31
0
0
TEXT
8
DIM
10
25580
20
15600
30
0
40
200
1
4.80
50
90
72
1
11
25580
21
15600
31
0
0
TEXT
8
TEXT
10
22500
20
-3400
30
0
40
350
1
M\U+1EB6T B\U+1EB0NG T\U+1EA6NG TUM
50
0
72
1
11
22500
21
-3400
31
0
0
TEXT
8
TEXT
10
22500
20
-3900
30
0
40
220
1
TL 1:100
50
0
72
1
11
22500
21
-3900
31
0
0
TEXT
8
TEXT
10
22500
20
-1400
30
0
40
200
1
M\U+1EB6T TI\U+1EC0N
50
0
72
1
11
22500
21
-1400
31
0
0
LINE
8
SITE
10
30000
20
0
30
0
11
35000
21
0
31
0
0
LINE
8
SITE
10
35000
20
0
30
0
11
35000
21
30000
31
0
0
LINE
8
SITE
10
35000
20
30000
30
0
11
30000
21
30000
31
0
0
LINE
8
SITE
10
30000
20
30000
30
0
11
30000
21
0
31
0
0
LINE
8
WALL
10
30000
20
8000
30
0
11
35000
21
8000
31
0
0
LINE
8
WALL
10
35000
20
8000
30
0
11
35000
21
26000
31
0
0
LINE
8
WALL
10
35000
20
26000
30
0
11
30000
21
26000
31
0
0
LINE
8
WALL
10
30000
20
26000
30
0
11
30000
21
8000
31
0
0
LINE
8
FURN
10
30400
20
500
30
0
11
32200
21
500
31
0
0
LINE
8
FURN
10
32200
20
500
30
0
11
32200
21
5200
31
0
0
LINE
8
FURN
10
32200
20
5200
30
0
11
30400
21
5200
31
0
0
LINE
8
FURN
10
30400
20
5200
30
0
11
30400
21
500
31
0
0
LINE
8
SITE
10
30400
20
250
30
0
11
34000
21
250
31
0
0
TEXT
8
TEXT
10
32500
20
17000
30
0
40
300
1
KH\U+1ED0I NH\U+00C0 5.00 \U+00D7 18.00
50
0
72
1
11
32500
21
17000
31
0
0
TEXT
8
TEXT
10
32500
20
6800
30
0
40
220
1
S\U+00C2N TR\U+01AF\U+1EDAC
50
0
72
1
11
32500
21
6800
31
0
0
TEXT
8
TEXT
10
32500
20
28000
30
0
40
220
1
S\U+00C2N SAU
50
0
72
1
11
32500
21
28000
31
0
0
LINE
8
DIM
10
29100
20
0
30
0
11
29100
21
8000
31
0
0
LINE
8
DIM
10
30000
20
0
30
0
11
29100
21
0
31
0
0
LINE
8
DIM
10
29020
20
-80
30
0
11
29180
21
80
31
0
0
LINE
8
DIM
10
30000
20
8000
30
0
11
29100
21
8000
31
0
0
LINE
8
DIM
10
29020
20
7920
30
0
11
29180
21
8080
31
0
0
TEXT
8
DIM
10
28980
20
4000
30
0
40
200
1
8.00
50
90
72
1
11
28980
21
4000
31
0
0
LINE
8
DIM
10
29100
20
8000
30
0
11
29100
21
26000
31
0
0
LINE
8
DIM
10
30000
20
8000
30
0
11
29100
21
8000
31
0
0
LINE
8
DIM
10
29020
20
7920
30
0
11
29180
21
8080
31
0
0
LINE
8
DIM
10
30000
20
26000
30
0
11
29100
21
26000
31
0
0
LINE
8
DIM
10
29020
20
25920
30
0
11
29180
21
26080
31
0
0
TEXT
8
DIM
10
28980
20
17000
30
0
40
200
1
18.00
50
90
72
1
11
28980
21
17000
31
0
0
LINE
8
DIM
10
29100
20
26000
30
0
11
29100
21
30000
31
0
0
LINE
8
DIM
10
30000
20
26000
30
0
11
29100
21
26000
31
0
0
LINE
8
DIM
10
29020
20
25920
30
0
11
29180
21
26080
31
0
0
LINE
8
DIM
10
30000
20
30000
30
0
11
29100
21
30000
31
0
0
LINE
8
DIM
10
29020
20
29920
30
0
11
29180
21
30080
31
0
0
TEXT
8
DIM
10
28980
20
28000
30
0
40
200
1
4.00
50
90
72
1
11
28980
21
28000
31
0
0
LINE
8
DIM
10
30000
20
-900
30
0
11
35000
21
-900
31
0
0
LINE
8
DIM
10
30000
20
0
30
0
11
30000
21
-900
31
0
0
LINE
8
DIM
10
29920
20
-980
30
0
11
30080
21
-820
31
0
0
LINE
8
DIM
10
35000
20
0
30
0
11
35000
21
-900
31
0
0
LINE
8
DIM
10
34920
20
-980
30
0
11
35080
21
-820
31
0
0
TEXT
8
DIM
10
32500
20
-780
30
0
40
200
1
5.00
50
0
72
1
11
32500
21
-780
31
0
0
TEXT
8
TEXT
10
32500
20
-1800
30
0
40
350
1
T\U+1ED4NG M\U+1EB6T B\U+1EB0NG
50
0
72
1
11
32500
21
-1800
31
0
0
TEXT
8
TEXT
10
32500
20
-2300
30
0
40
220
1
L\U+00F4 5 \U+00D7 30 m \U+00B7 150 m\U+00B2
50
0
72
1
11
32500
21
-2300
31
0
0
LINE
8
SITE
10
39500
20
0
30
0
11
70500
21
0
31
0
0
LINE
8
WALL
10
48000
20
0
30
0
11
66000
21
0
31
0
0
LINE
8
WALL
10
66000
20
0
30
0
11
66000
21
450
31
0
0
LINE
8
WALL
10
66000
20
450
30
0
11
48000
21
450
31
0
0
LINE
8
WALL
10
48000
20
450
30
0
11
48000
21
0
31
0
0
LINE
8
WALL
10
48000
20
3850
30
0
11
57900
21
3850
31
0
0
LINE
8
WALL
10
57900
20
3850
30
0
11
57900
21
4050
31
0
0
LINE
8
WALL
10
57900
20
4050
30
0
11
48000
21
4050
31
0
0
LINE
8
WALL
10
48000
20
4050
30
0
11
48000
21
3850
31
0
0
LINE
8
WALL
10
60800
20
3850
30
0
11
66000
21
3850
31
0
0
LINE
8
WALL
10
66000
20
3850
30
0
11
66000
21
4050
31
0
0
LINE
8
WALL
10
66000
20
4050
30
0
11
60800
21
4050
31
0
0
LINE
8
WALL
10
60800
20
4050
30
0
11
60800
21
3850
31
0
0
LINE
8
WALL
10
48000
20
7150
30
0
11
57900
21
7150
31
0
0
LINE
8
WALL
10
57900
20
7150
30
0
11
57900
21
7350
31
0
0
LINE
8
WALL
10
57900
20
7350
30
0
11
48000
21
7350
31
0
0
LINE
8
WALL
10
48000
20
7350
30
0
11
48000
21
7150
31
0
0
LINE
8
WALL
10
60800
20
7150
30
0
11
66000
21
7150
31
0
0
LINE
8
WALL
10
66000
20
7150
30
0
11
66000
21
7350
31
0
0
LINE
8
WALL
10
66000
20
7350
30
0
11
60800
21
7350
31
0
0
LINE
8
WALL
10
60800
20
7350
30
0
11
60800
21
7150
31
0
0
LINE
8
WALL
10
48000
20
450
30
0
11
48200
21
450
31
0
0
LINE
8
WALL
10
48200
20
450
30
0
11
48200
21
7350
31
0
0
LINE
8
WALL
10
48200
20
7350
30
0
11
48000
21
7350
31
0
0
LINE
8
WALL
10
48000
20
7350
30
0
11
48000
21
450
31
0
0
LINE
8
WALL
10
65800
20
450
30
0
11
66000
21
450
31
0
0
LINE
8
WALL
10
66000
20
450
30
0
11
66000
21
7350
31
0
0
LINE
8
WALL
10
66000
20
7350
30
0
11
65800
21
7350
31
0
0
LINE
8
WALL
10
65800
20
7350
30
0
11
65800
21
450
31
0
0
LINE
8
WALL
10
52500
20
7350
30
0
11
52700
21
7350
31
0
0
LINE
8
WALL
10
52700
20
7350
30
0
11
52700
21
10350
31
0
0
LINE
8
WALL
10
52700
20
10350
30
0
11
52500
21
10350
31
0
0
LINE
8
WALL
10
52500
20
10350
30
0
11
52500
21
7350
31
0
0
LINE
8
WALL
10
61000
20
7350
30
0
11
61200
21
7350
31
0
0
LINE
8
WALL
10
61200
20
7350
30
0
11
61200
21
10350
31
0
0
LINE
8
WALL
10
61200
20
10350
30
0
11
61000
21
10350
31
0
0
LINE
8
WALL
10
61000
20
10350
30
0
11
61000
21
7350
31
0
0
LINE
8
WALL
10
52500
20
10150
30
0
11
57900
21
10150
31
0
0
LINE
8
WALL
10
57900
20
10150
30
0
11
57900
21
10350
31
0
0
LINE
8
WALL
10
57900
20
10350
30
0
11
52500
21
10350
31
0
0
LINE
8
WALL
10
52500
20
10350
30
0
11
52500
21
10150
31
0
0
LINE
8
WALL
10
60800
20
10150
30
0
11
61200
21
10150
31
0
0
LINE
8
WALL
10
61200
20
10150
30
0
11
61200
21
10350
31
0
0
LINE
8
WALL
10
61200
20
10350
30
0
11
60800
21
10350
31
0
0
LINE
8
WALL
10
60800
20
10350
30
0
11
60800
21
10150
31
0
0
LINE
8
GLASS
10
57900
20
10500
30
0
11
60800
21
10500
31
0
0
LINE
8
GLASS
10
48000
20
7350
30
0
11
48050
21
7350
31
0
0
LINE
8
GLASS
10
48050
20
7350
30
0
11
48050
21
8450
31
0
0
LINE
8
GLASS
10
48050
20
8450
30
0
11
48000
21
8450
31
0
0
LINE
8
GLASS
10
48000
20
8450
30
0
11
48000
21
7350
31
0
0
LINE
8
WALL
10
52500
20
10350
30
0
11
61200
21
10350
31
0
0
LINE
8
WALL
10
61200
20
10350
30
0
11
61200
21
11200
31
0
0
LINE
8
WALL
10
61200
20
11200
30
0
11
52500
21
11200
31
0
0
LINE
8
WALL
10
52500
20
11200
30
0
11
52500
21
10350
31
0
0
LINE
8
FURN
10
57600
20
450
30
0
11
57860
21
450
31
0
0
LINE
8
FURN
10
57860
20
614
30
0
11
58120
21
614
31
0
0
LINE
8
FURN
10
58120
20
778
30
0
11
58380
21
778
31
0
0
LINE
8
FURN
10
58380
20
942
30
0
11
58640
21
942
31
0
0
LINE
8
FURN
10
58640
20
1106
30
0
11
58900
21
1106
31
0
0
LINE
8
FURN
10
58900
20
1270
30
0
11
59160
21
1270
31
0
0
LINE
8
FURN
10
59160
20
1434
30
0
11
59420
21
1434
31
0
0
LINE
8
FURN
10
59420
20
1598
30
0
11
59680
21
1598
31
0
0
LINE
8
FURN
10
59680
20
1762
30
0
11
59940
21
1762
31
0
0
LINE
8
FURN
10
59940
20
1926
30
0
11
60200
21
1926
31
0
0
LINE
8
FURN
10
60200
20
2090
30
0
11
60460
21
2090
31
0
0
LINE
8
AXIS
10
38500
20
0
30
0
11
40000
21
0
31
0
0
TEXT
8
TEXT
10
37400
20
0
30
0
40
200
1
+0.00 S\U+00E2n / v\U+1EC9a h\U+00E8
50
0
72
1
11
37400
21
0
31
0
0
LINE
8
AXIS
10
38500
20
450
30
0
11
40000
21
450
31
0
0
TEXT
8
TEXT
10
37400
20
450
30
0
40
200
1
+0.45 C\U+1ED1t n\U+1EC1n t\U+1EA7ng 1
50
0
72
1
11
37400
21
450
31
0
0
LINE
8
AXIS
10
38500
20
4050
30
0
11
40000
21
4050
31
0
0
TEXT
8
TEXT
10
37400
20
4050
30
0
40
200
1
+4.05 S\U+00E0n t\U+1EA7ng 2
50
0
72
1
11
37400
21
4050
31
0
0
LINE
8
AXIS
10
38500
20
7350
30
0
11
40000
21
7350
31
0
0
TEXT
8
TEXT
10
37400
20
7350
30
0
40
200
1
+7.35 S\U+00E0n tum
50
0
72
1
11
37400
21
7350
31
0
0
LINE
8
AXIS
10
38500
20
10350
30
0
11
40000
21
10350
31
0
0
TEXT
8
TEXT
10
37400
20
10350
30
0
40
200
1
+10.35 M\U+00E1i tum
50
0
72
1
11
37400
21
10350
31
0
0
LINE
8
AXIS
10
38500
20
11200
30
0
11
40000
21
11200
31
0
0
TEXT
8
TEXT
10
37400
20
11200
30
0
40
200
1
+11.20 \U+0110\U+1EC9nh lan can m\U+00E1i
50
0
72
1
11
37400
21
11200
31
0
0
LINE
8
DIM
10
40000
20
-900
30
0
11
48000
21
-900
31
0
0
LINE
8
DIM
10
40000
20
0
30
0
11
40000
21
-900
31
0
0
LINE
8
DIM
10
39920
20
-980
30
0
11
40080
21
-820
31
0
0
LINE
8
DIM
10
48000
20
0
30
0
11
48000
21
-900
31
0
0
LINE
8
DIM
10
47920
20
-980
30
0
11
48080
21
-820
31
0
0
TEXT
8
DIM
10
44000
20
-780
30
0
40
200
1
8.00
50
0
72
1
11
44000
21
-780
31
0
0
LINE
8
DIM
10
48000
20
-900
30
0
11
66000
21
-900
31
0
0
LINE
8
DIM
10
48000
20
0
30
0
11
48000
21
-900
31
0
0
LINE
8
DIM
10
47920
20
-980
30
0
11
48080
21
-820
31
0
0
LINE
8
DIM
10
66000
20
0
30
0
11
66000
21
-900
31
0
0
LINE
8
DIM
10
65920
20
-980
30
0
11
66080
21
-820
31
0
0
TEXT
8
DIM
10
57000
20
-780
30
0
40
200
1
18.00
50
0
72
1
11
57000
21
-780
31
0
0
LINE
8
DIM
10
66000
20
-900
30
0
11
70000
21
-900
31
0
0
LINE
8
DIM
10
66000
20
0
30
0
11
66000
21
-900
31
0
0
LINE
8
DIM
10
65920
20
-980
30
0
11
66080
21
-820
31
0
0
LINE
8
DIM
10
70000
20
0
30
0
11
70000
21
-900
31
0
0
LINE
8
DIM
10
69920
20
-980
30
0
11
70080
21
-820
31
0
0
TEXT
8
DIM
10
68000
20
-780
30
0
40
200
1
4.00
50
0
72
1
11
68000
21
-780
31
0
0
TEXT
8
TEXT
10
57000
20
2250
30
0
40
250
1
T\U+1EA6NG 1
50
0
72
1
11
57000
21
2250
31
0
0
TEXT
8
TEXT
10
57000
20
5650
30
0
40
250
1
T\U+1EA6NG 2
50
0
72
1
11
57000
21
5650
31
0
0
TEXT
8
TEXT
10
55200
20
8750
30
0
40
250
1
PH\U+00D2NG TH\U+1EDC
50
0
72
1
11
55200
21
8750
31
0
0
TEXT
8
TEXT
10
59350
20
1450
30
0
40
180
1
GI\U+1EBENG TR\U+1EDCI
50
0
72
1
11
59350
21
1450
31
0
0
TEXT
8
TEXT
10
55000
20
-2300
30
0
40
350
1
M\U+1EB6T C\U+1EAET A\U+2013A \U+00B7 TL 1:150
50
0
72
1
11
55000
21
-2300
31
0
0
LINE
8
SITE
10
74000
20
0
30
0
11
81000
21
0
31
0
0
LINE
8
WALL
10
75000
20
0
30
0
11
80000
21
0
31
0
0
LINE
8
WALL
10
80000
20
0
30
0
11
80000
21
450
31
0
0
LINE
8
WALL
10
80000
20
450
30
0
11
75000
21
450
31
0
0
LINE
8
WALL
10
75000
20
450
30
0
11
75000
21
0
31
0
0
LINE
8
WALL
10
75000
20
450
30
0
11
80000
21
450
31
0
0
LINE
8
WALL
10
80000
20
450
30
0
11
80000
21
7350
31
0
0
LINE
8
WALL
10
80000
20
7350
30
0
11
75000
21
7350
31
0
0
LINE
8
WALL
10
75000
20
7350
30
0
11
75000
21
450
31
0
0
LINE
8
GLASS
10
75400
20
450
30
0
11
79600
21
450
31
0
0
LINE
8
GLASS
10
79600
20
450
30
0
11
79600
21
3150
31
0
0
LINE
8
GLASS
10
79600
20
3150
30
0
11
75400
21
3150
31
0
0
LINE
8
GLASS
10
75400
20
3150
30
0
11
75400
21
450
31
0
0
LINE
8
GLASS
10
75200
20
4350
30
0
11
79800
21
4350
31
0
0
LINE
8
GLASS
10
79800
20
4350
30
0
11
79800
21
5450
31
0
0
LINE
8
GLASS
10
79800
20
5450
30
0
11
75200
21
5450
31
0
0
LINE
8
GLASS
10
75200
20
5450
30
0
11
75200
21
4350
31
0
0
LINE
8
FURN
10
75260
20
4050
30
0
11
75260
21
7050
31
0
0
LINE
8
FURN
10
75372
20
4050
30
0
11
75372
21
7050
31
0
0
LINE
8
FURN
10
75484
20
4050
30
0
11
75484
21
7050
31
0
0
LINE
8
FURN
10
75596
20
4050
30
0
11
75596
21
7050
31
0
0
LINE
8
FURN
10
75708
20
4050
30
0
11
75708
21
7050
31
0
0
LINE
8
FURN
10
75820
20
4050
30
0
11
75820
21
7050
31
0
0
LINE
8
FURN
10
75932
20
4050
30
0
11
75932
21
7050
31
0
0
LINE
8
FURN
10
76044
20
4050
30
0
11
76044
21
7050
31
0
0
LINE
8
FURN
10
76156
20
4050
30
0
11
76156
21
7050
31
0
0
LINE
8
FURN
10
76268
20
4050
30
0
11
76268
21
7050
31
0
0
LINE
8
FURN
10
76380
20
4050
30
0
11
76380
21
7050
31
0
0
LINE
8
FURN
10
76492
20
4050
30
0
11
76492
21
7050
31
0
0
LINE
8
FURN
10
76604
20
4050
30
0
11
76604
21
7050
31
0
0
LINE
8
FURN
10
76716
20
4050
30
0
11
76716
21
7050
31
0
0
LINE
8
FURN
10
76828
20
4050
30
0
11
76828
21
7050
31
0
0
LINE
8
FURN
10
76940
20
4050
30
0
11
76940
21
7050
31
0
0
LINE
8
FURN
10
77052
20
4050
30
0
11
77052
21
7050
31
0
0
LINE
8
FURN
10
77164
20
4050
30
0
11
77164
21
7050
31
0
0
LINE
8
FURN
10
77276
20
4050
30
0
11
77276
21
7050
31
0
0
LINE
8
FURN
10
77388
20
4050
30
0
11
77388
21
7050
31
0
0
LINE
8
FURN
10
77500
20
4050
30
0
11
77500
21
7050
31
0
0
LINE
8
FURN
10
77612
20
4050
30
0
11
77612
21
7050
31
0
0
LINE
8
FURN
10
77724
20
4050
30
0
11
77724
21
7050
31
0
0
LINE
8
FURN
10
77836
20
4050
30
0
11
77836
21
7050
31
0
0
LINE
8
FURN
10
77948
20
4050
30
0
11
77948
21
7050
31
0
0
LINE
8
FURN
10
78060
20
4050
30
0
11
78060
21
7050
31
0
0
LINE
8
FURN
10
78172
20
4050
30
0
11
78172
21
7050
31
0
0
LINE
8
FURN
10
78284
20
4050
30
0
11
78284
21
7050
31
0
0
LINE
8
FURN
10
78396
20
4050
30
0
11
78396
21
7050
31
0
0
LINE
8
FURN
10
78508
20
4050
30
0
11
78508
21
7050
31
0
0
LINE
8
FURN
10
78620
20
4050
30
0
11
78620
21
7050
31
0
0
LINE
8
FURN
10
78732
20
4050
30
0
11
78732
21
7050
31
0
0
LINE
8
FURN
10
78844
20
4050
30
0
11
78844
21
7050
31
0
0
LINE
8
FURN
10
78956
20
4050
30
0
11
78956
21
7050
31
0
0
LINE
8
FURN
10
79068
20
4050
30
0
11
79068
21
7050
31
0
0
LINE
8
FURN
10
79180
20
4050
30
0
11
79180
21
7050
31
0
0
LINE
8
FURN
10
79292
20
4050
30
0
11
79292
21
7050
31
0
0
LINE
8
FURN
10
79404
20
4050
30
0
11
79404
21
7050
31
0
0
LINE
8
FURN
10
79516
20
4050
30
0
11
79516
21
7050
31
0
0
LINE
8
FURN
10
79628
20
4050
30
0
11
79628
21
7050
31
0
0
LINE
8
FURN
10
79740
20
4050
30
0
11
79740
21
7050
31
0
0
LINE
8
GLASS
10
75000
20
7350
30
0
11
80000
21
7350
31
0
0
LINE
8
GLASS
10
80000
20
7350
30
0
11
80000
21
8450
31
0
0
LINE
8
GLASS
10
80000
20
8450
30
0
11
75000
21
8450
31
0
0
LINE
8
GLASS
10
75000
20
8450
30
0
11
75000
21
7350
31
0
0
LINE
8
WALL
10
75000
20
7350
30
0
11
80000
21
7350
31
0
0
LINE
8
WALL
10
80000
20
7350
30
0
11
80000
21
11200
31
0
0
LINE
8
WALL
10
80000
20
11200
30
0
11
75000
21
11200
31
0
0
LINE
8
WALL
10
75000
20
11200
30
0
11
75000
21
7350
31
0
0
TEXT
8
TEXT
10
81500
20
0
30
0
40
180
1
+0.00
50
0
72
1
11
81500
21
0
31
0
0
TEXT
8
TEXT
10
81500
20
450
30
0
40
180
1
+0.45
50
0
72
1
11
81500
21
450
31
0
0
TEXT
8
TEXT
10
81500
20
4050
30
0
40
180
1
+4.05
50
0
72
1
11
81500
21
4050
31
0
0
TEXT
8
TEXT
10
81500
20
7350
30
0
40
180
1
+7.35
50
0
72
1
11
81500
21
7350
31
0
0
TEXT
8
TEXT
10
81500
20
10350
30
0
40
180
1
+10.35
50
0
72
1
11
81500
21
10350
31
0
0
TEXT
8
TEXT
10
81500
20
11200
30
0
40
180
1
+11.20
50
0
72
1
11
81500
21
11200
31
0
0
LINE
8
DIM
10
75000
20
-900
30
0
11
80000
21
-900
31
0
0
LINE
8
DIM
10
75000
20
0
30
0
11
75000
21
-900
31
0
0
LINE
8
DIM
10
74920
20
-980
30
0
11
75080
21
-820
31
0
0
LINE
8
DIM
10
80000
20
0
30
0
11
80000
21
-900
31
0
0
LINE
8
DIM
10
79920
20
-980
30
0
11
80080
21
-820
31
0
0
TEXT
8
DIM
10
77500
20
-780
30
0
40
200
1
5.00
50
0
72
1
11
77500
21
-780
31
0
0
LINE
8
DIM
10
74100
20
0
30
0
11
74100
21
11200
31
0
0
LINE
8
DIM
10
75000
20
0
30
0
11
74100
21
0
31
0
0
LINE
8
DIM
10
74020
20
-80
30
0
11
74180
21
80
31
0
0
LINE
8
DIM
10
75000
20
11200
30
0
11
74100
21
11200
31
0
0
LINE
8
DIM
10
74020
20
11120
30
0
11
74180
21
11280
31
0
0
TEXT
8
DIM
10
73980
20
5600
30
0
40
200
1
11.20
50
90
72
1
11
73980
21
5600
31
0
0
TEXT
8
TEXT
10
77500
20
-2300
30
0
40
350
1
M\U+1EB6T \U+0110\U+1EE8NG M\U+1EB6T TI\U+1EC0N \U+00B7 TL 1:100
50
0
72
1
11
77500
21
-2300
31
0
0
LINE
8
WALL
10
0
20
-17000
30
0
11
0
21
-16836
31
0
0
LINE
8
WALL
10
0
20
-16836
30
0
11
260
21
-16836
31
0
0
LINE
8
WALL
10
260
20
-16836
30
0
11
260
21
-16672
31
0
0
LINE
8
WALL
10
260
20
-16672
30
0
11
520
21
-16672
31
0
0
LINE
8
WALL
10
520
20
-16672
30
0
11
520
21
-16508
31
0
0
LINE
8
WALL
10
520
20
-16508
30
0
11
780
21
-16508
31
0
0
LINE
8
WALL
10
780
20
-16508
30
0
11
780
21
-16344
31
0
0
LINE
8
WALL
10
780
20
-16344
30
0
11
1040
21
-16344
31
0
0
LINE
8
WALL
10
1040
20
-16344
30
0
11
1040
21
-16180
31
0
0
LINE
8
WALL
10
1040
20
-16180
30
0
11
1300
21
-16180
31
0
0
LINE
8
WALL
10
1300
20
-16180
30
0
11
1300
21
-16016
31
0
0
LINE
8
WALL
10
1300
20
-16016
30
0
11
1560
21
-16016
31
0
0
LINE
8
WALL
10
1560
20
-16016
30
0
11
1560
21
-15852
31
0
0
LINE
8
WALL
10
1560
20
-15852
30
0
11
1820
21
-15852
31
0
0
LINE
8
WALL
10
1820
20
-15852
30
0
11
1820
21
-15688
31
0
0
LINE
8
WALL
10
1820
20
-15688
30
0
11
2080
21
-15688
31
0
0
LINE
8
WALL
10
2080
20
-15688
30
0
11
2080
21
-15524
31
0
0
LINE
8
WALL
10
2080
20
-15524
30
0
11
2340
21
-15524
31
0
0
LINE
8
WALL
10
2340
20
-15524
30
0
11
2340
21
-15360
31
0
0
LINE
8
WALL
10
2340
20
-15360
30
0
11
2600
21
-15360
31
0
0
LINE
8
WALL
10
2600
20
-15360
30
0
11
2600
21
-15196
31
0
0
LINE
8
WALL
10
2600
20
-15196
30
0
11
3600
21
-15196
31
0
0
LINE
8
WALL
10
0
20
-17150
30
0
11
2600
21
-15346
31
0
0
LINE
8
WALL
10
2600
20
-15346
30
0
11
3600
21
-15346
31
0
0
LINE
8
GLASS
10
0
20
-16100
30
0
11
2600
21
-14296
31
0
0
LINE
8
SITE
10
-800
20
-17000
30
0
11
0
21
-17000
31
0
0
LINE
8
DIM
10
0
20
-17500
30
0
11
2600
21
-17500
31
0
0
LINE
8
DIM
10
0
20
-17000
30
0
11
0
21
-17500
31
0
0
LINE
8
DIM
10
-80
20
-17580
30
0
11
80
21
-17420
31
0
0
LINE
8
DIM
10
2600
20
-17000
30
0
11
2600
21
-17500
31
0
0
LINE
8
DIM
10
2520
20
-17580
30
0
11
2680
21
-17420
31
0
0
TEXT
8
DIM
10
1300
20
-17380
30
0
40
200
1
2.60
50
0
72
1
11
1300
21
-17380
31
0
0
LINE
8
DIM
10
2600
20
-17500
30
0
11
3600
21
-17500
31
0
0
LINE
8
DIM
10
2600
20
-17000
30
0
11
2600
21
-17500
31
0
0
LINE
8
DIM
10
2520
20
-17580
30
0
11
2680
21
-17420
31
0
0
LINE
8
DIM
10
3600
20
-17000
30
0
11
3600
21
-17500
31
0
0
LINE
8
DIM
10
3520
20
-17580
30
0
11
3680
21
-17420
31
0
0
TEXT
8
DIM
10
3100
20
-17380
30
0
40
200
1
1.00
50
0
72
1
11
3100
21
-17380
31
0
0
LINE
8
DIM
10
-700
20
-17000
30
0
11
-700
21
-15196
31
0
0
LINE
8
DIM
10
0
20
-17000
30
0
11
-700
21
-17000
31
0
0
LINE
8
DIM
10
-780
20
-17080
30
0
11
-620
21
-16920
31
0
0
LINE
8
DIM
10
0
20
-15196
30
0
11
-700
21
-15196
31
0
0
LINE
8
DIM
10
-780
20
-15276
30
0
11
-620
21
-15116
31
0
0
TEXT
8
DIM
10
-820
20
-16098
30
0
40
200
1
1.80
50
90
72
1
11
-820
21
-16098
31
0
0
TEXT
8
TEXT
10
200
20
-14600
30
0
40
125
1
Tay v\U+1ECBn 900
0
TEXT
8
TEXT
10
1500
20
-16700
30
0
40
125
1
BTCT 120
0
LINE
8
WALL
10
5000
20
-17000
30
0
11
7100
21
-17000
31
0
0
LINE
8
WALL
10
7100
20
-17000
30
0
11
7100
21
-13400
31
0
0
LINE
8
WALL
10
7100
20
-13400
30
0
11
5000
21
-13400
31
0
0
LINE
8
WALL
10
5000
20
-13400
30
0
11
5000
21
-17000
31
0
0
LINE
8
WALL
10
6000
20
-17000
30
0
11
6100
21
-17000
31
0
0
LINE
8
WALL
10
6100
20
-17000
30
0
11
6100
21
-14450
31
0
0
LINE
8
WALL
10
6100
20
-14450
30
0
11
6000
21
-14450
31
0
0
LINE
8
WALL
10
6000
20
-14450
30
0
11
6000
21
-17000
31
0
0
LINE
8
WALL
10
5000
20
-14450
30
0
11
7100
21
-14450
31
0
0
LINE
8
FURN
10
5000
20
-14710
30
0
11
6000
21
-14710
31
0
0
LINE
8
FURN
10
6100
20
-14710
30
0
11
7100
21
-14710
31
0
0
LINE
8
FURN
10
5000
20
-14970
30
0
11
6000
21
-14970
31
0
0
LINE
8
FURN
10
6100
20
-14970
30
0
11
7100
21
-14970
31
0
0
LINE
8
FURN
10
5000
20
-15230
30
0
11
6000
21
-15230
31
0
0
LINE
8
FURN
10
6100
20
-15230
30
0
11
7100
21
-15230
31
0
0
LINE
8
FURN
10
5000
20
-15490
30
0
11
6000
21
-15490
31
0
0
LINE
8
FURN
10
6100
20
-15490
30
0
11
7100
21
-15490
31
0
0
LINE
8
FURN
10
5000
20
-15750
30
0
11
6000
21
-15750
31
0
0
LINE
8
FURN
10
6100
20
-15750
30
0
11
7100
21
-15750
31
0
0
LINE
8
FURN
10
5000
20
-16010
30
0
11
6000
21
-16010
31
0
0
LINE
8
FURN
10
6100
20
-16010
30
0
11
7100
21
-16010
31
0
0
LINE
8
FURN
10
5000
20
-16270
30
0
11
6000
21
-16270
31
0
0
LINE
8
FURN
10
6100
20
-16270
30
0
11
7100
21
-16270
31
0
0
LINE
8
FURN
10
5000
20
-16530
30
0
11
6000
21
-16530
31
0
0
LINE
8
FURN
10
6100
20
-16530
30
0
11
7100
21
-16530
31
0
0
LINE
8
FURN
10
5000
20
-16790
30
0
11
6000
21
-16790
31
0
0
LINE
8
FURN
10
6100
20
-16790
30
0
11
7100
21
-16790
31
0
0
LINE
8
DIM
10
5000
20
-17500
30
0
11
7100
21
-17500
31
0
0
LINE
8
DIM
10
5000
20
-17000
30
0
11
5000
21
-17500
31
0
0
LINE
8
DIM
10
4920
20
-17580
30
0
11
5080
21
-17420
31
0
0
LINE
8
DIM
10
7100
20
-17000
30
0
11
7100
21
-17500
31
0
0
LINE
8
DIM
10
7020
20
-17580
30
0
11
7180
21
-17420
31
0
0
TEXT
8
DIM
10
6050
20
-17380
30
0
40
200
1
2.10
50
0
72
1
11
6050
21
-17380
31
0
0
LINE
8
DIM
10
7600
20
-17000
30
0
11
7600
21
-13400
31
0
0
LINE
8
DIM
10
7100
20
-17000
30
0
11
7600
21
-17000
31
0
0
LINE
8
DIM
10
7520
20
-17080
30
0
11
7680
21
-16920
31
0
0
LINE
8
DIM
10
7100
20
-13400
30
0
11
7600
21
-13400
31
0
0
LINE
8
DIM
10
7520
20
-13480
30
0
11
7680
21
-13320
31
0
0
TEXT
8
DIM
10
7480
20
-15200
30
0
40
200
1
3.60
50
90
72
1
11
7480
21
-15200
31
0
0
TEXT
8
TEXT
10
5150
20
-14000
30
0
40
125
1
Chi\U+1EBFu ngh\U+1EC9 1 050
0
TEXT
8
TEXT
10
3500
20
-18400
30
0
40
250
1
CT-03 \U+00B7 C\U+1EA6U THANG \U+00B7 TL 1:50
50
0
72
1
11
3500
21
-18400
31
0
0
LINE
8
WALL
10
15000
20
-17200
30
0
11
16000
21
-17200
31
0
0
LINE
8
WALL
10
16000
20
-17200
30
0
11
16000
21
-17000
31
0
0
LINE
8
WALL
10
16000
20
-17000
30
0
11
15000
21
-17000
31
0
0
LINE
8
WALL
10
15000
20
-17000
30
0
11
15000
21
-17200
31
0
0
LINE
8
WALL
10
17500
20
-17200
30
0
11
18500
21
-17200
31
0
0
LINE
8
WALL
10
18500
20
-17200
30
0
11
18500
21
-17000
31
0
0
LINE
8
WALL
10
18500
20
-17000
30
0
11
17500
21
-17000
31
0
0
LINE
8
WALL
10
17500
20
-17000
30
0
11
17500
21
-17200
31
0
0
LINE
8
WALL
10
15800
20
-17000
30
0
11
16000
21
-17000
31
0
0
LINE
8
WALL
10
16000
20
-17000
30
0
11
16000
21
-16550
31
0
0
LINE
8
WALL
10
16000
20
-16550
30
0
11
15800
21
-16550
31
0
0
LINE
8
WALL
10
15800
20
-16550
30
0
11
15800
21
-17000
31
0
0
LINE
8
WALL
10
17500
20
-17000
30
0
11
17700
21
-17000
31
0
0
LINE
8
WALL
10
17700
20
-17000
30
0
11
17700
21
-16550
31
0
0
LINE
8
WALL
10
17700
20
-16550
30
0
11
17500
21
-16550
31
0
0
LINE
8
WALL
10
17500
20
-16550
30
0
11
17500
21
-17000
31
0
0
LINE
8
FURN
10
15800
20
-16530
30
0
11
16000
21
-16500
31
0
0
LINE
8
FURN
10
15800
20
-16490
30
0
11
16000
21
-16460
31
0
0
LINE
8
FURN
10
15800
20
-16450
30
0
11
16000
21
-16420
31
0
0
LINE
8
FURN
10
17500
20
-16530
30
0
11
17700
21
-16500
31
0
0
LINE
8
FURN
10
17500
20
-16490
30
0
11
17700
21
-16460
31
0
0
LINE
8
FURN
10
17500
20
-16450
30
0
11
17700
21
-16420
31
0
0
LINE
8
WALL
10
15750
20
-16400
30
0
11
17750
21
-16400
31
0
0
LINE
8
WALL
10
17750
20
-16400
30
0
11
17750
21
-16350
31
0
0
LINE
8
WALL
10
17750
20
-16350
30
0
11
15750
21
-16350
31
0
0
LINE
8
WALL
10
15750
20
-16350
30
0
11
15750
21
-16400
31
0
0
LINE
8
GLASS
10
15650
20
-16300
30
0
11
17850
21
-16410
31
0
0
LINE
8
GLASS
10
15650
20
-16284
30
0
11
17850
21
-16394
31
0
0
LINE
8
WALL
10
17850
20
-16560
30
0
11
18050
21
-16560
31
0
0
LINE
8
WALL
10
18050
20
-16560
30
0
11
18050
21
-16460
31
0
0
LINE
8
WALL
10
18050
20
-16460
30
0
11
17850
21
-16460
31
0
0
LINE
8
WALL
10
17850
20
-16460
30
0
11
17850
21
-16560
31
0
0
LINE
8
WALL
10
17950
20
-16560
30
0
11
17950
21
-17200
31
0
0
LINE
8
DIM
10
16000
20
-17500
30
0
11
17500
21
-17500
31
0
0
LINE
8
DIM
10
16000
20
-17200
30
0
11
16000
21
-17500
31
0
0
LINE
8
DIM
10
15920
20
-17580
30
0
11
16080
21
-17420
31
0
0
LINE
8
DIM
10
17500
20
-17200
30
0
11
17500
21
-17500
31
0
0
LINE
8
DIM
10
17420
20
-17580
30
0
11
17580
21
-17420
31
0
0
TEXT
8
DIM
10
16750
20
-17380
30
0
40
200
1
1.50
50
0
72
1
11
16750
21
-17380
31
0
0
TEXT
8
TEXT
10
15100
20
-16100
30
0
40
60
1
K\U+00EDnh 8+8, d\U+1ED1c 5%
0
TEXT
8
TEXT
10
14100
20
-16500
30
0
40
60
1
Khe gi\U+00F3 150
0
TEXT
8
TEXT
10
18100
20
-16530
30
0
40
60
1
M\U+00E1ng 200\U+00D7100
0
TEXT
8
TEXT
10
16750
20
-18400
30
0
40
250
1
CT-04 \U+00B7 GI\U+1EBENG TR\U+1EDCI \U+00B7 TL 1:25
50
0
72
1
11
16750
21
-18400
31
0
0
LINE
8
WALL
10
30000
20
-16750
30
0
11
31700
21
-16750
31
0
0
LINE
8
WALL
10
31700
20
-16750
30
0
11
31700
21
-16550
31
0
0
LINE
8
WALL
10
31700
20
-16550
30
0
11
30000
21
-16550
31
0
0
LINE
8
WALL
10
30000
20
-16550
30
0
11
30000
21
-16750
31
0
0
LINE
8
WALL
10
32300
20
-16750
30
0
11
33800
21
-16750
31
0
0
LINE
8
WALL
10
33800
20
-16750
30
0
11
33800
21
-16550
31
0
0
LINE
8
WALL
10
33800
20
-16550
30
0
11
32300
21
-16550
31
0
0
LINE
8
WALL
10
32300
20
-16550
30
0
11
32300
21
-16750
31
0
0
TEXT
8
TEXT
10
34000
20
-16650
30
0
40
125
1
C\U+1ED1t n\U+1EC1n t\U+1EA7ng 1
0
LINE
8
WALL
10
30000
20
-13150
30
0
11
31700
21
-13150
31
0
0
LINE
8
WALL
10
31700
20
-13150
30
0
11
31700
21
-12950
31
0
0
LINE
8
WALL
10
31700
20
-12950
30
0
11
30000
21
-12950
31
0
0
LINE
8
WALL
10
30000
20
-12950
30
0
11
30000
21
-13150
31
0
0
LINE
8
WALL
10
32300
20
-13150
30
0
11
33800
21
-13150
31
0
0
LINE
8
WALL
10
33800
20
-13150
30
0
11
33800
21
-12950
31
0
0
LINE
8
WALL
10
33800
20
-12950
30
0
11
32300
21
-12950
31
0
0
LINE
8
WALL
10
32300
20
-12950
30
0
11
32300
21
-13150
31
0
0
TEXT
8
TEXT
10
34000
20
-13050
30
0
40
125
1
S\U+00E0n t\U+1EA7ng 2
0
LINE
8
WALL
10
30000
20
-9850
30
0
11
31700
21
-9850
31
0
0
LINE
8
WALL
10
31700
20
-9850
30
0
11
31700
21
-9650
31
0
0
LINE
8
WALL
10
31700
20
-9650
30
0
11
30000
21
-9650
31
0
0
LINE
8
WALL
10
30000
20
-9650
30
0
11
30000
21
-9850
31
0
0
LINE
8
WALL
10
32300
20
-9850
30
0
11
33800
21
-9850
31
0
0
LINE
8
WALL
10
33800
20
-9850
30
0
11
33800
21
-9650
31
0
0
LINE
8
WALL
10
33800
20
-9650
30
0
11
32300
21
-9650
31
0
0
LINE
8
WALL
10
32300
20
-9650
30
0
11
32300
21
-9850
31
0
0
TEXT
8
TEXT
10
34000
20
-9750
30
0
40
125
1
S\U+00E0n tum
0
LINE
8
WALL
10
30000
20
-6850
30
0
11
31700
21
-6850
31
0
0
LINE
8
WALL
10
31700
20
-6850
30
0
11
31700
21
-6650
31
0
0
LINE
8
WALL
10
31700
20
-6650
30
0
11
30000
21
-6650
31
0
0
LINE
8
WALL
10
30000
20
-6650
30
0
11
30000
21
-6850
31
0
0
LINE
8
WALL
10
32300
20
-6850
30
0
11
33800
21
-6850
31
0
0
LINE
8
WALL
10
33800
20
-6850
30
0
11
33800
21
-6650
31
0
0
LINE
8
WALL
10
33800
20
-6650
30
0
11
32300
21
-6650
31
0
0
LINE
8
WALL
10
32300
20
-6650
30
0
11
32300
21
-6850
31
0
0
TEXT
8
TEXT
10
34000
20
-6750
30
0
40
125
1
M\U+00E1i tum
0
LINE
8
WALL
10
30200
20
-16600
30
0
11
31700
21
-16600
31
0
0
TEXT
8
TEXT
10
28000
20
-16400
30
0
40
125
1
H\U+1EA1 c\U+1ED1t -50
0
LINE
8
WALL
10
30200
20
-13000
30
0
11
31700
21
-13000
31
0
0
TEXT
8
TEXT
10
28000
20
-12800
30
0
40
125
1
H\U+1EA1 c\U+1ED1t -50
0
LINE
8
WALL
10
32000
20
-16750
30
0
11
32300
21
-16750
31
0
0
LINE
8
WALL
10
32300
20
-16750
30
0
11
32300
21
-5950
31
0
0
LINE
8
WALL
10
32300
20
-5950
30
0
11
32000
21
-5950
31
0
0
LINE
8
WALL
10
32000
20
-5950
30
0
11
32000
21
-16750
31
0
0
LINE
8
GLASS
10
32025
20
-17150
30
0
11
32025
21
-12150
31
0
0
LINE
8
GLASS
10
32135
20
-17150
30
0
11
32135
21
-12150
31
0
0
LINE
8
GLASS
10
32190
20
-17150
30
0
11
32190
21
-5950
31
0
0
LINE
8
GLASS
10
32250
20
-17150
30
0
11
32250
21
-5950
31
0
0
TEXT
8
TEXT
10
32400
20
-6150
30
0
40
125
1
D60 th\U+00F4ng h\U+01A1i
0
TEXT
8
TEXT
10
32400
20
-12350
30
0
40
125
1
D110 \U+00B7 D90 \U+00B7 D60
0
TEXT
8
TEXT
10
32400
20
-14950
30
0
40
125
1
H\U+1ED9p gen 300\U+00D7300
0
TEXT
8
TEXT
10
32150
20
-18400
30
0
40
250
1
CT-05 \U+00B7 TR\U+1EE4C \U+01AF\U+1EDAT \U+00B7 TL 1:50
50
0
72
1
11
32150
21
-18400
31
0
0
LINE
8
FRAME
10
-6000
20
-33000
30
0
11
90000
21
-33000
31
0
0
LINE
8
FRAME
10
90000
20
-33000
30
0
11
90000
21
33000
31
0
0
LINE
8
FRAME
10
90000
20
33000
30
0
11
-6000
21
33000
31
0
0
LINE
8
FRAME
10
-6000
20
33000
30
0
11
-6000
21
-33000
31
0
0
LINE
8
FRAME
10
-5700
20
-32700
30
0
11
89700
21
-32700
31
0
0
LINE
8
FRAME
10
89700
20
-32700
30
0
11
89700
21
32700
31
0
0
LINE
8
FRAME
10
89700
20
32700
30
0
11
-5700
21
32700
31
0
0
LINE
8
FRAME
10
-5700
20
32700
30
0
11
-5700
21
-32700
31
0
0
LINE
8
FRAME
10
65700
20
-32700
30
0
11
89700
21
-32700
31
0
0
LINE
8
FRAME
10
89700
20
-32700
30
0
11
89700
21
-25500
31
0
0
LINE
8
FRAME
10
89700
20
-25500
30
0
11
65700
21
-25500
31
0
0
LINE
8
FRAME
10
65700
20
-25500
30
0
11
65700
21
-32700
31
0
0
LINE
8
FRAME
10
65700
20
-30900
30
0
11
89700
21
-30900
31
0
0
LINE
8
FRAME
10
65700
20
-29100
30
0
11
89700
21
-29100
31
0
0
LINE
8
FRAME
10
65700
20
-27300
30
0
11
89700
21
-27300
31
0
0
LINE
8
FRAME
10
69700
20
-32700
30
0
11
69700
21
-25500
31
0
0
TEXT
8
TEXT
10
66000
20
-26650
30
0
40
300
1
C\U+00D4NG TR\U+00CCNH
0
TEXT
8
TEXT
10
70000
20
-26650
30
0
40
380
1
NH\U+00C0 PH\U+1ED0 5 \U+00D7 30 m \U+2014 2 T\U+1EA6NG + TUM
0
TEXT
8
TEXT
10
66000
20
-28450
30
0
40
300
1
N\U+1ED8I DUNG
0
TEXT
8
TEXT
10
70000
20
-28450
30
0
40
380
1
MB T1/T2/Tum \U+00B7 TMB \U+00B7 MC A\U+2013A \U+00B7 M\U+0110 \U+00B7 CT-03\U+202605
0
TEXT
8
TEXT
10
66000
20
-30250
30
0
40
300
1
\U+0110\U+01A0N V\U+1ECA
0
TEXT
8
TEXT
10
70000
20
-30250
30
0
40
380
1
mm
0
TEXT
8
TEXT
10
66000
20
-32050
30
0
40
300
1
NG\U+00C0Y
0
TEXT
8
TEXT
10
70000
20
-32050
30
0
40
380
1
24/09/2026 \U+00B7 THI\U+1EBET K\U+1EBE: ________ \U+00B7 KI\U+1EC2M TRA: ________
0
ENDSEC
0
EOF
