0
SECTION
2
HEADER
9
$ACADVER
1
AC1009
9
$INSUNITS
70
4
0
ENDSEC
0
SECTION
2
TABLES
0
TABLE
2
LAYER
70
7
0
LAYER
2
SITE
70
0
62
30
6
CONTINUOUS
0
LAYER
2
SLAB
70
0
62
8
6
CONTINUOUS
0
LAYER
2
WALL
70
0
62
7
6
CONTINUOUS
0
LAYER
2
GLASS
70
0
62
5
6
CONTINUOUS
0
LAYER
2
TEAK
70
0
62
32
6
CONTINUOUS
0
LAYER
2
STAIR
70
0
62
42
6
CONTINUOUS
0
LAYER
2
GATE
70
0
62
250
6
CONTINUOUS
0
ENDTAB
0
ENDSEC
0
SECTION
2
ENTITIES
0
3DFACE
8
SITE
10
0
20
0
30
0
11
5000
21
0
31
0
12
5000
22
30000
32
0
13
0
23
30000
33
0
0
3DFACE
8
GATE
10
400
20
200
30
100
11
4000
21
200
31
100
12
4000
22
260
32
100
13
400
23
260
33
100
0
3DFACE
8
GATE
10
400
20
200
30
160
11
4000
21
200
31
160
12
4000
22
260
32
160
13
400
23
260
33
160
0
3DFACE
8
GATE
10
400
20
200
30
100
11
4000
21
200
31
100
12
4000
22
200
32
160
13
400
23
200
33
160
0
3DFACE
8
GATE
10
400
20
260
30
100
11
4000
21
260
31
100
12
4000
22
260
32
160
13
400
23
260
33
160
0
3DFACE
8
GATE
10
400
20
200
30
100
11
400
21
260
31
100
12
400
22
260
32
160
13
400
23
200
33
160
0
3DFACE
8
GATE
10
4000
20
200
30
100
11
4000
21
260
31
100
12
4000
22
260
32
160
13
4000
23
200
33
160
0
3DFACE
8
GATE
10
400
20
200
30
250
11
4000
21
200
31
250
12
4000
22
260
32
250
13
400
23
260
33
250
0
3DFACE
8
GATE
10
400
20
200
30
310
11
4000
21
200
31
310
12
4000
22
260
32
310
13
400
23
260
33
310
0
3DFACE
8
GATE
10
400
20
200
30
250
11
4000
21
200
31
250
12
4000
22
200
32
310
13
400
23
200
33
310
0
3DFACE
8
GATE
10
400
20
260
30
250
11
4000
21
260
31
250
12
4000
22
260
32
310
13
400
23
260
33
310
0
3DFACE
8
GATE
10
400
20
200
30
250
11
400
21
260
31
250
12
400
22
260
32
310
13
400
23
200
33
310
0
3DFACE
8
GATE
10
4000
20
200
30
250
11
4000
21
260
31
250
12
4000
22
260
32
310
13
4000
23
200
33
310
0
3DFACE
8
GATE
10
400
20
200
30
400
11
4000
21
200
31
400
12
4000
22
260
32
400
13
400
23
260
33
400
0
3DFACE
8
GATE
10
400
20
200
30
460
11
4000
21
200
31
460
12
4000
22
260
32
460
13
400
23
260
33
460
0
3DFACE
8
GATE
10
400
20
200
30
400
11
4000
21
200
31
400
12
4000
22
200
32
460
13
400
23
200
33
460
0
3DFACE
8
GATE
10
400
20
260
30
400
11
4000
21
260
31
400
12
4000
22
260
32
460
13
400
23
260
33
460
0
3DFACE
8
GATE
10
400
20
200
30
400
11
400
21
260
31
400
12
400
22
260
32
460
13
400
23
200
33
460
0
3DFACE
8
GATE
10
4000
20
200
30
400
11
4000
21
260
31
400
12
4000
22
260
32
460
13
4000
23
200
33
460
0
3DFACE
8
GATE
10
400
20
200
30
550
11
4000
21
200
31
550
12
4000
22
260
32
550
13
400
23
260
33
550
0
3DFACE
8
GATE
10
400
20
200
30
610
11
4000
21
200
31
610
12
4000
22
260
32
610
13
400
23
260
33
610
0
3DFACE
8
GATE
10
400
20
200
30
550
11
4000
21
200
31
550
12
4000
22
200
32
610
13
400
23
200
33
610
0
3DFACE
8
GATE
10
400
20
260
30
550
11
4000
21
260
31
550
12
4000
22
260
32
610
13
400
23
260
33
610
0
3DFACE
8
GATE
10
400
20
200
30
550
11
400
21
260
31
550
12
400
22
260
32
610
13
400
23
200
33
610
0
3DFACE
8
GATE
10
4000
20
200
30
550
11
4000
21
260
31
550
12
4000
22
260
32
610
13
4000
23
200
33
610
0
3DFACE
8
GATE
10
400
20
200
30
700
11
4000
21
200
31
700
12
4000
22
260
32
700
13
400
23
260
33
700
0
3DFACE
8
GATE
10
400
20
200
30
760
11
4000
21
200
31
760
12
4000
22
260
32
760
13
400
23
260
33
760
0
3DFACE
8
GATE
10
400
20
200
30
700
11
4000
21
200
31
700
12
4000
22
200
32
760
13
400
23
200
33
760
0
3DFACE
8
GATE
10
400
20
260
30
700
11
4000
21
260
31
700
12
4000
22
260
32
760
13
400
23
260
33
760
0
3DFACE
8
GATE
10
400
20
200
30
700
11
400
21
260
31
700
12
400
22
260
32
760
13
400
23
200
33
760
0
3DFACE
8
GATE
10
4000
20
200
30
700
11
4000
21
260
31
700
12
4000
22
260
32
760
13
4000
23
200
33
760
0
3DFACE
8
GATE
10
400
20
200
30
850
11
4000
21
200
31
850
12
4000
22
260
32
850
13
400
23
260
33
850
0
3DFACE
8
GATE
10
400
20
200
30
910
11
4000
21
200
31
910
12
4000
22
260
32
910
13
400
23
260
33
910
0
3DFACE
8
GATE
10
400
20
200
30
850
11
4000
21
200
31
850
12
4000
22
200
32
910
13
400
23
200
33
910
0
3DFACE
8
GATE
10
400
20
260
30
850
11
4000
21
260
31
850
12
4000
22
260
32
910
13
400
23
260
33
910
0
3DFACE
8
GATE
10
400
20
200
30
850
11
400
21
260
31
850
12
400
22
260
32
910
13
400
23
200
33
910
0
3DFACE
8
GATE
10
4000
20
200
30
850
11
4000
21
260
31
850
12
4000
22
260
32
910
13
4000
23
200
33
910
0
3DFACE
8
GATE
10
400
20
200
30
1000
11
4000
21
200
31
1000
12
4000
22
260
32
1000
13
400
23
260
33
1000
0
3DFACE
8
GATE
10
400
20
200
30
1060
11
4000
21
200
31
1060
12
4000
22
260
32
1060
13
400
23
260
33
1060
0
3DFACE
8
GATE
10
400
20
200
30
1000
11
4000
21
200
31
1000
12
4000
22
200
32
1060
13
400
23
200
33
1060
0
3DFACE
8
GATE
10
400
20
260
30
1000
11
4000
21
260
31
1000
12
4000
22
260
32
1060
13
400
23
260
33
1060
0
3DFACE
8
GATE
10
400
20
200
30
1000
11
400
21
260
31
1000
12
400
22
260
32
1060
13
400
23
200
33
1060
0
3DFACE
8
GATE
10
4000
20
200
30
1000
11
4000
21
260
31
1000
12
4000
22
260
32
1060
13
4000
23
200
33
1060
0
3DFACE
8
GATE
10
400
20
200
30
1150
11
4000
21
200
31
1150
12
4000
22
260
32
1150
13
400
23
260
33
1150
0
3DFACE
8
GATE
10
400
20
200
30
1210
11
4000
21
200
31
1210
12
4000
22
260
32
1210
13
400
23
260
33
1210
0
3DFACE
8
GATE
10
400
20
200
30
1150
11
4000
21
200
31
1150
12
4000
22
200
32
1210
13
400
23
200
33
1210
0
3DFACE
8
GATE
10
400
20
260
30
1150
11
4000
21
260
31
1150
12
4000
22
260
32
1210
13
400
23
260
33
1210
0
3DFACE
8
GATE
10
400
20
200
30
1150
11
400
21
260
31
1150
12
400
22
260
32
1210
13
400
23
200
33
1210
0
3DFACE
8
GATE
10
4000
20
200
30
1150
11
4000
21
260
31
1150
12
4000
22
260
32
1210
13
4000
23
200
33
1210
0
3DFACE
8
GATE
10
400
20
200
30
1300
11
4000
21
200
31
1300
12
4000
22
260
32
1300
13
400
23
260
33
1300
0
3DFACE
8
GATE
10
400
20
200
30
1360
11
4000
21
200
31
1360
12
4000
22
260
32
1360
13
400
23
260
33
1360
0
3DFACE
8
GATE
10
400
20
200
30
1300
11
4000
21
200
31
1300
12
4000
22
200
32
1360
13
400
23
200
33
1360
0
3DFACE
8
GATE
10
400
20
260
30
1300
11
4000
21
260
31
1300
12
4000
22
260
32
1360
13
400
23
260
33
1360
0
3DFACE
8
GATE
10
400
20
200
30
1300
11
400
21
260
31
1300
12
400
22
260
32
1360
13
400
23
200
33
1360
0
3DFACE
8
GATE
10
4000
20
200
30
1300
11
4000
21
260
31
1300
12
4000
22
260
32
1360
13
4000
23
200
33
1360
0
3DFACE
8
GATE
10
400
20
200
30
1450
11
4000
21
200
31
1450
12
4000
22
260
32
1450
13
400
23
260
33
1450
0
3DFACE
8
GATE
10
400
20
200
30
1510
11
4000
21
200
31
1510
12
4000
22
260
32
1510
13
400
23
260
33
1510
0
3DFACE
8
GATE
10
400
20
200
30
1450
11
4000
21
200
31
1450
12
4000
22
200
32
1510
13
400
23
200
33
1510
0
3DFACE
8
GATE
10
400
20
260
30
1450
11
4000
21
260
31
1450
12
4000
22
260
32
1510
13
400
23
260
33
1510
0
3DFACE
8
GATE
10
400
20
200
30
1450
11
400
21
260
31
1450
12
400
22
260
32
1510
13
400
23
200
33
1510
0
3DFACE
8
GATE
10
4000
20
200
30
1450
11
4000
21
260
31
1450
12
4000
22
260
32
1510
13
4000
23
200
33
1510
0
3DFACE
8
GATE
10
400
20
200
30
1600
11
4000
21
200
31
1600
12
4000
22
260
32
1600
13
400
23
260
33
1600
0
3DFACE
8
GATE
10
400
20
200
30
1660
11
4000
21
200
31
1660
12
4000
22
260
32
1660
13
400
23
260
33
1660
0
3DFACE
8
GATE
10
400
20
200
30
1600
11
4000
21
200
31
1600
12
4000
22
200
32
1660
13
400
23
200
33
1660
0
3DFACE
8
GATE
10
400
20
260
30
1600
11
4000
21
260
31
1600
12
4000
22
260
32
1660
13
400
23
260
33
1660
0
3DFACE
8
GATE
10
400
20
200
30
1600
11
400
21
260
31
1600
12
400
22
260
32
1660
13
400
23
200
33
1660
0
3DFACE
8
GATE
10
4000
20
200
30
1600
11
4000
21
260
31
1600
12
4000
22
260
32
1660
13
4000
23
200
33
1660
0
3DFACE
8
GATE
10
400
20
200
30
1750
11
4000
21
200
31
1750
12
4000
22
260
32
1750
13
400
23
260
33
1750
0
3DFACE
8
GATE
10
400
20
200
30
1810
11
4000
21
200
31
1810
12
4000
22
260
32
1810
13
400
23
260
33
1810
0
3DFACE
8
GATE
10
400
20
200
30
1750
11
4000
21
200
31
1750
12
4000
22
200
32
1810
13
400
23
200
33
1810
0
3DFACE
8
GATE
10
400
20
260
30
1750
11
4000
21
260
31
1750
12
4000
22
260
32
1810
13
400
23
260
33
1810
0
3DFACE
8
GATE
10
400
20
200
30
1750
11
400
21
260
31
1750
12
400
22
260
32
1810
13
400
23
200
33
1810
0
3DFACE
8
GATE
10
4000
20
200
30
1750
11
4000
21
260
31
1750
12
4000
22
260
32
1810
13
4000
23
200
33
1810
0
3DFACE
8
GATE
10
340
20
200
30
0
11
400
21
200
31
0
12
400
22
260
32
0
13
340
23
260
33
0
0
3DFACE
8
GATE
10
340
20
200
30
1800
11
400
21
200
31
1800
12
400
22
260
32
1800
13
340
23
260
33
1800
0
3DFACE
8
GATE
10
340
20
200
30
0
11
400
21
200
31
0
12
400
22
200
32
1800
13
340
23
200
33
1800
0
3DFACE
8
GATE
10
340
20
260
30
0
11
400
21
260
31
0
12
400
22
260
32
1800
13
340
23
260
33
1800
0
3DFACE
8
GATE
10
340
20
200
30
0
11
340
21
260
31
0
12
340
22
260
32
1800
13
340
23
200
33
1800
0
3DFACE
8
GATE
10
400
20
200
30
0
11
400
21
260
31
0
12
400
22
260
32
1800
13
400
23
200
33
1800
0
3DFACE
8
GATE
10
4000
20
200
30
0
11
4060
21
200
31
0
12
4060
22
260
32
0
13
4000
23
260
33
0
0
3DFACE
8
GATE
10
4000
20
200
30
1800
11
4060
21
200
31
1800
12
4060
22
260
32
1800
13
4000
23
260
33
1800
0
3DFACE
8
GATE
10
4000
20
200
30
0
11
4060
21
200
31
0
12
4060
22
200
32
1800
13
4000
23
200
33
1800
0
3DFACE
8
GATE
10
4000
20
260
30
0
11
4060
21
260
31
0
12
4060
22
260
32
1800
13
4000
23
260
33
1800
0
3DFACE
8
GATE
10
4000
20
200
30
0
11
4000
21
260
31
0
12
4000
22
260
32
1800
13
4000
23
200
33
1800
0
3DFACE
8
GATE
10
4060
20
200
30
0
11
4060
21
260
31
0
12
4060
22
260
32
1800
13
4060
23
200
33
1800
0
3DFACE
8
SLAB
10
0
20
8000
30
0
11
5000
21
8000
31
0
12
5000
22
26000
32
0
13
0
23
26000
33
0
0
3DFACE
8
SLAB
10
0
20
8000
30
450
11
5000
21
8000
31
450
12
5000
22
26000
32
450
13
0
23
26000
33
450
0
3DFACE
8
SLAB
10
0
20
8000
30
0
11
5000
21
8000
31
0
12
5000
22
8000
32
450
13
0
23
8000
33
450
0
3DFACE
8
SLAB
10
0
20
26000
30
0
11
5000
21
26000
31
0
12
5000
22
26000
32
450
13
0
23
26000
33
450
0
3DFACE
8
SLAB
10
0
20
8000
30
0
11
0
21
26000
31
0
12
0
22
26000
32
450
13
0
23
8000
33
450
0
3DFACE
8
SLAB
10
5000
20
8000
30
0
11
5000
21
26000
31
0
12
5000
22
26000
32
450
13
5000
23
8000
33
450
0
3DFACE
8
SLAB
10
0
20
8000
30
3850
11
5000
21
8000
31
3850
12
5000
22
17900
32
3850
13
0
23
17900
33
3850
0
3DFACE
8
SLAB
10
0
20
8000
30
4050
11
5000
21
8000
31
4050
12
5000
22
17900
32
4050
13
0
23
17900
33
4050
0
3DFACE
8
SLAB
10
0
20
8000
30
3850
11
5000
21
8000
31
3850
12
5000
22
8000
32
4050
13
0
23
8000
33
4050
0
3DFACE
8
SLAB
10
0
20
17900
30
3850
11
5000
21
17900
31
3850
12
5000
22
17900
32
4050
13
0
23
17900
33
4050
0
3DFACE
8
SLAB
10
0
20
8000
30
3850
11
0
21
17900
31
3850
12
0
22
17900
32
4050
13
0
23
8000
33
4050
0
3DFACE
8
SLAB
10
5000
20
8000
30
3850
11
5000
21
17900
31
3850
12
5000
22
17900
32
4050
13
5000
23
8000
33
4050
0
3DFACE
8
SLAB
10
0
20
20800
30
3850
11
5000
21
20800
31
3850
12
5000
22
26000
32
3850
13
0
23
26000
33
3850
0
3DFACE
8
SLAB
10
0
20
20800
30
4050
11
5000
21
20800
31
4050
12
5000
22
26000
32
4050
13
0
23
26000
33
4050
0
3DFACE
8
SLAB
10
0
20
20800
30
3850
11
5000
21
20800
31
3850
12
5000
22
20800
32
4050
13
0
23
20800
33
4050
0
3DFACE
8
SLAB
10
0
20
26000
30
3850
11
5000
21
26000
31
3850
12
5000
22
26000
32
4050
13
0
23
26000
33
4050
0
3DFACE
8
SLAB
10
0
20
20800
30
3850
11
0
21
26000
31
3850
12
0
22
26000
32
4050
13
0
23
20800
33
4050
0
3DFACE
8
SLAB
10
5000
20
20800
30
3850
11
5000
21
26000
31
3850
12
5000
22
26000
32
4050
13
5000
23
20800
33
4050
0
3DFACE
8
SLAB
10
0
20
17900
30
3850
11
1200
21
17900
31
3850
12
1200
22
20800
32
3850
13
0
23
20800
33
3850
0
3DFACE
8
SLAB
10
0
20
17900
30
4050
11
1200
21
17900
31
4050
12
1200
22
20800
32
4050
13
0
23
20800
33
4050
0
3DFACE
8
SLAB
10
0
20
17900
30
3850
11
1200
21
17900
31
3850
12
1200
22
17900
32
4050
13
0
23
17900
33
4050
0
3DFACE
8
SLAB
10
0
20
20800
30
3850
11
1200
21
20800
31
3850
12
1200
22
20800
32
4050
13
0
23
20800
33
4050
0
3DFACE
8
SLAB
10
0
20
17900
30
3850
11
0
21
20800
31
3850
12
0
22
20800
32
4050
13
0
23
17900
33
4050
0
3DFACE
8
SLAB
10
1200
20
17900
30
3850
11
1200
21
20800
31
3850
12
1200
22
20800
32
4050
13
1200
23
17900
33
4050
0
3DFACE
8
SLAB
10
2750
20
17900
30
3850
11
5000
21
17900
31
3850
12
5000
22
20800
32
3850
13
2750
23
20800
33
3850
0
3DFACE
8
SLAB
10
2750
20
17900
30
4050
11
5000
21
17900
31
4050
12
5000
22
20800
32
4050
13
2750
23
20800
33
4050
0
3DFACE
8
SLAB
10
2750
20
17900
30
3850
11
5000
21
17900
31
3850
12
5000
22
17900
32
4050
13
2750
23
17900
33
4050
0
3DFACE
8
SLAB
10
2750
20
20800
30
3850
11
5000
21
20800
31
3850
12
5000
22
20800
32
4050
13
2750
23
20800
33
4050
0
3DFACE
8
SLAB
10
2750
20
17900
30
3850
11
2750
21
20800
31
3850
12
2750
22
20800
32
4050
13
2750
23
17900
33
4050
0
3DFACE
8
SLAB
10
5000
20
17900
30
3850
11
5000
21
20800
31
3850
12
5000
22
20800
32
4050
13
5000
23
17900
33
4050
0
3DFACE
8
SLAB
10
0
20
8000
30
7150
11
5000
21
8000
31
7150
12
5000
22
17900
32
7150
13
0
23
17900
33
7150
0
3DFACE
8
SLAB
10
0
20
8000
30
7350
11
5000
21
8000
31
7350
12
5000
22
17900
32
7350
13
0
23
17900
33
7350
0
3DFACE
8
SLAB
10
0
20
8000
30
7150
11
5000
21
8000
31
7150
12
5000
22
8000
32
7350
13
0
23
8000
33
7350
0
3DFACE
8
SLAB
10
0
20
17900
30
7150
11
5000
21
17900
31
7150
12
5000
22
17900
32
7350
13
0
23
17900
33
7350
0
3DFACE
8
SLAB
10
0
20
8000
30
7150
11
0
21
17900
31
7150
12
0
22
17900
32
7350
13
0
23
8000
33
7350
0
3DFACE
8
SLAB
10
5000
20
8000
30
7150
11
5000
21
17900
31
7150
12
5000
22
17900
32
7350
13
5000
23
8000
33
7350
0
3DFACE
8
SLAB
10
0
20
20800
30
7150
11
5000
21
20800
31
7150
12
5000
22
26000
32
7150
13
0
23
26000
33
7150
0
3DFACE
8
SLAB
10
0
20
20800
30
7350
11
5000
21
20800
31
7350
12
5000
22
26000
32
7350
13
0
23
26000
33
7350
0
3DFACE
8
SLAB
10
0
20
20800
30
7150
11
5000
21
20800
31
7150
12
5000
22
20800
32
7350
13
0
23
20800
33
7350
0
3DFACE
8
SLAB
10
0
20
26000
30
7150
11
5000
21
26000
31
7150
12
5000
22
26000
32
7350
13
0
23
26000
33
7350
0
3DFACE
8
SLAB
10
0
20
20800
30
7150
11
0
21
26000
31
7150
12
0
22
26000
32
7350
13
0
23
20800
33
7350
0
3DFACE
8
SLAB
10
5000
20
20800
30
7150
11
5000
21
26000
31
7150
12
5000
22
26000
32
7350
13
5000
23
20800
33
7350
0
3DFACE
8
SLAB
10
0
20
17900
30
7150
11
1200
21
17900
31
7150
12
1200
22
20800
32
7150
13
0
23
20800
33
7150
0
3DFACE
8
SLAB
10
0
20
17900
30
7350
11
1200
21
17900
31
7350
12
1200
22
20800
32
7350
13
0
23
20800
33
7350
0
3DFACE
8
SLAB
10
0
20
17900
30
7150
11
1200
21
17900
31
7150
12
1200
22
17900
32
7350
13
0
23
17900
33
7350
0
3DFACE
8
SLAB
10
0
20
20800
30
7150
11
1200
21
20800
31
7150
12
1200
22
20800
32
7350
13
0
23
20800
33
7350
0
3DFACE
8
SLAB
10
0
20
17900
30
7150
11
0
21
20800
31
7150
12
0
22
20800
32
7350
13
0
23
17900
33
7350
0
3DFACE
8
SLAB
10
1200
20
17900
30
7150
11
1200
21
20800
31
7150
12
1200
22
20800
32
7350
13
1200
23
17900
33
7350
0
3DFACE
8
SLAB
10
2750
20
17900
30
7150
11
5000
21
17900
31
7150
12
5000
22
20800
32
7150
13
2750
23
20800
33
7150
0
3DFACE
8
SLAB
10
2750
20
17900
30
7350
11
5000
21
17900
31
7350
12
5000
22
20800
32
7350
13
2750
23
20800
33
7350
0
3DFACE
8
SLAB
10
2750
20
17900
30
7150
11
5000
21
17900
31
7150
12
5000
22
17900
32
7350
13
2750
23
17900
33
7350
0
3DFACE
8
SLAB
10
2750
20
20800
30
7150
11
5000
21
20800
31
7150
12
5000
22
20800
32
7350
13
2750
23
20800
33
7350
0
3DFACE
8
SLAB
10
2750
20
17900
30
7150
11
2750
21
20800
31
7150
12
2750
22
20800
32
7350
13
2750
23
17900
33
7350
0
3DFACE
8
SLAB
10
5000
20
17900
30
7150
11
5000
21
20800
31
7150
12
5000
22
20800
32
7350
13
5000
23
17900
33
7350
0
3DFACE
8
WALL
10
0
20
8000
30
450
11
200.00000000000017
21
8000
31
450
12
200.00000000000017
22
26000
32
450
13
0
23
26000
33
450
0
3DFACE
8
WALL
10
0
20
8000
30
7150
11
200.00000000000017
21
8000
31
7150
12
200.00000000000017
22
26000
32
7150
13
0
23
26000
33
7150
0
3DFACE
8
WALL
10
0
20
8000
30
450
11
200.00000000000017
21
8000
31
450
12
200.00000000000017
22
8000
32
7150
13
0
23
8000
33
7150
0
3DFACE
8
WALL
10
0
20
26000
30
450
11
200.00000000000017
21
26000
31
450
12
200.00000000000017
22
26000
32
7150
13
0
23
26000
33
7150
0
3DFACE
8
WALL
10
0
20
8000
30
450
11
0
21
26000
31
450
12
0
22
26000
32
7150
13
0
23
8000
33
7150
0
3DFACE
8
WALL
10
200.00000000000017
20
8000
30
450
11
200.00000000000017
21
26000
31
450
12
200.00000000000017
22
26000
32
7150
13
200.00000000000017
23
8000
33
7150
0
3DFACE
8
WALL
10
4800
20
8000
30
450
11
5000
21
8000
31
450
12
5000
22
26000
32
450
13
4800
23
26000
33
450
0
3DFACE
8
WALL
10
4800
20
8000
30
7150
11
5000
21
8000
31
7150
12
5000
22
26000
32
7150
13
4800
23
26000
33
7150
0
3DFACE
8
WALL
10
4800
20
8000
30
450
11
5000
21
8000
31
450
12
5000
22
8000
32
7150
13
4800
23
8000
33
7150
0
3DFACE
8
WALL
10
4800
20
26000
30
450
11
5000
21
26000
31
450
12
5000
22
26000
32
7150
13
4800
23
26000
33
7150
0
3DFACE
8
WALL
10
4800
20
8000
30
450
11
4800
21
26000
31
450
12
4800
22
26000
32
7150
13
4800
23
8000
33
7150
0
3DFACE
8
WALL
10
5000
20
8000
30
450
11
5000
21
26000
31
450
12
5000
22
26000
32
7150
13
5000
23
8000
33
7150
0
3DFACE
8
WALL
10
200.00000000000017
20
8000
30
450
11
400
21
8000
31
450
12
400
22
8700
32
450
13
200.00000000000017
23
8700
33
450
0
3DFACE
8
WALL
10
200.00000000000017
20
8000
30
3850
11
400
21
8000
31
3850
12
400
22
8700
32
3850
13
200.00000000000017
23
8700
33
3850
0
3DFACE
8
WALL
10
200.00000000000017
20
8000
30
450
11
400
21
8000
31
450
12
400
22
8000
32
3850
13
200.00000000000017
23
8000
33
3850
0
3DFACE
8
WALL
10
200.00000000000017
20
8700
30
450
11
400
21
8700
31
450
12
400
22
8700
32
3850
13
200.00000000000017
23
8700
33
3850
0
3DFACE
8
WALL
10
200.00000000000017
20
8000
30
450
11
200.00000000000017
21
8700
31
450
12
200.00000000000017
22
8700
32
3850
13
200.00000000000017
23
8000
33
3850
0
3DFACE
8
WALL
10
400
20
8000
30
450
11
400
21
8700
31
450
12
400
22
8700
32
3850
13
400
23
8000
33
3850
0
3DFACE
8
WALL
10
4600
20
8000
30
450
11
4800
21
8000
31
450
12
4800
22
8700
32
450
13
4600
23
8700
33
450
0
3DFACE
8
WALL
10
4600
20
8000
30
3850
11
4800
21
8000
31
3850
12
4800
22
8700
32
3850
13
4600
23
8700
33
3850
0
3DFACE
8
WALL
10
4600
20
8000
30
450
11
4800
21
8000
31
450
12
4800
22
8000
32
3850
13
4600
23
8000
33
3850
0
3DFACE
8
WALL
10
4600
20
8700
30
450
11
4800
21
8700
31
450
12
4800
22
8700
32
3850
13
4600
23
8700
33
3850
0
3DFACE
8
WALL
10
4600
20
8000
30
450
11
4600
21
8700
31
450
12
4600
22
8700
32
3850
13
4600
23
8000
33
3850
0
3DFACE
8
WALL
10
4800
20
8000
30
450
11
4800
21
8700
31
450
12
4800
22
8700
32
3850
13
4800
23
8000
33
3850
0
3DFACE
8
GLASS
10
400
20
8600
30
450
11
4600
21
8600
31
450
12
4600
22
8620
32
450
13
400
23
8620
33
450
0
3DFACE
8
GLASS
10
400
20
8600
30
3150
11
4600
21
8600
31
3150
12
4600
22
8620
32
3150
13
400
23
8620
33
3150
0
3DFACE
8
GLASS
10
400
20
8600
30
450
11
4600
21
8600
31
450
12
4600
22
8600
32
3150
13
400
23
8600
33
3150
0
3DFACE
8
GLASS
10
400
20
8620
30
450
11
4600
21
8620
31
450
12
4600
22
8620
32
3150
13
400
23
8620
33
3150
0
3DFACE
8
GLASS
10
400
20
8600
30
450
11
400
21
8620
31
450
12
400
22
8620
32
3150
13
400
23
8600
33
3150
0
3DFACE
8
GLASS
10
4600
20
8600
30
450
11
4600
21
8620
31
450
12
4600
22
8620
32
3150
13
4600
23
8600
33
3150
0
3DFACE
8
WALL
10
400
20
8600
30
3150
11
4600
21
8600
31
3150
12
4600
22
8700
32
3150
13
400
23
8700
33
3150
0
3DFACE
8
WALL
10
400
20
8600
30
3850
11
4600
21
8600
31
3850
12
4600
22
8700
32
3850
13
400
23
8700
33
3850
0
3DFACE
8
WALL
10
400
20
8600
30
3150
11
4600
21
8600
31
3150
12
4600
22
8600
32
3850
13
400
23
8600
33
3850
0
3DFACE
8
WALL
10
400
20
8700
30
3150
11
4600
21
8700
31
3150
12
4600
22
8700
32
3850
13
400
23
8700
33
3850
0
3DFACE
8
WALL
10
400
20
8600
30
3150
11
400
21
8700
31
3150
12
400
22
8700
32
3850
13
400
23
8600
33
3850
0
3DFACE
8
WALL
10
4600
20
8600
30
3150
11
4600
21
8700
31
3150
12
4600
22
8700
32
3850
13
4600
23
8600
33
3850
0
3DFACE
8
WALL
10
200.00000000000017
20
8000
30
3450
11
4800
21
8000
31
3450
12
4800
22
8200
32
3450
13
200.00000000000017
23
8200
33
3450
0
3DFACE
8
WALL
10
200.00000000000017
20
8000
30
3850
11
4800
21
8000
31
3850
12
4800
22
8200
32
3850
13
200.00000000000017
23
8200
33
3850
0
3DFACE
8
WALL
10
200.00000000000017
20
8000
30
3450
11
4800
21
8000
31
3450
12
4800
22
8000
32
3850
13
200.00000000000017
23
8000
33
3850
0
3DFACE
8
WALL
10
200.00000000000017
20
8200
30
3450
11
4800
21
8200
31
3450
12
4800
22
8200
32
3850
13
200.00000000000017
23
8200
33
3850
0
3DFACE
8
WALL
10
200.00000000000017
20
8000
30
3450
11
200.00000000000017
21
8200
31
3450
12
200.00000000000017
22
8200
32
3850
13
200.00000000000017
23
8000
33
3850
0
3DFACE
8
WALL
10
4800
20
8000
30
3450
11
4800
21
8200
31
3450
12
4800
22
8200
32
3850
13
4800
23
8000
33
3850
0
3DFACE
8
GLASS
10
200.00000000000017
20
8000
30
4050
11
4800
21
8000
31
4050
12
4800
22
8020
32
4050
13
200.00000000000017
23
8020
33
4050
0
3DFACE
8
GLASS
10
200.00000000000017
20
8000
30
5150
11
4800
21
8000
31
5150
12
4800
22
8020
32
5150
13
200.00000000000017
23
8020
33
5150
0
3DFACE
8
GLASS
10
200.00000000000017
20
8000
30
4050
11
4800
21
8000
31
4050
12
4800
22
8000
32
5150
13
200.00000000000017
23
8000
33
5150
0
3DFACE
8
GLASS
10
200.00000000000017
20
8020
30
4050
11
4800
21
8020
31
4050
12
4800
22
8020
32
5150
13
200.00000000000017
23
8020
33
5150
0
3DFACE
8
GLASS
10
200.00000000000017
20
8000
30
4050
11
200.00000000000017
21
8020
31
4050
12
200.00000000000017
22
8020
32
5150
13
200.00000000000017
23
8000
33
5150
0
3DFACE
8
GLASS
10
4800
20
8000
30
4050
11
4800
21
8020
31
4050
12
4800
22
8020
32
5150
13
4800
23
8000
33
5150
0
3DFACE
8
TEAK
10
200.00000000000017
20
8000
30
4050
11
240.00000000000017
21
8000
31
4050
12
240.00000000000017
22
8080
32
4050
13
200.00000000000017
23
8080
33
4050
0
3DFACE
8
TEAK
10
200.00000000000017
20
8000
30
7150
11
240.00000000000017
21
8000
31
7150
12
240.00000000000017
22
8080
32
7150
13
200.00000000000017
23
8080
33
7150
0
3DFACE
8
TEAK
10
200.00000000000017
20
8000
30
4050
11
240.00000000000017
21
8000
31
4050
12
240.00000000000017
22
8000
32
7150
13
200.00000000000017
23
8000
33
7150
0
3DFACE
8
TEAK
10
200.00000000000017
20
8080
30
4050
11
240.00000000000017
21
8080
31
4050
12
240.00000000000017
22
8080
32
7150
13
200.00000000000017
23
8080
33
7150
0
3DFACE
8
TEAK
10
200.00000000000017
20
8000
30
4050
11
200.00000000000017
21
8080
31
4050
12
200.00000000000017
22
8080
32
7150
13
200.00000000000017
23
8000
33
7150
0
3DFACE
8
TEAK
10
240.00000000000017
20
8000
30
4050
11
240.00000000000017
21
8080
31
4050
12
240.00000000000017
22
8080
32
7150
13
240.00000000000017
23
8000
33
7150
0
3DFACE
8
TEAK
10
314.00000000000017
20
8000
30
4050
11
354.00000000000017
21
8000
31
4050
12
354.00000000000017
22
8080
32
4050
13
314.00000000000017
23
8080
33
4050
0
3DFACE
8
TEAK
10
314.00000000000017
20
8000
30
7150
11
354.00000000000017
21
8000
31
7150
12
354.00000000000017
22
8080
32
7150
13
314.00000000000017
23
8080
33
7150
0
3DFACE
8
TEAK
10
314.00000000000017
20
8000
30
4050
11
354.00000000000017
21
8000
31
4050
12
354.00000000000017
22
8000
32
7150
13
314.00000000000017
23
8000
33
7150
0
3DFACE
8
TEAK
10
314.00000000000017
20
8080
30
4050
11
354.00000000000017
21
8080
31
4050
12
354.00000000000017
22
8080
32
7150
13
314.00000000000017
23
8080
33
7150
0
3DFACE
8
TEAK
10
314.00000000000017
20
8000
30
4050
11
314.00000000000017
21
8080
31
4050
12
314.00000000000017
22
8080
32
7150
13
314.00000000000017
23
8000
33
7150
0
3DFACE
8
TEAK
10
354.00000000000017
20
8000
30
4050
11
354.00000000000017
21
8080
31
4050
12
354.00000000000017
22
8080
32
7150
13
354.00000000000017
23
8000
33
7150
0
3DFACE
8
TEAK
10
428.00000000000017
20
8000
30
4050
11
468.00000000000017
21
8000
31
4050
12
468.00000000000017
22
8080
32
4050
13
428.00000000000017
23
8080
33
4050
0
3DFACE
8
TEAK
10
428.00000000000017
20
8000
30
7150
11
468.00000000000017
21
8000
31
7150
12
468.00000000000017
22
8080
32
7150
13
428.00000000000017
23
8080
33
7150
0
3DFACE
8
TEAK
10
428.00000000000017
20
8000
30
4050
11
468.00000000000017
21
8000
31
4050
12
468.00000000000017
22
8000
32
7150
13
428.00000000000017
23
8000
33
7150
0
3DFACE
8
TEAK
10
428.00000000000017
20
8080
30
4050
11
468.00000000000017
21
8080
31
4050
12
468.00000000000017
22
8080
32
7150
13
428.00000000000017
23
8080
33
7150
0
3DFACE
8
TEAK
10
428.00000000000017
20
8000
30
4050
11
428.00000000000017
21
8080
31
4050
12
428.00000000000017
22
8080
32
7150
13
428.00000000000017
23
8000
33
7150
0
3DFACE
8
TEAK
10
468.00000000000017
20
8000
30
4050
11
468.00000000000017
21
8080
31
4050
12
468.00000000000017
22
8080
32
7150
13
468.00000000000017
23
8000
33
7150
0
3DFACE
8
TEAK
10
542.0000000000002
20
8000
30
4050
11
582.0000000000002
21
8000
31
4050
12
582.0000000000002
22
8080
32
4050
13
542.0000000000002
23
8080
33
4050
0
3DFACE
8
TEAK
10
542.0000000000002
20
8000
30
7150
11
582.0000000000002
21
8000
31
7150
12
582.0000000000002
22
8080
32
7150
13
542.0000000000002
23
8080
33
7150
0
3DFACE
8
TEAK
10
542.0000000000002
20
8000
30
4050
11
582.0000000000002
21
8000
31
4050
12
582.0000000000002
22
8000
32
7150
13
542.0000000000002
23
8000
33
7150
0
3DFACE
8
TEAK
10
542.0000000000002
20
8080
30
4050
11
582.0000000000002
21
8080
31
4050
12
582.0000000000002
22
8080
32
7150
13
542.0000000000002
23
8080
33
7150
0
3DFACE
8
TEAK
10
542.0000000000002
20
8000
30
4050
11
542.0000000000002
21
8080
31
4050
12
542.0000000000002
22
8080
32
7150
13
542.0000000000002
23
8000
33
7150
0
3DFACE
8
TEAK
10
582.0000000000002
20
8000
30
4050
11
582.0000000000002
21
8080
31
4050
12
582.0000000000002
22
8080
32
7150
13
582.0000000000002
23
8000
33
7150
0
3DFACE
8
TEAK
10
656.0000000000002
20
8000
30
4050
11
696.0000000000002
21
8000
31
4050
12
696.0000000000002
22
8080
32
4050
13
656.0000000000002
23
8080
33
4050
0
3DFACE
8
TEAK
10
656.0000000000002
20
8000
30
7150
11
696.0000000000002
21
8000
31
7150
12
696.0000000000002
22
8080
32
7150
13
656.0000000000002
23
8080
33
7150
0
3DFACE
8
TEAK
10
656.0000000000002
20
8000
30
4050
11
696.0000000000002
21
8000
31
4050
12
696.0000000000002
22
8000
32
7150
13
656.0000000000002
23
8000
33
7150
0
3DFACE
8
TEAK
10
656.0000000000002
20
8080
30
4050
11
696.0000000000002
21
8080
31
4050
12
696.0000000000002
22
8080
32
7150
13
656.0000000000002
23
8080
33
7150
0
3DFACE
8
TEAK
10
656.0000000000002
20
8000
30
4050
11
656.0000000000002
21
8080
31
4050
12
656.0000000000002
22
8080
32
7150
13
656.0000000000002
23
8000
33
7150
0
3DFACE
8
TEAK
10
696.0000000000002
20
8000
30
4050
11
696.0000000000002
21
8080
31
4050
12
696.0000000000002
22
8080
32
7150
13
696.0000000000002
23
8000
33
7150
0
3DFACE
8
TEAK
10
770.0000000000002
20
8000
30
4050
11
810.0000000000002
21
8000
31
4050
12
810.0000000000002
22
8080
32
4050
13
770.0000000000002
23
8080
33
4050
0
3DFACE
8
TEAK
10
770.0000000000002
20
8000
30
7150
11
810.0000000000002
21
8000
31
7150
12
810.0000000000002
22
8080
32
7150
13
770.0000000000002
23
8080
33
7150
0
3DFACE
8
TEAK
10
770.0000000000002
20
8000
30
4050
11
810.0000000000002
21
8000
31
4050
12
810.0000000000002
22
8000
32
7150
13
770.0000000000002
23
8000
33
7150
0
3DFACE
8
TEAK
10
770.0000000000002
20
8080
30
4050
11
810.0000000000002
21
8080
31
4050
12
810.0000000000002
22
8080
32
7150
13
770.0000000000002
23
8080
33
7150
0
3DFACE
8
TEAK
10
770.0000000000002
20
8000
30
4050
11
770.0000000000002
21
8080
31
4050
12
770.0000000000002
22
8080
32
7150
13
770.0000000000002
23
8000
33
7150
0
3DFACE
8
TEAK
10
810.0000000000002
20
8000
30
4050
11
810.0000000000002
21
8080
31
4050
12
810.0000000000002
22
8080
32
7150
13
810.0000000000002
23
8000
33
7150
0
3DFACE
8
TEAK
10
884.0000000000002
20
8000
30
4050
11
924.0000000000002
21
8000
31
4050
12
924.0000000000002
22
8080
32
4050
13
884.0000000000002
23
8080
33
4050
0
3DFACE
8
TEAK
10
884.0000000000002
20
8000
30
7150
11
924.0000000000002
21
8000
31
7150
12
924.0000000000002
22
8080
32
7150
13
884.0000000000002
23
8080
33
7150
0
3DFACE
8
TEAK
10
884.0000000000002
20
8000
30
4050
11
924.0000000000002
21
8000
31
4050
12
924.0000000000002
22
8000
32
7150
13
884.0000000000002
23
8000
33
7150
0
3DFACE
8
TEAK
10
884.0000000000002
20
8080
30
4050
11
924.0000000000002
21
8080
31
4050
12
924.0000000000002
22
8080
32
7150
13
884.0000000000002
23
8080
33
7150
0
3DFACE
8
TEAK
10
884.0000000000002
20
8000
30
4050
11
884.0000000000002
21
8080
31
4050
12
884.0000000000002
22
8080
32
7150
13
884.0000000000002
23
8000
33
7150
0
3DFACE
8
TEAK
10
924.0000000000002
20
8000
30
4050
11
924.0000000000002
21
8080
31
4050
12
924.0000000000002
22
8080
32
7150
13
924.0000000000002
23
8000
33
7150
0
3DFACE
8
TEAK
10
998.0000000000002
20
8000
30
4050
11
1038.0000000000002
21
8000
31
4050
12
1038.0000000000002
22
8080
32
4050
13
998.0000000000002
23
8080
33
4050
0
3DFACE
8
TEAK
10
998.0000000000002
20
8000
30
7150
11
1038.0000000000002
21
8000
31
7150
12
1038.0000000000002
22
8080
32
7150
13
998.0000000000002
23
8080
33
7150
0
3DFACE
8
TEAK
10
998.0000000000002
20
8000
30
4050
11
1038.0000000000002
21
8000
31
4050
12
1038.0000000000002
22
8000
32
7150
13
998.0000000000002
23
8000
33
7150
0
3DFACE
8
TEAK
10
998.0000000000002
20
8080
30
4050
11
1038.0000000000002
21
8080
31
4050
12
1038.0000000000002
22
8080
32
7150
13
998.0000000000002
23
8080
33
7150
0
3DFACE
8
TEAK
10
998.0000000000002
20
8000
30
4050
11
998.0000000000002
21
8080
31
4050
12
998.0000000000002
22
8080
32
7150
13
998.0000000000002
23
8000
33
7150
0
3DFACE
8
TEAK
10
1038.0000000000002
20
8000
30
4050
11
1038.0000000000002
21
8080
31
4050
12
1038.0000000000002
22
8080
32
7150
13
1038.0000000000002
23
8000
33
7150
0
3DFACE
8
TEAK
10
1112.0000000000002
20
8000
30
4050
11
1152.0000000000002
21
8000
31
4050
12
1152.0000000000002
22
8080
32
4050
13
1112.0000000000002
23
8080
33
4050
0
3DFACE
8
TEAK
10
1112.0000000000002
20
8000
30
7150
11
1152.0000000000002
21
8000
31
7150
12
1152.0000000000002
22
8080
32
7150
13
1112.0000000000002
23
8080
33
7150
0
3DFACE
8
TEAK
10
1112.0000000000002
20
8000
30
4050
11
1152.0000000000002
21
8000
31
4050
12
1152.0000000000002
22
8000
32
7150
13
1112.0000000000002
23
8000
33
7150
0
3DFACE
8
TEAK
10
1112.0000000000002
20
8080
30
4050
11
1152.0000000000002
21
8080
31
4050
12
1152.0000000000002
22
8080
32
7150
13
1112.0000000000002
23
8080
33
7150
0
3DFACE
8
TEAK
10
1112.0000000000002
20
8000
30
4050
11
1112.0000000000002
21
8080
31
4050
12
1112.0000000000002
22
8080
32
7150
13
1112.0000000000002
23
8000
33
7150
0
3DFACE
8
TEAK
10
1152.0000000000002
20
8000
30
4050
11
1152.0000000000002
21
8080
31
4050
12
1152.0000000000002
22
8080
32
7150
13
1152.0000000000002
23
8000
33
7150
0
3DFACE
8
TEAK
10
1226.0000000000002
20
8000
30
4050
11
1266.0000000000002
21
8000
31
4050
12
1266.0000000000002
22
8080
32
4050
13
1226.0000000000002
23
8080
33
4050
0
3DFACE
8
TEAK
10
1226.0000000000002
20
8000
30
7150
11
1266.0000000000002
21
8000
31
7150
12
1266.0000000000002
22
8080
32
7150
13
1226.0000000000002
23
8080
33
7150
0
3DFACE
8
TEAK
10
1226.0000000000002
20
8000
30
4050
11
1266.0000000000002
21
8000
31
4050
12
1266.0000000000002
22
8000
32
7150
13
1226.0000000000002
23
8000
33
7150
0
3DFACE
8
TEAK
10
1226.0000000000002
20
8080
30
4050
11
1266.0000000000002
21
8080
31
4050
12
1266.0000000000002
22
8080
32
7150
13
1226.0000000000002
23
8080
33
7150
0
3DFACE
8
TEAK
10
1226.0000000000002
20
8000
30
4050
11
1226.0000000000002
21
8080
31
4050
12
1226.0000000000002
22
8080
32
7150
13
1226.0000000000002
23
8000
33
7150
0
3DFACE
8
TEAK
10
1266.0000000000002
20
8000
30
4050
11
1266.0000000000002
21
8080
31
4050
12
1266.0000000000002
22
8080
32
7150
13
1266.0000000000002
23
8000
33
7150
0
3DFACE
8
TEAK
10
1340.0000000000002
20
8000
30
4050
11
1380.0000000000002
21
8000
31
4050
12
1380.0000000000002
22
8080
32
4050
13
1340.0000000000002
23
8080
33
4050
0
3DFACE
8
TEAK
10
1340.0000000000002
20
8000
30
7150
11
1380.0000000000002
21
8000
31
7150
12
1380.0000000000002
22
8080
32
7150
13
1340.0000000000002
23
8080
33
7150
0
3DFACE
8
TEAK
10
1340.0000000000002
20
8000
30
4050
11
1380.0000000000002
21
8000
31
4050
12
1380.0000000000002
22
8000
32
7150
13
1340.0000000000002
23
8000
33
7150
0
3DFACE
8
TEAK
10
1340.0000000000002
20
8080
30
4050
11
1380.0000000000002
21
8080
31
4050
12
1380.0000000000002
22
8080
32
7150
13
1340.0000000000002
23
8080
33
7150
0
3DFACE
8
TEAK
10
1340.0000000000002
20
8000
30
4050
11
1340.0000000000002
21
8080
31
4050
12
1340.0000000000002
22
8080
32
7150
13
1340.0000000000002
23
8000
33
7150
0
3DFACE
8
TEAK
10
1380.0000000000002
20
8000
30
4050
11
1380.0000000000002
21
8080
31
4050
12
1380.0000000000002
22
8080
32
7150
13
1380.0000000000002
23
8000
33
7150
0
3DFACE
8
TEAK
10
1454.0000000000002
20
8000
30
4050
11
1494.0000000000002
21
8000
31
4050
12
1494.0000000000002
22
8080
32
4050
13
1454.0000000000002
23
8080
33
4050
0
3DFACE
8
TEAK
10
1454.0000000000002
20
8000
30
7150
11
1494.0000000000002
21
8000
31
7150
12
1494.0000000000002
22
8080
32
7150
13
1454.0000000000002
23
8080
33
7150
0
3DFACE
8
TEAK
10
1454.0000000000002
20
8000
30
4050
11
1494.0000000000002
21
8000
31
4050
12
1494.0000000000002
22
8000
32
7150
13
1454.0000000000002
23
8000
33
7150
0
3DFACE
8
TEAK
10
1454.0000000000002
20
8080
30
4050
11
1494.0000000000002
21
8080
31
4050
12
1494.0000000000002
22
8080
32
7150
13
1454.0000000000002
23
8080
33
7150
0
3DFACE
8
TEAK
10
1454.0000000000002
20
8000
30
4050
11
1454.0000000000002
21
8080
31
4050
12
1454.0000000000002
22
8080
32
7150
13
1454.0000000000002
23
8000
33
7150
0
3DFACE
8
TEAK
10
1494.0000000000002
20
8000
30
4050
11
1494.0000000000002
21
8080
31
4050
12
1494.0000000000002
22
8080
32
7150
13
1494.0000000000002
23
8000
33
7150
0
3DFACE
8
TEAK
10
1568.0000000000002
20
8000
30
4050
11
1608.0000000000002
21
8000
31
4050
12
1608.0000000000002
22
8080
32
4050
13
1568.0000000000002
23
8080
33
4050
0
3DFACE
8
TEAK
10
1568.0000000000002
20
8000
30
7150
11
1608.0000000000002
21
8000
31
7150
12
1608.0000000000002
22
8080
32
7150
13
1568.0000000000002
23
8080
33
7150
0
3DFACE
8
TEAK
10
1568.0000000000002
20
8000
30
4050
11
1608.0000000000002
21
8000
31
4050
12
1608.0000000000002
22
8000
32
7150
13
1568.0000000000002
23
8000
33
7150
0
3DFACE
8
TEAK
10
1568.0000000000002
20
8080
30
4050
11
1608.0000000000002
21
8080
31
4050
12
1608.0000000000002
22
8080
32
7150
13
1568.0000000000002
23
8080
33
7150
0
3DFACE
8
TEAK
10
1568.0000000000002
20
8000
30
4050
11
1568.0000000000002
21
8080
31
4050
12
1568.0000000000002
22
8080
32
7150
13
1568.0000000000002
23
8000
33
7150
0
3DFACE
8
TEAK
10
1608.0000000000002
20
8000
30
4050
11
1608.0000000000002
21
8080
31
4050
12
1608.0000000000002
22
8080
32
7150
13
1608.0000000000002
23
8000
33
7150
0
3DFACE
8
TEAK
10
1682.0000000000002
20
8000
30
4050
11
1722.0000000000002
21
8000
31
4050
12
1722.0000000000002
22
8080
32
4050
13
1682.0000000000002
23
8080
33
4050
0
3DFACE
8
TEAK
10
1682.0000000000002
20
8000
30
7150
11
1722.0000000000002
21
8000
31
7150
12
1722.0000000000002
22
8080
32
7150
13
1682.0000000000002
23
8080
33
7150
0
3DFACE
8
TEAK
10
1682.0000000000002
20
8000
30
4050
11
1722.0000000000002
21
8000
31
4050
12
1722.0000000000002
22
8000
32
7150
13
1682.0000000000002
23
8000
33
7150
0
3DFACE
8
TEAK
10
1682.0000000000002
20
8080
30
4050
11
1722.0000000000002
21
8080
31
4050
12
1722.0000000000002
22
8080
32
7150
13
1682.0000000000002
23
8080
33
7150
0
3DFACE
8
TEAK
10
1682.0000000000002
20
8000
30
4050
11
1682.0000000000002
21
8080
31
4050
12
1682.0000000000002
22
8080
32
7150
13
1682.0000000000002
23
8000
33
7150
0
3DFACE
8
TEAK
10
1722.0000000000002
20
8000
30
4050
11
1722.0000000000002
21
8080
31
4050
12
1722.0000000000002
22
8080
32
7150
13
1722.0000000000002
23
8000
33
7150
0
3DFACE
8
TEAK
10
1796.0000000000002
20
8000
30
4050
11
1836.0000000000002
21
8000
31
4050
12
1836.0000000000002
22
8080
32
4050
13
1796.0000000000002
23
8080
33
4050
0
3DFACE
8
TEAK
10
1796.0000000000002
20
8000
30
7150
11
1836.0000000000002
21
8000
31
7150
12
1836.0000000000002
22
8080
32
7150
13
1796.0000000000002
23
8080
33
7150
0
3DFACE
8
TEAK
10
1796.0000000000002
20
8000
30
4050
11
1836.0000000000002
21
8000
31
4050
12
1836.0000000000002
22
8000
32
7150
13
1796.0000000000002
23
8000
33
7150
0
3DFACE
8
TEAK
10
1796.0000000000002
20
8080
30
4050
11
1836.0000000000002
21
8080
31
4050
12
1836.0000000000002
22
8080
32
7150
13
1796.0000000000002
23
8080
33
7150
0
3DFACE
8
TEAK
10
1796.0000000000002
20
8000
30
4050
11
1796.0000000000002
21
8080
31
4050
12
1796.0000000000002
22
8080
32
7150
13
1796.0000000000002
23
8000
33
7150
0
3DFACE
8
TEAK
10
1836.0000000000002
20
8000
30
4050
11
1836.0000000000002
21
8080
31
4050
12
1836.0000000000002
22
8080
32
7150
13
1836.0000000000002
23
8000
33
7150
0
3DFACE
8
TEAK
10
1910.0000000000002
20
8000
30
4050
11
1950.0000000000002
21
8000
31
4050
12
1950.0000000000002
22
8080
32
4050
13
1910.0000000000002
23
8080
33
4050
0
3DFACE
8
TEAK
10
1910.0000000000002
20
8000
30
7150
11
1950.0000000000002
21
8000
31
7150
12
1950.0000000000002
22
8080
32
7150
13
1910.0000000000002
23
8080
33
7150
0
3DFACE
8
TEAK
10
1910.0000000000002
20
8000
30
4050
11
1950.0000000000002
21
8000
31
4050
12
1950.0000000000002
22
8000
32
7150
13
1910.0000000000002
23
8000
33
7150
0
3DFACE
8
TEAK
10
1910.0000000000002
20
8080
30
4050
11
1950.0000000000002
21
8080
31
4050
12
1950.0000000000002
22
8080
32
7150
13
1910.0000000000002
23
8080
33
7150
0
3DFACE
8
TEAK
10
1910.0000000000002
20
8000
30
4050
11
1910.0000000000002
21
8080
31
4050
12
1910.0000000000002
22
8080
32
7150
13
1910.0000000000002
23
8000
33
7150
0
3DFACE
8
TEAK
10
1950.0000000000002
20
8000
30
4050
11
1950.0000000000002
21
8080
31
4050
12
1950.0000000000002
22
8080
32
7150
13
1950.0000000000002
23
8000
33
7150
0
3DFACE
8
TEAK
10
2024.0000000000002
20
8000
30
4050
11
2064
21
8000
31
4050
12
2064
22
8080
32
4050
13
2024.0000000000002
23
8080
33
4050
0
3DFACE
8
TEAK
10
2024.0000000000002
20
8000
30
7150
11
2064
21
8000
31
7150
12
2064
22
8080
32
7150
13
2024.0000000000002
23
8080
33
7150
0
3DFACE
8
TEAK
10
2024.0000000000002
20
8000
30
4050
11
2064
21
8000
31
4050
12
2064
22
8000
32
7150
13
2024.0000000000002
23
8000
33
7150
0
3DFACE
8
TEAK
10
2024.0000000000002
20
8080
30
4050
11
2064
21
8080
31
4050
12
2064
22
8080
32
7150
13
2024.0000000000002
23
8080
33
7150
0
3DFACE
8
TEAK
10
2024.0000000000002
20
8000
30
4050
11
2024.0000000000002
21
8080
31
4050
12
2024.0000000000002
22
8080
32
7150
13
2024.0000000000002
23
8000
33
7150
0
3DFACE
8
TEAK
10
2064
20
8000
30
4050
11
2064
21
8080
31
4050
12
2064
22
8080
32
7150
13
2064
23
8000
33
7150
0
3DFACE
8
TEAK
10
2138
20
8000
30
4050
11
2178
21
8000
31
4050
12
2178
22
8080
32
4050
13
2138
23
8080
33
4050
0
3DFACE
8
TEAK
10
2138
20
8000
30
7150
11
2178
21
8000
31
7150
12
2178
22
8080
32
7150
13
2138
23
8080
33
7150
0
3DFACE
8
TEAK
10
2138
20
8000
30
4050
11
2178
21
8000
31
4050
12
2178
22
8000
32
7150
13
2138
23
8000
33
7150
0
3DFACE
8
TEAK
10
2138
20
8080
30
4050
11
2178
21
8080
31
4050
12
2178
22
8080
32
7150
13
2138
23
8080
33
7150
0
3DFACE
8
TEAK
10
2138
20
8000
30
4050
11
2138
21
8080
31
4050
12
2138
22
8080
32
7150
13
2138
23
8000
33
7150
0
3DFACE
8
TEAK
10
2178
20
8000
30
4050
11
2178
21
8080
31
4050
12
2178
22
8080
32
7150
13
2178
23
8000
33
7150
0
3DFACE
8
TEAK
10
2252
20
8000
30
4050
11
2292
21
8000
31
4050
12
2292
22
8080
32
4050
13
2252
23
8080
33
4050
0
3DFACE
8
TEAK
10
2252
20
8000
30
7150
11
2292
21
8000
31
7150
12
2292
22
8080
32
7150
13
2252
23
8080
33
7150
0
3DFACE
8
TEAK
10
2252
20
8000
30
4050
11
2292
21
8000
31
4050
12
2292
22
8000
32
7150
13
2252
23
8000
33
7150
0
3DFACE
8
TEAK
10
2252
20
8080
30
4050
11
2292
21
8080
31
4050
12
2292
22
8080
32
7150
13
2252
23
8080
33
7150
0
3DFACE
8
TEAK
10
2252
20
8000
30
4050
11
2252
21
8080
31
4050
12
2252
22
8080
32
7150
13
2252
23
8000
33
7150
0
3DFACE
8
TEAK
10
2292
20
8000
30
4050
11
2292
21
8080
31
4050
12
2292
22
8080
32
7150
13
2292
23
8000
33
7150
0
3DFACE
8
TEAK
10
2366
20
8000
30
4050
11
2406
21
8000
31
4050
12
2406
22
8080
32
4050
13
2366
23
8080
33
4050
0
3DFACE
8
TEAK
10
2366
20
8000
30
7150
11
2406
21
8000
31
7150
12
2406
22
8080
32
7150
13
2366
23
8080
33
7150
0
3DFACE
8
TEAK
10
2366
20
8000
30
4050
11
2406
21
8000
31
4050
12
2406
22
8000
32
7150
13
2366
23
8000
33
7150
0
3DFACE
8
TEAK
10
2366
20
8080
30
4050
11
2406
21
8080
31
4050
12
2406
22
8080
32
7150
13
2366
23
8080
33
7150
0
3DFACE
8
TEAK
10
2366
20
8000
30
4050
11
2366
21
8080
31
4050
12
2366
22
8080
32
7150
13
2366
23
8000
33
7150
0
3DFACE
8
TEAK
10
2406
20
8000
30
4050
11
2406
21
8080
31
4050
12
2406
22
8080
32
7150
13
2406
23
8000
33
7150
0
3DFACE
8
TEAK
10
2480
20
8000
30
4050
11
2520
21
8000
31
4050
12
2520
22
8080
32
4050
13
2480
23
8080
33
4050
0
3DFACE
8
TEAK
10
2480
20
8000
30
7150
11
2520
21
8000
31
7150
12
2520
22
8080
32
7150
13
2480
23
8080
33
7150
0
3DFACE
8
TEAK
10
2480
20
8000
30
4050
11
2520
21
8000
31
4050
12
2520
22
8000
32
7150
13
2480
23
8000
33
7150
0
3DFACE
8
TEAK
10
2480
20
8080
30
4050
11
2520
21
8080
31
4050
12
2520
22
8080
32
7150
13
2480
23
8080
33
7150
0
3DFACE
8
TEAK
10
2480
20
8000
30
4050
11
2480
21
8080
31
4050
12
2480
22
8080
32
7150
13
2480
23
8000
33
7150
0
3DFACE
8
TEAK
10
2520
20
8000
30
4050
11
2520
21
8080
31
4050
12
2520
22
8080
32
7150
13
2520
23
8000
33
7150
0
3DFACE
8
TEAK
10
2594
20
8000
30
4050
11
2634
21
8000
31
4050
12
2634
22
8080
32
4050
13
2594
23
8080
33
4050
0
3DFACE
8
TEAK
10
2594
20
8000
30
7150
11
2634
21
8000
31
7150
12
2634
22
8080
32
7150
13
2594
23
8080
33
7150
0
3DFACE
8
TEAK
10
2594
20
8000
30
4050
11
2634
21
8000
31
4050
12
2634
22
8000
32
7150
13
2594
23
8000
33
7150
0
3DFACE
8
TEAK
10
2594
20
8080
30
4050
11
2634
21
8080
31
4050
12
2634
22
8080
32
7150
13
2594
23
8080
33
7150
0
3DFACE
8
TEAK
10
2594
20
8000
30
4050
11
2594
21
8080
31
4050
12
2594
22
8080
32
7150
13
2594
23
8000
33
7150
0
3DFACE
8
TEAK
10
2634
20
8000
30
4050
11
2634
21
8080
31
4050
12
2634
22
8080
32
7150
13
2634
23
8000
33
7150
0
3DFACE
8
TEAK
10
2708
20
8000
30
4050
11
2748
21
8000
31
4050
12
2748
22
8080
32
4050
13
2708
23
8080
33
4050
0
3DFACE
8
TEAK
10
2708
20
8000
30
7150
11
2748
21
8000
31
7150
12
2748
22
8080
32
7150
13
2708
23
8080
33
7150
0
3DFACE
8
TEAK
10
2708
20
8000
30
4050
11
2748
21
8000
31
4050
12
2748
22
8000
32
7150
13
2708
23
8000
33
7150
0
3DFACE
8
TEAK
10
2708
20
8080
30
4050
11
2748
21
8080
31
4050
12
2748
22
8080
32
7150
13
2708
23
8080
33
7150
0
3DFACE
8
TEAK
10
2708
20
8000
30
4050
11
2708
21
8080
31
4050
12
2708
22
8080
32
7150
13
2708
23
8000
33
7150
0
3DFACE
8
TEAK
10
2748
20
8000
30
4050
11
2748
21
8080
31
4050
12
2748
22
8080
32
7150
13
2748
23
8000
33
7150
0
3DFACE
8
TEAK
10
2822
20
8000
30
4050
11
2862
21
8000
31
4050
12
2862
22
8080
32
4050
13
2822
23
8080
33
4050
0
3DFACE
8
TEAK
10
2822
20
8000
30
7150
11
2862
21
8000
31
7150
12
2862
22
8080
32
7150
13
2822
23
8080
33
7150
0
3DFACE
8
TEAK
10
2822
20
8000
30
4050
11
2862
21
8000
31
4050
12
2862
22
8000
32
7150
13
2822
23
8000
33
7150
0
3DFACE
8
TEAK
10
2822
20
8080
30
4050
11
2862
21
8080
31
4050
12
2862
22
8080
32
7150
13
2822
23
8080
33
7150
0
3DFACE
8
TEAK
10
2822
20
8000
30
4050
11
2822
21
8080
31
4050
12
2822
22
8080
32
7150
13
2822
23
8000
33
7150
0
3DFACE
8
TEAK
10
2862
20
8000
30
4050
11
2862
21
8080
31
4050
12
2862
22
8080
32
7150
13
2862
23
8000
33
7150
0
3DFACE
8
TEAK
10
2936
20
8000
30
4050
11
2976
21
8000
31
4050
12
2976
22
8080
32
4050
13
2936
23
8080
33
4050
0
3DFACE
8
TEAK
10
2936
20
8000
30
7150
11
2976
21
8000
31
7150
12
2976
22
8080
32
7150
13
2936
23
8080
33
7150
0
3DFACE
8
TEAK
10
2936
20
8000
30
4050
11
2976
21
8000
31
4050
12
2976
22
8000
32
7150
13
2936
23
8000
33
7150
0
3DFACE
8
TEAK
10
2936
20
8080
30
4050
11
2976
21
8080
31
4050
12
2976
22
8080
32
7150
13
2936
23
8080
33
7150
0
3DFACE
8
TEAK
10
2936
20
8000
30
4050
11
2936
21
8080
31
4050
12
2936
22
8080
32
7150
13
2936
23
8000
33
7150
0
3DFACE
8
TEAK
10
2976
20
8000
30
4050
11
2976
21
8080
31
4050
12
2976
22
8080
32
7150
13
2976
23
8000
33
7150
0
3DFACE
8
TEAK
10
3050
20
8000
30
4050
11
3090
21
8000
31
4050
12
3090
22
8080
32
4050
13
3050
23
8080
33
4050
0
3DFACE
8
TEAK
10
3050
20
8000
30
7150
11
3090
21
8000
31
7150
12
3090
22
8080
32
7150
13
3050
23
8080
33
7150
0
3DFACE
8
TEAK
10
3050
20
8000
30
4050
11
3090
21
8000
31
4050
12
3090
22
8000
32
7150
13
3050
23
8000
33
7150
0
3DFACE
8
TEAK
10
3050
20
8080
30
4050
11
3090
21
8080
31
4050
12
3090
22
8080
32
7150
13
3050
23
8080
33
7150
0
3DFACE
8
TEAK
10
3050
20
8000
30
4050
11
3050
21
8080
31
4050
12
3050
22
8080
32
7150
13
3050
23
8000
33
7150
0
3DFACE
8
TEAK
10
3090
20
8000
30
4050
11
3090
21
8080
31
4050
12
3090
22
8080
32
7150
13
3090
23
8000
33
7150
0
3DFACE
8
TEAK
10
3164
20
8000
30
4050
11
3204
21
8000
31
4050
12
3204
22
8080
32
4050
13
3164
23
8080
33
4050
0
3DFACE
8
TEAK
10
3164
20
8000
30
7150
11
3204
21
8000
31
7150
12
3204
22
8080
32
7150
13
3164
23
8080
33
7150
0
3DFACE
8
TEAK
10
3164
20
8000
30
4050
11
3204
21
8000
31
4050
12
3204
22
8000
32
7150
13
3164
23
8000
33
7150
0
3DFACE
8
TEAK
10
3164
20
8080
30
4050
11
3204
21
8080
31
4050
12
3204
22
8080
32
7150
13
3164
23
8080
33
7150
0
3DFACE
8
TEAK
10
3164
20
8000
30
4050
11
3164
21
8080
31
4050
12
3164
22
8080
32
7150
13
3164
23
8000
33
7150
0
3DFACE
8
TEAK
10
3204
20
8000
30
4050
11
3204
21
8080
31
4050
12
3204
22
8080
32
7150
13
3204
23
8000
33
7150
0
3DFACE
8
TEAK
10
3278
20
8000
30
4050
11
3318
21
8000
31
4050
12
3318
22
8080
32
4050
13
3278
23
8080
33
4050
0
3DFACE
8
TEAK
10
3278
20
8000
30
7150
11
3318
21
8000
31
7150
12
3318
22
8080
32
7150
13
3278
23
8080
33
7150
0
3DFACE
8
TEAK
10
3278
20
8000
30
4050
11
3318
21
8000
31
4050
12
3318
22
8000
32
7150
13
3278
23
8000
33
7150
0
3DFACE
8
TEAK
10
3278
20
8080
30
4050
11
3318
21
8080
31
4050
12
3318
22
8080
32
7150
13
3278
23
8080
33
7150
0
3DFACE
8
TEAK
10
3278
20
8000
30
4050
11
3278
21
8080
31
4050
12
3278
22
8080
32
7150
13
3278
23
8000
33
7150
0
3DFACE
8
TEAK
10
3318
20
8000
30
4050
11
3318
21
8080
31
4050
12
3318
22
8080
32
7150
13
3318
23
8000
33
7150
0
3DFACE
8
TEAK
10
3392
20
8000
30
4050
11
3432
21
8000
31
4050
12
3432
22
8080
32
4050
13
3392
23
8080
33
4050
0
3DFACE
8
TEAK
10
3392
20
8000
30
7150
11
3432
21
8000
31
7150
12
3432
22
8080
32
7150
13
3392
23
8080
33
7150
0
3DFACE
8
TEAK
10
3392
20
8000
30
4050
11
3432
21
8000
31
4050
12
3432
22
8000
32
7150
13
3392
23
8000
33
7150
0
3DFACE
8
TEAK
10
3392
20
8080
30
4050
11
3432
21
8080
31
4050
12
3432
22
8080
32
7150
13
3392
23
8080
33
7150
0
3DFACE
8
TEAK
10
3392
20
8000
30
4050
11
3392
21
8080
31
4050
12
3392
22
8080
32
7150
13
3392
23
8000
33
7150
0
3DFACE
8
TEAK
10
3432
20
8000
30
4050
11
3432
21
8080
31
4050
12
3432
22
8080
32
7150
13
3432
23
8000
33
7150
0
3DFACE
8
TEAK
10
3506
20
8000
30
4050
11
3546
21
8000
31
4050
12
3546
22
8080
32
4050
13
3506
23
8080
33
4050
0
3DFACE
8
TEAK
10
3506
20
8000
30
7150
11
3546
21
8000
31
7150
12
3546
22
8080
32
7150
13
3506
23
8080
33
7150
0
3DFACE
8
TEAK
10
3506
20
8000
30
4050
11
3546
21
8000
31
4050
12
3546
22
8000
32
7150
13
3506
23
8000
33
7150
0
3DFACE
8
TEAK
10
3506
20
8080
30
4050
11
3546
21
8080
31
4050
12
3546
22
8080
32
7150
13
3506
23
8080
33
7150
0
3DFACE
8
TEAK
10
3506
20
8000
30
4050
11
3506
21
8080
31
4050
12
3506
22
8080
32
7150
13
3506
23
8000
33
7150
0
3DFACE
8
TEAK
10
3546
20
8000
30
4050
11
3546
21
8080
31
4050
12
3546
22
8080
32
7150
13
3546
23
8000
33
7150
0
3DFACE
8
TEAK
10
3620
20
8000
30
4050
11
3660
21
8000
31
4050
12
3660
22
8080
32
4050
13
3620
23
8080
33
4050
0
3DFACE
8
TEAK
10
3620
20
8000
30
7150
11
3660
21
8000
31
7150
12
3660
22
8080
32
7150
13
3620
23
8080
33
7150
0
3DFACE
8
TEAK
10
3620
20
8000
30
4050
11
3660
21
8000
31
4050
12
3660
22
8000
32
7150
13
3620
23
8000
33
7150
0
3DFACE
8
TEAK
10
3620
20
8080
30
4050
11
3660
21
8080
31
4050
12
3660
22
8080
32
7150
13
3620
23
8080
33
7150
0
3DFACE
8
TEAK
10
3620
20
8000
30
4050
11
3620
21
8080
31
4050
12
3620
22
8080
32
7150
13
3620
23
8000
33
7150
0
3DFACE
8
TEAK
10
3660
20
8000
30
4050
11
3660
21
8080
31
4050
12
3660
22
8080
32
7150
13
3660
23
8000
33
7150
0
3DFACE
8
TEAK
10
3734
20
8000
30
4050
11
3774
21
8000
31
4050
12
3774
22
8080
32
4050
13
3734
23
8080
33
4050
0
3DFACE
8
TEAK
10
3734
20
8000
30
7150
11
3774
21
8000
31
7150
12
3774
22
8080
32
7150
13
3734
23
8080
33
7150
0
3DFACE
8
TEAK
10
3734
20
8000
30
4050
11
3774
21
8000
31
4050
12
3774
22
8000
32
7150
13
3734
23
8000
33
7150
0
3DFACE
8
TEAK
10
3734
20
8080
30
4050
11
3774
21
8080
31
4050
12
3774
22
8080
32
7150
13
3734
23
8080
33
7150
0
3DFACE
8
TEAK
10
3734
20
8000
30
4050
11
3734
21
8080
31
4050
12
3734
22
8080
32
7150
13
3734
23
8000
33
7150
0
3DFACE
8
TEAK
10
3774
20
8000
30
4050
11
3774
21
8080
31
4050
12
3774
22
8080
32
7150
13
3774
23
8000
33
7150
0
3DFACE
8
TEAK
10
3848
20
8000
30
4050
11
3888
21
8000
31
4050
12
3888
22
8080
32
4050
13
3848
23
8080
33
4050
0
3DFACE
8
TEAK
10
3848
20
8000
30
7150
11
3888
21
8000
31
7150
12
3888
22
8080
32
7150
13
3848
23
8080
33
7150
0
3DFACE
8
TEAK
10
3848
20
8000
30
4050
11
3888
21
8000
31
4050
12
3888
22
8000
32
7150
13
3848
23
8000
33
7150
0
3DFACE
8
TEAK
10
3848
20
8080
30
4050
11
3888
21
8080
31
4050
12
3888
22
8080
32
7150
13
3848
23
8080
33
7150
0
3DFACE
8
TEAK
10
3848
20
8000
30
4050
11
3848
21
8080
31
4050
12
3848
22
8080
32
7150
13
3848
23
8000
33
7150
0
3DFACE
8
TEAK
10
3888
20
8000
30
4050
11
3888
21
8080
31
4050
12
3888
22
8080
32
7150
13
3888
23
8000
33
7150
0
3DFACE
8
TEAK
10
3962
20
8000
30
4050
11
4002
21
8000
31
4050
12
4002
22
8080
32
4050
13
3962
23
8080
33
4050
0
3DFACE
8
TEAK
10
3962
20
8000
30
7150
11
4002
21
8000
31
7150
12
4002
22
8080
32
7150
13
3962
23
8080
33
7150
0
3DFACE
8
TEAK
10
3962
20
8000
30
4050
11
4002
21
8000
31
4050
12
4002
22
8000
32
7150
13
3962
23
8000
33
7150
0
3DFACE
8
TEAK
10
3962
20
8080
30
4050
11
4002
21
8080
31
4050
12
4002
22
8080
32
7150
13
3962
23
8080
33
7150
0
3DFACE
8
TEAK
10
3962
20
8000
30
4050
11
3962
21
8080
31
4050
12
3962
22
8080
32
7150
13
3962
23
8000
33
7150
0
3DFACE
8
TEAK
10
4002
20
8000
30
4050
11
4002
21
8080
31
4050
12
4002
22
8080
32
7150
13
4002
23
8000
33
7150
0
3DFACE
8
TEAK
10
4076
20
8000
30
4050
11
4116
21
8000
31
4050
12
4116
22
8080
32
4050
13
4076
23
8080
33
4050
0
3DFACE
8
TEAK
10
4076
20
8000
30
7150
11
4116
21
8000
31
7150
12
4116
22
8080
32
7150
13
4076
23
8080
33
7150
0
3DFACE
8
TEAK
10
4076
20
8000
30
4050
11
4116
21
8000
31
4050
12
4116
22
8000
32
7150
13
4076
23
8000
33
7150
0
3DFACE
8
TEAK
10
4076
20
8080
30
4050
11
4116
21
8080
31
4050
12
4116
22
8080
32
7150
13
4076
23
8080
33
7150
0
3DFACE
8
TEAK
10
4076
20
8000
30
4050
11
4076
21
8080
31
4050
12
4076
22
8080
32
7150
13
4076
23
8000
33
7150
0
3DFACE
8
TEAK
10
4116
20
8000
30
4050
11
4116
21
8080
31
4050
12
4116
22
8080
32
7150
13
4116
23
8000
33
7150
0
3DFACE
8
TEAK
10
4190
20
8000
30
4050
11
4230
21
8000
31
4050
12
4230
22
8080
32
4050
13
4190
23
8080
33
4050
0
3DFACE
8
TEAK
10
4190
20
8000
30
7150
11
4230
21
8000
31
7150
12
4230
22
8080
32
7150
13
4190
23
8080
33
7150
0
3DFACE
8
TEAK
10
4190
20
8000
30
4050
11
4230
21
8000
31
4050
12
4230
22
8000
32
7150
13
4190
23
8000
33
7150
0
3DFACE
8
TEAK
10
4190
20
8080
30
4050
11
4230
21
8080
31
4050
12
4230
22
8080
32
7150
13
4190
23
8080
33
7150
0
3DFACE
8
TEAK
10
4190
20
8000
30
4050
11
4190
21
8080
31
4050
12
4190
22
8080
32
7150
13
4190
23
8000
33
7150
0
3DFACE
8
TEAK
10
4230
20
8000
30
4050
11
4230
21
8080
31
4050
12
4230
22
8080
32
7150
13
4230
23
8000
33
7150
0
3DFACE
8
TEAK
10
4304
20
8000
30
4050
11
4344
21
8000
31
4050
12
4344
22
8080
32
4050
13
4304
23
8080
33
4050
0
3DFACE
8
TEAK
10
4304
20
8000
30
7150
11
4344
21
8000
31
7150
12
4344
22
8080
32
7150
13
4304
23
8080
33
7150
0
3DFACE
8
TEAK
10
4304
20
8000
30
4050
11
4344
21
8000
31
4050
12
4344
22
8000
32
7150
13
4304
23
8000
33
7150
0
3DFACE
8
TEAK
10
4304
20
8080
30
4050
11
4344
21
8080
31
4050
12
4344
22
8080
32
7150
13
4304
23
8080
33
7150
0
3DFACE
8
TEAK
10
4304
20
8000
30
4050
11
4304
21
8080
31
4050
12
4304
22
8080
32
7150
13
4304
23
8000
33
7150
0
3DFACE
8
TEAK
10
4344
20
8000
30
4050
11
4344
21
8080
31
4050
12
4344
22
8080
32
7150
13
4344
23
8000
33
7150
0
3DFACE
8
TEAK
10
4418
20
8000
30
4050
11
4458
21
8000
31
4050
12
4458
22
8080
32
4050
13
4418
23
8080
33
4050
0
3DFACE
8
TEAK
10
4418
20
8000
30
7150
11
4458
21
8000
31
7150
12
4458
22
8080
32
7150
13
4418
23
8080
33
7150
0
3DFACE
8
TEAK
10
4418
20
8000
30
4050
11
4458
21
8000
31
4050
12
4458
22
8000
32
7150
13
4418
23
8000
33
7150
0
3DFACE
8
TEAK
10
4418
20
8080
30
4050
11
4458
21
8080
31
4050
12
4458
22
8080
32
7150
13
4418
23
8080
33
7150
0
3DFACE
8
TEAK
10
4418
20
8000
30
4050
11
4418
21
8080
31
4050
12
4418
22
8080
32
7150
13
4418
23
8000
33
7150
0
3DFACE
8
TEAK
10
4458
20
8000
30
4050
11
4458
21
8080
31
4050
12
4458
22
8080
32
7150
13
4458
23
8000
33
7150
0
3DFACE
8
TEAK
10
4532
20
8000
30
4050
11
4572
21
8000
31
4050
12
4572
22
8080
32
4050
13
4532
23
8080
33
4050
0
3DFACE
8
TEAK
10
4532
20
8000
30
7150
11
4572
21
8000
31
7150
12
4572
22
8080
32
7150
13
4532
23
8080
33
7150
0
3DFACE
8
TEAK
10
4532
20
8000
30
4050
11
4572
21
8000
31
4050
12
4572
22
8000
32
7150
13
4532
23
8000
33
7150
0
3DFACE
8
TEAK
10
4532
20
8080
30
4050
11
4572
21
8080
31
4050
12
4572
22
8080
32
7150
13
4532
23
8080
33
7150
0
3DFACE
8
TEAK
10
4532
20
8000
30
4050
11
4532
21
8080
31
4050
12
4532
22
8080
32
7150
13
4532
23
8000
33
7150
0
3DFACE
8
TEAK
10
4572
20
8000
30
4050
11
4572
21
8080
31
4050
12
4572
22
8080
32
7150
13
4572
23
8000
33
7150
0
3DFACE
8
TEAK
10
4646
20
8000
30
4050
11
4686
21
8000
31
4050
12
4686
22
8080
32
4050
13
4646
23
8080
33
4050
0
3DFACE
8
TEAK
10
4646
20
8000
30
7150
11
4686
21
8000
31
7150
12
4686
22
8080
32
7150
13
4646
23
8080
33
7150
0
3DFACE
8
TEAK
10
4646
20
8000
30
4050
11
4686
21
8000
31
4050
12
4686
22
8000
32
7150
13
4646
23
8000
33
7150
0
3DFACE
8
TEAK
10
4646
20
8080
30
4050
11
4686
21
8080
31
4050
12
4686
22
8080
32
7150
13
4646
23
8080
33
7150
0
3DFACE
8
TEAK
10
4646
20
8000
30
4050
11
4646
21
8080
31
4050
12
4646
22
8080
32
7150
13
4646
23
8000
33
7150
0
3DFACE
8
TEAK
10
4686
20
8000
30
4050
11
4686
21
8080
31
4050
12
4686
22
8080
32
7150
13
4686
23
8000
33
7150
0
3DFACE
8
TEAK
10
4760
20
8000
30
4050
11
4800
21
8000
31
4050
12
4800
22
8080
32
4050
13
4760
23
8080
33
4050
0
3DFACE
8
TEAK
10
4760
20
8000
30
7150
11
4800
21
8000
31
7150
12
4800
22
8080
32
7150
13
4760
23
8080
33
7150
0
3DFACE
8
TEAK
10
4760
20
8000
30
4050
11
4800
21
8000
31
4050
12
4800
22
8000
32
7150
13
4760
23
8000
33
7150
0
3DFACE
8
TEAK
10
4760
20
8080
30
4050
11
4800
21
8080
31
4050
12
4800
22
8080
32
7150
13
4760
23
8080
33
7150
0
3DFACE
8
TEAK
10
4760
20
8000
30
4050
11
4760
21
8080
31
4050
12
4760
22
8080
32
7150
13
4760
23
8000
33
7150
0
3DFACE
8
TEAK
10
4800
20
8000
30
4050
11
4800
21
8080
31
4050
12
4800
22
8080
32
7150
13
4800
23
8000
33
7150
0
3DFACE
8
GLASS
10
200.00000000000017
20
9100
30
4050
11
4800
21
9100
31
4050
12
4800
22
9120
32
4050
13
200.00000000000017
23
9120
33
4050
0
3DFACE
8
GLASS
10
200.00000000000017
20
9100
30
7150
11
4800
21
9100
31
7150
12
4800
22
9120
32
7150
13
200.00000000000017
23
9120
33
7150
0
3DFACE
8
GLASS
10
200.00000000000017
20
9100
30
4050
11
4800
21
9100
31
4050
12
4800
22
9100
32
7150
13
200.00000000000017
23
9100
33
7150
0
3DFACE
8
GLASS
10
200.00000000000017
20
9120
30
4050
11
4800
21
9120
31
4050
12
4800
22
9120
32
7150
13
200.00000000000017
23
9120
33
7150
0
3DFACE
8
GLASS
10
200.00000000000017
20
9100
30
4050
11
200.00000000000017
21
9120
31
4050
12
200.00000000000017
22
9120
32
7150
13
200.00000000000017
23
9100
33
7150
0
3DFACE
8
GLASS
10
4800
20
9100
30
4050
11
4800
21
9120
31
4050
12
4800
22
9120
32
7150
13
4800
23
9100
33
7150
0
3DFACE
8
WALL
10
200.00000000000017
20
25800
30
450
11
4800
21
25800
31
450
12
4800
22
26000
32
450
13
200.00000000000017
23
26000
33
450
0
3DFACE
8
WALL
10
200.00000000000017
20
25800
30
1350
11
4800
21
25800
31
1350
12
4800
22
26000
32
1350
13
200.00000000000017
23
26000
33
1350
0
3DFACE
8
WALL
10
200.00000000000017
20
25800
30
450
11
4800
21
25800
31
450
12
4800
22
25800
32
1350
13
200.00000000000017
23
25800
33
1350
0
3DFACE
8
WALL
10
200.00000000000017
20
26000
30
450
11
4800
21
26000
31
450
12
4800
22
26000
32
1350
13
200.00000000000017
23
26000
33
1350
0
3DFACE
8
WALL
10
200.00000000000017
20
25800
30
450
11
200.00000000000017
21
26000
31
450
12
200.00000000000017
22
26000
32
1350
13
200.00000000000017
23
25800
33
1350
0
3DFACE
8
WALL
10
4800
20
25800
30
450
11
4800
21
26000
31
450
12
4800
22
26000
32
1350
13
4800
23
25800
33
1350
0
3DFACE
8
WALL
10
200.00000000000017
20
25800
30
3150
11
4800
21
25800
31
3150
12
4800
22
26000
32
3150
13
200.00000000000017
23
26000
33
3150
0
3DFACE
8
WALL
10
200.00000000000017
20
25800
30
4650
11
4800
21
25800
31
4650
12
4800
22
26000
32
4650
13
200.00000000000017
23
26000
33
4650
0
3DFACE
8
WALL
10
200.00000000000017
20
25800
30
3150
11
4800
21
25800
31
3150
12
4800
22
25800
32
4650
13
200.00000000000017
23
25800
33
4650
0
3DFACE
8
WALL
10
200.00000000000017
20
26000
30
3150
11
4800
21
26000
31
3150
12
4800
22
26000
32
4650
13
200.00000000000017
23
26000
33
4650
0
3DFACE
8
WALL
10
200.00000000000017
20
25800
30
3150
11
200.00000000000017
21
26000
31
3150
12
200.00000000000017
22
26000
32
4650
13
200.00000000000017
23
25800
33
4650
0
3DFACE
8
WALL
10
4800
20
25800
30
3150
11
4800
21
26000
31
3150
12
4800
22
26000
32
4650
13
4800
23
25800
33
4650
0
3DFACE
8
WALL
10
200.00000000000017
20
25800
30
6450
11
4800
21
25800
31
6450
12
4800
22
26000
32
6450
13
200.00000000000017
23
26000
33
6450
0
3DFACE
8
WALL
10
200.00000000000017
20
25800
30
7150
11
4800
21
25800
31
7150
12
4800
22
26000
32
7150
13
200.00000000000017
23
26000
33
7150
0
3DFACE
8
WALL
10
200.00000000000017
20
25800
30
6450
11
4800
21
25800
31
6450
12
4800
22
25800
32
7150
13
200.00000000000017
23
25800
33
7150
0
3DFACE
8
WALL
10
200.00000000000017
20
26000
30
6450
11
4800
21
26000
31
6450
12
4800
22
26000
32
7150
13
200.00000000000017
23
26000
33
7150
0
3DFACE
8
WALL
10
200.00000000000017
20
25800
30
6450
11
200.00000000000017
21
26000
31
6450
12
200.00000000000017
22
26000
32
7150
13
200.00000000000017
23
25800
33
7150
0
3DFACE
8
WALL
10
4800
20
25800
30
6450
11
4800
21
26000
31
6450
12
4800
22
26000
32
7150
13
4800
23
25800
33
7150
0
3DFACE
8
WALL
10
200.00000000000017
20
25800
30
1350
11
900
21
25800
31
1350
12
900
22
26000
32
1350
13
200.00000000000017
23
26000
33
1350
0
3DFACE
8
WALL
10
200.00000000000017
20
25800
30
3150
11
900
21
25800
31
3150
12
900
22
26000
32
3150
13
200.00000000000017
23
26000
33
3150
0
3DFACE
8
WALL
10
200.00000000000017
20
25800
30
1350
11
900
21
25800
31
1350
12
900
22
25800
32
3150
13
200.00000000000017
23
25800
33
3150
0
3DFACE
8
WALL
10
200.00000000000017
20
26000
30
1350
11
900
21
26000
31
1350
12
900
22
26000
32
3150
13
200.00000000000017
23
26000
33
3150
0
3DFACE
8
WALL
10
200.00000000000017
20
25800
30
1350
11
200.00000000000017
21
26000
31
1350
12
200.00000000000017
22
26000
32
3150
13
200.00000000000017
23
25800
33
3150
0
3DFACE
8
WALL
10
900
20
25800
30
1350
11
900
21
26000
31
1350
12
900
22
26000
32
3150
13
900
23
25800
33
3150
0
3DFACE
8
WALL
10
4100
20
25800
30
1350
11
4800
21
25800
31
1350
12
4800
22
26000
32
1350
13
4100
23
26000
33
1350
0
3DFACE
8
WALL
10
4100
20
25800
30
3150
11
4800
21
25800
31
3150
12
4800
22
26000
32
3150
13
4100
23
26000
33
3150
0
3DFACE
8
WALL
10
4100
20
25800
30
1350
11
4800
21
25800
31
1350
12
4800
22
25800
32
3150
13
4100
23
25800
33
3150
0
3DFACE
8
WALL
10
4100
20
26000
30
1350
11
4800
21
26000
31
1350
12
4800
22
26000
32
3150
13
4100
23
26000
33
3150
0
3DFACE
8
WALL
10
4100
20
25800
30
1350
11
4100
21
26000
31
1350
12
4100
22
26000
32
3150
13
4100
23
25800
33
3150
0
3DFACE
8
WALL
10
4800
20
25800
30
1350
11
4800
21
26000
31
1350
12
4800
22
26000
32
3150
13
4800
23
25800
33
3150
0
3DFACE
8
GLASS
10
900
20
25890
30
1350
11
4100
21
25890
31
1350
12
4100
22
25910
32
1350
13
900
23
25910
33
1350
0
3DFACE
8
GLASS
10
900
20
25890
30
3150
11
4100
21
25890
31
3150
12
4100
22
25910
32
3150
13
900
23
25910
33
3150
0
3DFACE
8
GLASS
10
900
20
25890
30
1350
11
4100
21
25890
31
1350
12
4100
22
25890
32
3150
13
900
23
25890
33
3150
0
3DFACE
8
GLASS
10
900
20
25910
30
1350
11
4100
21
25910
31
1350
12
4100
22
25910
32
3150
13
900
23
25910
33
3150
0
3DFACE
8
GLASS
10
900
20
25890
30
1350
11
900
21
25910
31
1350
12
900
22
25910
32
3150
13
900
23
25890
33
3150
0
3DFACE
8
GLASS
10
4100
20
25890
30
1350
11
4100
21
25910
31
1350
12
4100
22
25910
32
3150
13
4100
23
25890
33
3150
0
3DFACE
8
WALL
10
200.00000000000017
20
25800
30
4650
11
900
21
25800
31
4650
12
900
22
26000
32
4650
13
200.00000000000017
23
26000
33
4650
0
3DFACE
8
WALL
10
200.00000000000017
20
25800
30
6450
11
900
21
25800
31
6450
12
900
22
26000
32
6450
13
200.00000000000017
23
26000
33
6450
0
3DFACE
8
WALL
10
200.00000000000017
20
25800
30
4650
11
900
21
25800
31
4650
12
900
22
25800
32
6450
13
200.00000000000017
23
25800
33
6450
0
3DFACE
8
WALL
10
200.00000000000017
20
26000
30
4650
11
900
21
26000
31
4650
12
900
22
26000
32
6450
13
200.00000000000017
23
26000
33
6450
0
3DFACE
8
WALL
10
200.00000000000017
20
25800
30
4650
11
200.00000000000017
21
26000
31
4650
12
200.00000000000017
22
26000
32
6450
13
200.00000000000017
23
25800
33
6450
0
3DFACE
8
WALL
10
900
20
25800
30
4650
11
900
21
26000
31
4650
12
900
22
26000
32
6450
13
900
23
25800
33
6450
0
3DFACE
8
WALL
10
4100
20
25800
30
4650
11
4800
21
25800
31
4650
12
4800
22
26000
32
4650
13
4100
23
26000
33
4650
0
3DFACE
8
WALL
10
4100
20
25800
30
6450
11
4800
21
25800
31
6450
12
4800
22
26000
32
6450
13
4100
23
26000
33
6450
0
3DFACE
8
WALL
10
4100
20
25800
30
4650
11
4800
21
25800
31
4650
12
4800
22
25800
32
6450
13
4100
23
25800
33
6450
0
3DFACE
8
WALL
10
4100
20
26000
30
4650
11
4800
21
26000
31
4650
12
4800
22
26000
32
6450
13
4100
23
26000
33
6450
0
3DFACE
8
WALL
10
4100
20
25800
30
4650
11
4100
21
26000
31
4650
12
4100
22
26000
32
6450
13
4100
23
25800
33
6450
0
3DFACE
8
WALL
10
4800
20
25800
30
4650
11
4800
21
26000
31
4650
12
4800
22
26000
32
6450
13
4800
23
25800
33
6450
0
3DFACE
8
GLASS
10
900
20
25890
30
4650
11
4100
21
25890
31
4650
12
4100
22
25910
32
4650
13
900
23
25910
33
4650
0
3DFACE
8
GLASS
10
900
20
25890
30
6450
11
4100
21
25890
31
6450
12
4100
22
25910
32
6450
13
900
23
25910
33
6450
0
3DFACE
8
GLASS
10
900
20
25890
30
4650
11
4100
21
25890
31
4650
12
4100
22
25890
32
6450
13
900
23
25890
33
6450
0
3DFACE
8
GLASS
10
900
20
25910
30
4650
11
4100
21
25910
31
4650
12
4100
22
25910
32
6450
13
900
23
25910
33
6450
0
3DFACE
8
GLASS
10
900
20
25890
30
4650
11
900
21
25910
31
4650
12
900
22
25910
32
6450
13
900
23
25890
33
6450
0
3DFACE
8
GLASS
10
4100
20
25890
30
4650
11
4100
21
25910
31
4650
12
4100
22
25910
32
6450
13
4100
23
25890
33
6450
0
3DFACE
8
WALL
10
0
20
12500
30
7350
11
200.00000000000017
21
12500
31
7350
12
200.00000000000017
22
21200
32
7350
13
0
23
21200
33
7350
0
3DFACE
8
WALL
10
0
20
12500
30
10150
11
200.00000000000017
21
12500
31
10150
12
200.00000000000017
22
21200
32
10150
13
0
23
21200
33
10150
0
3DFACE
8
WALL
10
0
20
12500
30
7350
11
200.00000000000017
21
12500
31
7350
12
200.00000000000017
22
12500
32
10150
13
0
23
12500
33
10150
0
3DFACE
8
WALL
10
0
20
21200
30
7350
11
200.00000000000017
21
21200
31
7350
12
200.00000000000017
22
21200
32
10150
13
0
23
21200
33
10150
0
3DFACE
8
WALL
10
0
20
12500
30
7350
11
0
21
21200
31
7350
12
0
22
21200
32
10150
13
0
23
12500
33
10150
0
3DFACE
8
WALL
10
200.00000000000017
20
12500
30
7350
11
200.00000000000017
21
21200
31
7350
12
200.00000000000017
22
21200
32
10150
13
200.00000000000017
23
12500
33
10150
0
3DFACE
8
WALL
10
4800
20
12500
30
7350
11
5000
21
12500
31
7350
12
5000
22
21200
32
7350
13
4800
23
21200
33
7350
0
3DFACE
8
WALL
10
4800
20
12500
30
10150
11
5000
21
12500
31
10150
12
5000
22
21200
32
10150
13
4800
23
21200
33
10150
0
3DFACE
8
WALL
10
4800
20
12500
30
7350
11
5000
21
12500
31
7350
12
5000
22
12500
32
10150
13
4800
23
12500
33
10150
0
3DFACE
8
WALL
10
4800
20
21200
30
7350
11
5000
21
21200
31
7350
12
5000
22
21200
32
10150
13
4800
23
21200
33
10150
0
3DFACE
8
WALL
10
4800
20
12500
30
7350
11
4800
21
21200
31
7350
12
4800
22
21200
32
10150
13
4800
23
12500
33
10150
0
3DFACE
8
WALL
10
5000
20
12500
30
7350
11
5000
21
21200
31
7350
12
5000
22
21200
32
10150
13
5000
23
12500
33
10150
0
3DFACE
8
GLASS
10
200.00000000000017
20
12500
30
7350
11
4800
21
12500
31
7350
12
4800
22
12520
32
7350
13
200.00000000000017
23
12520
33
7350
0
3DFACE
8
GLASS
10
200.00000000000017
20
12500
30
9850
11
4800
21
12500
31
9850
12
4800
22
12520
32
9850
13
200.00000000000017
23
12520
33
9850
0
3DFACE
8
GLASS
10
200.00000000000017
20
12500
30
7350
11
4800
21
12500
31
7350
12
4800
22
12500
32
9850
13
200.00000000000017
23
12500
33
9850
0
3DFACE
8
GLASS
10
200.00000000000017
20
12520
30
7350
11
4800
21
12520
31
7350
12
4800
22
12520
32
9850
13
200.00000000000017
23
12520
33
9850
0
3DFACE
8
GLASS
10
200.00000000000017
20
12500
30
7350
11
200.00000000000017
21
12520
31
7350
12
200.00000000000017
22
12520
32
9850
13
200.00000000000017
23
12500
33
9850
0
3DFACE
8
GLASS
10
4800
20
12500
30
7350
11
4800
21
12520
31
7350
12
4800
22
12520
32
9850
13
4800
23
12500
33
9850
0
3DFACE
8
WALL
10
200.00000000000017
20
12500
30
9850
11
4800
21
12500
31
9850
12
4800
22
12700
32
9850
13
200.00000000000017
23
12700
33
9850
0
3DFACE
8
WALL
10
200.00000000000017
20
12500
30
10150
11
4800
21
12500
31
10150
12
4800
22
12700
32
10150
13
200.00000000000017
23
12700
33
10150
0
3DFACE
8
WALL
10
200.00000000000017
20
12500
30
9850
11
4800
21
12500
31
9850
12
4800
22
12500
32
10150
13
200.00000000000017
23
12500
33
10150
0
3DFACE
8
WALL
10
200.00000000000017
20
12700
30
9850
11
4800
21
12700
31
9850
12
4800
22
12700
32
10150
13
200.00000000000017
23
12700
33
10150
0
3DFACE
8
WALL
10
200.00000000000017
20
12500
30
9850
11
200.00000000000017
21
12700
31
9850
12
200.00000000000017
22
12700
32
10150
13
200.00000000000017
23
12500
33
10150
0
3DFACE
8
WALL
10
4800
20
12500
30
9850
11
4800
21
12700
31
9850
12
4800
22
12700
32
10150
13
4800
23
12500
33
10150
0
3DFACE
8
SLAB
10
0
20
12500
30
10150
11
5000
21
12500
31
10150
12
5000
22
17900
32
10150
13
0
23
17900
33
10150
0
3DFACE
8
SLAB
10
0
20
12500
30
10350
11
5000
21
12500
31
10350
12
5000
22
17900
32
10350
13
0
23
17900
33
10350
0
3DFACE
8
SLAB
10
0
20
12500
30
10150
11
5000
21
12500
31
10150
12
5000
22
12500
32
10350
13
0
23
12500
33
10350
0
3DFACE
8
SLAB
10
0
20
17900
30
10150
11
5000
21
17900
31
10150
12
5000
22
17900
32
10350
13
0
23
17900
33
10350
0
3DFACE
8
SLAB
10
0
20
12500
30
10150
11
0
21
17900
31
10150
12
0
22
17900
32
10350
13
0
23
12500
33
10350
0
3DFACE
8
SLAB
10
5000
20
12500
30
10150
11
5000
21
17900
31
10150
12
5000
22
17900
32
10350
13
5000
23
12500
33
10350
0
3DFACE
8
SLAB
10
0
20
20800
30
10150
11
5000
21
20800
31
10150
12
5000
22
21200
32
10150
13
0
23
21200
33
10150
0
3DFACE
8
SLAB
10
0
20
20800
30
10350
11
5000
21
20800
31
10350
12
5000
22
21200
32
10350
13
0
23
21200
33
10350
0
3DFACE
8
SLAB
10
0
20
20800
30
10150
11
5000
21
20800
31
10150
12
5000
22
20800
32
10350
13
0
23
20800
33
10350
0
3DFACE
8
SLAB
10
0
20
21200
30
10150
11
5000
21
21200
31
10150
12
5000
22
21200
32
10350
13
0
23
21200
33
10350
0
3DFACE
8
SLAB
10
0
20
20800
30
10150
11
0
21
21200
31
10150
12
0
22
21200
32
10350
13
0
23
20800
33
10350
0
3DFACE
8
SLAB
10
5000
20
20800
30
10150
11
5000
21
21200
31
10150
12
5000
22
21200
32
10350
13
5000
23
20800
33
10350
0
3DFACE
8
SLAB
10
0
20
17900
30
10150
11
1200
21
17900
31
10150
12
1200
22
20800
32
10150
13
0
23
20800
33
10150
0
3DFACE
8
SLAB
10
0
20
17900
30
10350
11
1200
21
17900
31
10350
12
1200
22
20800
32
10350
13
0
23
20800
33
10350
0
3DFACE
8
SLAB
10
0
20
17900
30
10150
11
1200
21
17900
31
10150
12
1200
22
17900
32
10350
13
0
23
17900
33
10350
0
3DFACE
8
SLAB
10
0
20
20800
30
10150
11
1200
21
20800
31
10150
12
1200
22
20800
32
10350
13
0
23
20800
33
10350
0
3DFACE
8
SLAB
10
0
20
17900
30
10150
11
0
21
20800
31
10150
12
0
22
20800
32
10350
13
0
23
17900
33
10350
0
3DFACE
8
SLAB
10
1200
20
17900
30
10150
11
1200
21
20800
31
10150
12
1200
22
20800
32
10350
13
1200
23
17900
33
10350
0
3DFACE
8
SLAB
10
2750
20
17900
30
10150
11
5000
21
17900
31
10150
12
5000
22
20800
32
10150
13
2750
23
20800
33
10150
0
3DFACE
8
SLAB
10
2750
20
17900
30
10350
11
5000
21
17900
31
10350
12
5000
22
20800
32
10350
13
2750
23
20800
33
10350
0
3DFACE
8
SLAB
10
2750
20
17900
30
10150
11
5000
21
17900
31
10150
12
5000
22
17900
32
10350
13
2750
23
17900
33
10350
0
3DFACE
8
SLAB
10
2750
20
20800
30
10150
11
5000
21
20800
31
10150
12
5000
22
20800
32
10350
13
2750
23
20800
33
10350
0
3DFACE
8
SLAB
10
2750
20
17900
30
10150
11
2750
21
20800
31
10150
12
2750
22
20800
32
10350
13
2750
23
17900
33
10350
0
3DFACE
8
SLAB
10
5000
20
17900
30
10150
11
5000
21
20800
31
10150
12
5000
22
20800
32
10350
13
5000
23
17900
33
10350
0
3DFACE
8
WALL
10
1100
20
17800
30
10350
11
2850
21
17800
31
10350
12
2850
22
20900
32
10350
13
1100
23
20900
33
10350
0
3DFACE
8
WALL
10
1100
20
17800
30
10650
11
2850
21
17800
31
10650
12
2850
22
20900
32
10650
13
1100
23
20900
33
10650
0
3DFACE
8
WALL
10
1100
20
17800
30
10350
11
2850
21
17800
31
10350
12
2850
22
17800
32
10650
13
1100
23
17800
33
10650
0
3DFACE
8
WALL
10
1100
20
20900
30
10350
11
2850
21
20900
31
10350
12
2850
22
20900
32
10650
13
1100
23
20900
33
10650
0
3DFACE
8
WALL
10
1100
20
17800
30
10350
11
1100
21
20900
31
10350
12
1100
22
20900
32
10650
13
1100
23
17800
33
10650
0
3DFACE
8
WALL
10
2850
20
17800
30
10350
11
2850
21
20900
31
10350
12
2850
22
20900
32
10650
13
2850
23
17800
33
10650
0
3DFACE
8
GLASS
10
1100
20
17800
30
10800
11
2850
21
17800
31
10800
12
2850
22
20900
32
10800
13
1100
23
20900
33
10800
0
3DFACE
8
GLASS
10
1100
20
17800
30
10820
11
2850
21
17800
31
10820
12
2850
22
20900
32
10820
13
1100
23
20900
33
10820
0
3DFACE
8
GLASS
10
1100
20
17800
30
10800
11
2850
21
17800
31
10800
12
2850
22
17800
32
10820
13
1100
23
17800
33
10820
0
3DFACE
8
GLASS
10
1100
20
20900
30
10800
11
2850
21
20900
31
10800
12
2850
22
20900
32
10820
13
1100
23
20900
33
10820
0
3DFACE
8
GLASS
10
1100
20
17800
30
10800
11
1100
21
20900
31
10800
12
1100
22
20900
32
10820
13
1100
23
17800
33
10820
0
3DFACE
8
GLASS
10
2850
20
17800
30
10800
11
2850
21
20900
31
10800
12
2850
22
20900
32
10820
13
2850
23
17800
33
10820
0
3DFACE
8
WALL
10
0
20
12500
30
10350
11
5000
21
12500
31
10350
12
5000
22
12600
32
10350
13
0
23
12600
33
10350
0
3DFACE
8
WALL
10
0
20
12500
30
11200
11
5000
21
12500
31
11200
12
5000
22
12600
32
11200
13
0
23
12600
33
11200
0
3DFACE
8
WALL
10
0
20
12500
30
10350
11
5000
21
12500
31
10350
12
5000
22
12500
32
11200
13
0
23
12500
33
11200
0
3DFACE
8
WALL
10
0
20
12600
30
10350
11
5000
21
12600
31
10350
12
5000
22
12600
32
11200
13
0
23
12600
33
11200
0
3DFACE
8
WALL
10
0
20
12500
30
10350
11
0
21
12600
31
10350
12
0
22
12600
32
11200
13
0
23
12500
33
11200
0
3DFACE
8
WALL
10
5000
20
12500
30
10350
11
5000
21
12600
31
10350
12
5000
22
12600
32
11200
13
5000
23
12500
33
11200
0
3DFACE
8
WALL
10
0
20
21100
30
10350
11
5000
21
21100
31
10350
12
5000
22
21200
32
10350
13
0
23
21200
33
10350
0
3DFACE
8
WALL
10
0
20
21100
30
11200
11
5000
21
21100
31
11200
12
5000
22
21200
32
11200
13
0
23
21200
33
11200
0
3DFACE
8
WALL
10
0
20
21100
30
10350
11
5000
21
21100
31
10350
12
5000
22
21100
32
11200
13
0
23
21100
33
11200
0
3DFACE
8
WALL
10
0
20
21200
30
10350
11
5000
21
21200
31
10350
12
5000
22
21200
32
11200
13
0
23
21200
33
11200
0
3DFACE
8
WALL
10
0
20
21100
30
10350
11
0
21
21200
31
10350
12
0
22
21200
32
11200
13
0
23
21100
33
11200
0
3DFACE
8
WALL
10
5000
20
21100
30
10350
11
5000
21
21200
31
10350
12
5000
22
21200
32
11200
13
5000
23
21100
33
11200
0
3DFACE
8
WALL
10
0
20
12500
30
10350
11
100
21
12500
31
10350
12
100
22
21200
32
10350
13
0
23
21200
33
10350
0
3DFACE
8
WALL
10
0
20
12500
30
11200
11
100
21
12500
31
11200
12
100
22
21200
32
11200
13
0
23
21200
33
11200
0
3DFACE
8
WALL
10
0
20
12500
30
10350
11
100
21
12500
31
10350
12
100
22
12500
32
11200
13
0
23
12500
33
11200
0
3DFACE
8
WALL
10
0
20
21200
30
10350
11
100
21
21200
31
10350
12
100
22
21200
32
11200
13
0
23
21200
33
11200
0
3DFACE
8
WALL
10
0
20
12500
30
10350
11
0
21
21200
31
10350
12
0
22
21200
32
11200
13
0
23
12500
33
11200
0
3DFACE
8
WALL
10
100
20
12500
30
10350
11
100
21
21200
31
10350
12
100
22
21200
32
11200
13
100
23
12500
33
11200
0
3DFACE
8
WALL
10
4900
20
12500
30
10350
11
5000
21
12500
31
10350
12
5000
22
21200
32
10350
13
4900
23
21200
33
10350
0
3DFACE
8
WALL
10
4900
20
12500
30
11200
11
5000
21
12500
31
11200
12
5000
22
21200
32
11200
13
4900
23
21200
33
11200
0
3DFACE
8
WALL
10
4900
20
12500
30
10350
11
5000
21
12500
31
10350
12
5000
22
12500
32
11200
13
4900
23
12500
33
11200
0
3DFACE
8
WALL
10
4900
20
21200
30
10350
11
5000
21
21200
31
10350
12
5000
22
21200
32
11200
13
4900
23
21200
33
11200
0
3DFACE
8
WALL
10
4900
20
12500
30
10350
11
4900
21
21200
31
10350
12
4900
22
21200
32
11200
13
4900
23
12500
33
11200
0
3DFACE
8
WALL
10
5000
20
12500
30
10350
11
5000
21
21200
31
10350
12
5000
22
21200
32
11200
13
5000
23
12500
33
11200
0
3DFACE
8
GLASS
10
0
20
8000
30
7350
11
5000
21
8000
31
7350
12
5000
22
8020
32
7350
13
0
23
8020
33
7350
0
3DFACE
8
GLASS
10
0
20
8000
30
8450
11
5000
21
8000
31
8450
12
5000
22
8020
32
8450
13
0
23
8020
33
8450
0
3DFACE
8
GLASS
10
0
20
8000
30
7350
11
5000
21
8000
31
7350
12
5000
22
8000
32
8450
13
0
23
8000
33
8450
0
3DFACE
8
GLASS
10
0
20
8020
30
7350
11
5000
21
8020
31
7350
12
5000
22
8020
32
8450
13
0
23
8020
33
8450
0
3DFACE
8
GLASS
10
0
20
8000
30
7350
11
0
21
8020
31
7350
12
0
22
8020
32
8450
13
0
23
8000
33
8450
0
3DFACE
8
GLASS
10
5000
20
8000
30
7350
11
5000
21
8020
31
7350
12
5000
22
8020
32
8450
13
5000
23
8000
33
8450
0
3DFACE
8
WALL
10
0
20
8000
30
7350
11
200.00000000000017
21
8000
31
7350
12
200.00000000000017
22
12500
32
7350
13
0
23
12500
33
7350
0
3DFACE
8
WALL
10
0
20
8000
30
8450
11
200.00000000000017
21
8000
31
8450
12
200.00000000000017
22
12500
32
8450
13
0
23
12500
33
8450
0
3DFACE
8
WALL
10
0
20
8000
30
7350
11
200.00000000000017
21
8000
31
7350
12
200.00000000000017
22
8000
32
8450
13
0
23
8000
33
8450
0
3DFACE
8
WALL
10
0
20
12500
30
7350
11
200.00000000000017
21
12500
31
7350
12
200.00000000000017
22
12500
32
8450
13
0
23
12500
33
8450
0
3DFACE
8
WALL
10
0
20
8000
30
7350
11
0
21
12500
31
7350
12
0
22
12500
32
8450
13
0
23
8000
33
8450
0
3DFACE
8
WALL
10
200.00000000000017
20
8000
30
7350
11
200.00000000000017
21
12500
31
7350
12
200.00000000000017
22
12500
32
8450
13
200.00000000000017
23
8000
33
8450
0
3DFACE
8
WALL
10
4800
20
8000
30
7350
11
5000
21
8000
31
7350
12
5000
22
12500
32
7350
13
4800
23
12500
33
7350
0
3DFACE
8
WALL
10
4800
20
8000
30
8450
11
5000
21
8000
31
8450
12
5000
22
12500
32
8450
13
4800
23
12500
33
8450
0
3DFACE
8
WALL
10
4800
20
8000
30
7350
11
5000
21
8000
31
7350
12
5000
22
8000
32
8450
13
4800
23
8000
33
8450
0
3DFACE
8
WALL
10
4800
20
12500
30
7350
11
5000
21
12500
31
7350
12
5000
22
12500
32
8450
13
4800
23
12500
33
8450
0
3DFACE
8
WALL
10
4800
20
8000
30
7350
11
4800
21
12500
31
7350
12
4800
22
12500
32
8450
13
4800
23
8000
33
8450
0
3DFACE
8
WALL
10
5000
20
8000
30
7350
11
5000
21
12500
31
7350
12
5000
22
12500
32
8450
13
5000
23
8000
33
8450
0
3DFACE
8
WALL
10
0
20
25800
30
7350
11
5000
21
25800
31
7350
12
5000
22
26000
32
7350
13
0
23
26000
33
7350
0
3DFACE
8
WALL
10
0
20
25800
30
8450
11
5000
21
25800
31
8450
12
5000
22
26000
32
8450
13
0
23
26000
33
8450
0
3DFACE
8
WALL
10
0
20
25800
30
7350
11
5000
21
25800
31
7350
12
5000
22
25800
32
8450
13
0
23
25800
33
8450
0
3DFACE
8
WALL
10
0
20
26000
30
7350
11
5000
21
26000
31
7350
12
5000
22
26000
32
8450
13
0
23
26000
33
8450
0
3DFACE
8
WALL
10
0
20
25800
30
7350
11
0
21
26000
31
7350
12
0
22
26000
32
8450
13
0
23
25800
33
8450
0
3DFACE
8
WALL
10
5000
20
25800
30
7350
11
5000
21
26000
31
7350
12
5000
22
26000
32
8450
13
5000
23
25800
33
8450
0
3DFACE
8
WALL
10
0
20
21200
30
7350
11
200.00000000000017
21
21200
31
7350
12
200.00000000000017
22
26000
32
7350
13
0
23
26000
33
7350
0
3DFACE
8
WALL
10
0
20
21200
30
8450
11
200.00000000000017
21
21200
31
8450
12
200.00000000000017
22
26000
32
8450
13
0
23
26000
33
8450
0
3DFACE
8
WALL
10
0
20
21200
30
7350
11
200.00000000000017
21
21200
31
7350
12
200.00000000000017
22
21200
32
8450
13
0
23
21200
33
8450
0
3DFACE
8
WALL
10
0
20
26000
30
7350
11
200.00000000000017
21
26000
31
7350
12
200.00000000000017
22
26000
32
8450
13
0
23
26000
33
8450
0
3DFACE
8
WALL
10
0
20
21200
30
7350
11
0
21
26000
31
7350
12
0
22
26000
32
8450
13
0
23
21200
33
8450
0
3DFACE
8
WALL
10
200.00000000000017
20
21200
30
7350
11
200.00000000000017
21
26000
31
7350
12
200.00000000000017
22
26000
32
8450
13
200.00000000000017
23
21200
33
8450
0
3DFACE
8
WALL
10
4800
20
21200
30
7350
11
5000
21
21200
31
7350
12
5000
22
26000
32
7350
13
4800
23
26000
33
7350
0
3DFACE
8
WALL
10
4800
20
21200
30
8450
11
5000
21
21200
31
8450
12
5000
22
26000
32
8450
13
4800
23
26000
33
8450
0
3DFACE
8
WALL
10
4800
20
21200
30
7350
11
5000
21
21200
31
7350
12
5000
22
21200
32
8450
13
4800
23
21200
33
8450
0
3DFACE
8
WALL
10
4800
20
26000
30
7350
11
5000
21
26000
31
7350
12
5000
22
26000
32
8450
13
4800
23
26000
33
8450
0
3DFACE
8
WALL
10
4800
20
21200
30
7350
11
4800
21
26000
31
7350
12
4800
22
26000
32
8450
13
4800
23
21200
33
8450
0
3DFACE
8
WALL
10
5000
20
21200
30
7350
11
5000
21
26000
31
7350
12
5000
22
26000
32
8450
13
5000
23
21200
33
8450
0
3DFACE
8
GLASS
10
1200
20
17890
30
450
11
2750
21
17890
31
450
12
2750
22
17910
32
450
13
1200
23
17910
33
450
0
3DFACE
8
GLASS
10
1200
20
17890
30
3850
11
2750
21
17890
31
3850
12
2750
22
17910
32
3850
13
1200
23
17910
33
3850
0
3DFACE
8
GLASS
10
1200
20
17890
30
450
11
2750
21
17890
31
450
12
2750
22
17890
32
3850
13
1200
23
17890
33
3850
0
3DFACE
8
GLASS
10
1200
20
17910
30
450
11
2750
21
17910
31
450
12
2750
22
17910
32
3850
13
1200
23
17910
33
3850
0
3DFACE
8
GLASS
10
1200
20
17890
30
450
11
1200
21
17910
31
450
12
1200
22
17910
32
3850
13
1200
23
17890
33
3850
0
3DFACE
8
GLASS
10
2750
20
17890
30
450
11
2750
21
17910
31
450
12
2750
22
17910
32
3850
13
2750
23
17890
33
3850
0
3DFACE
8
GLASS
10
1200
20
20790
30
450
11
2750
21
20790
31
450
12
2750
22
20810
32
450
13
1200
23
20810
33
450
0
3DFACE
8
GLASS
10
1200
20
20790
30
3850
11
2750
21
20790
31
3850
12
2750
22
20810
32
3850
13
1200
23
20810
33
3850
0
3DFACE
8
GLASS
10
1200
20
20790
30
450
11
2750
21
20790
31
450
12
2750
22
20790
32
3850
13
1200
23
20790
33
3850
0
3DFACE
8
GLASS
10
1200
20
20810
30
450
11
2750
21
20810
31
450
12
2750
22
20810
32
3850
13
1200
23
20810
33
3850
0
3DFACE
8
GLASS
10
1200
20
20790
30
450
11
1200
21
20810
31
450
12
1200
22
20810
32
3850
13
1200
23
20790
33
3850
0
3DFACE
8
GLASS
10
2750
20
20790
30
450
11
2750
21
20810
31
450
12
2750
22
20810
32
3850
13
2750
23
20790
33
3850
0
3DFACE
8
GLASS
10
1190
20
17900
30
450
11
1210
21
17900
31
450
12
1210
22
20800
32
450
13
1190
23
20800
33
450
0
3DFACE
8
GLASS
10
1190
20
17900
30
3850
11
1210
21
17900
31
3850
12
1210
22
20800
32
3850
13
1190
23
20800
33
3850
0
3DFACE
8
GLASS
10
1190
20
17900
30
450
11
1210
21
17900
31
450
12
1210
22
17900
32
3850
13
1190
23
17900
33
3850
0
3DFACE
8
GLASS
10
1190
20
20800
30
450
11
1210
21
20800
31
450
12
1210
22
20800
32
3850
13
1190
23
20800
33
3850
0
3DFACE
8
GLASS
10
1190
20
17900
30
450
11
1190
21
20800
31
450
12
1190
22
20800
32
3850
13
1190
23
17900
33
3850
0
3DFACE
8
GLASS
10
1210
20
17900
30
450
11
1210
21
20800
31
450
12
1210
22
20800
32
3850
13
1210
23
17900
33
3850
0
3DFACE
8
GLASS
10
2740
20
17900
30
450
11
2760
21
17900
31
450
12
2760
22
20800
32
450
13
2740
23
20800
33
450
0
3DFACE
8
GLASS
10
2740
20
17900
30
3850
11
2760
21
17900
31
3850
12
2760
22
20800
32
3850
13
2740
23
20800
33
3850
0
3DFACE
8
GLASS
10
2740
20
17900
30
450
11
2760
21
17900
31
450
12
2760
22
17900
32
3850
13
2740
23
17900
33
3850
0
3DFACE
8
GLASS
10
2740
20
20800
30
450
11
2760
21
20800
31
450
12
2760
22
20800
32
3850
13
2740
23
20800
33
3850
0
3DFACE
8
GLASS
10
2740
20
17900
30
450
11
2740
21
20800
31
450
12
2740
22
20800
32
3850
13
2740
23
17900
33
3850
0
3DFACE
8
GLASS
10
2760
20
17900
30
450
11
2760
21
20800
31
450
12
2760
22
20800
32
3850
13
2760
23
17900
33
3850
0
3DFACE
8
WALL
10
3100
20
18300
30
450
11
3200
21
18300
31
450
12
3200
22
18900
32
450
13
3100
23
18900
33
450
0
3DFACE
8
WALL
10
3100
20
18300
30
3850
11
3200
21
18300
31
3850
12
3200
22
18900
32
3850
13
3100
23
18900
33
3850
0
3DFACE
8
WALL
10
3100
20
18300
30
450
11
3200
21
18300
31
450
12
3200
22
18300
32
3850
13
3100
23
18300
33
3850
0
3DFACE
8
WALL
10
3100
20
18900
30
450
11
3200
21
18900
31
450
12
3200
22
18900
32
3850
13
3100
23
18900
33
3850
0
3DFACE
8
WALL
10
3100
20
18300
30
450
11
3100
21
18900
31
450
12
3100
22
18900
32
3850
13
3100
23
18300
33
3850
0
3DFACE
8
WALL
10
3200
20
18300
30
450
11
3200
21
18900
31
450
12
3200
22
18900
32
3850
13
3200
23
18300
33
3850
0
3DFACE
8
WALL
10
3100
20
18900
30
2650
11
3200
21
18900
31
2650
12
3200
22
19600
32
2650
13
3100
23
19600
33
2650
0
3DFACE
8
WALL
10
3100
20
18900
30
3850
11
3200
21
18900
31
3850
12
3200
22
19600
32
3850
13
3100
23
19600
33
3850
0
3DFACE
8
WALL
10
3100
20
18900
30
2650
11
3200
21
18900
31
2650
12
3200
22
18900
32
3850
13
3100
23
18900
33
3850
0
3DFACE
8
WALL
10
3100
20
19600
30
2650
11
3200
21
19600
31
2650
12
3200
22
19600
32
3850
13
3100
23
19600
33
3850
0
3DFACE
8
WALL
10
3100
20
18900
30
2650
11
3100
21
19600
31
2650
12
3100
22
19600
32
3850
13
3100
23
18900
33
3850
0
3DFACE
8
WALL
10
3200
20
18900
30
2650
11
3200
21
19600
31
2650
12
3200
22
19600
32
3850
13
3200
23
18900
33
3850
0
3DFACE
8
WALL
10
3100
20
19600
30
450
11
3200
21
19600
31
450
12
3200
22
20800
32
450
13
3100
23
20800
33
450
0
3DFACE
8
WALL
10
3100
20
19600
30
3850
11
3200
21
19600
31
3850
12
3200
22
20800
32
3850
13
3100
23
20800
33
3850
0
3DFACE
8
WALL
10
3100
20
19600
30
450
11
3200
21
19600
31
450
12
3200
22
19600
32
3850
13
3100
23
19600
33
3850
0
3DFACE
8
WALL
10
3100
20
20800
30
450
11
3200
21
20800
31
450
12
3200
22
20800
32
3850
13
3100
23
20800
33
3850
0
3DFACE
8
WALL
10
3100
20
19600
30
450
11
3100
21
20800
31
450
12
3100
22
20800
32
3850
13
3100
23
19600
33
3850
0
3DFACE
8
WALL
10
3200
20
19600
30
450
11
3200
21
20800
31
450
12
3200
22
20800
32
3850
13
3200
23
19600
33
3850
0
3DFACE
8
WALL
10
3150
20
18250
30
450
11
4800
21
18250
31
450
12
4800
22
18350
32
450
13
3150
23
18350
33
450
0
3DFACE
8
WALL
10
3150
20
18250
30
3850
11
4800
21
18250
31
3850
12
4800
22
18350
32
3850
13
3150
23
18350
33
3850
0
3DFACE
8
WALL
10
3150
20
18250
30
450
11
4800
21
18250
31
450
12
4800
22
18250
32
3850
13
3150
23
18250
33
3850
0
3DFACE
8
WALL
10
3150
20
18350
30
450
11
4800
21
18350
31
450
12
4800
22
18350
32
3850
13
3150
23
18350
33
3850
0
3DFACE
8
WALL
10
3150
20
18250
30
450
11
3150
21
18350
31
450
12
3150
22
18350
32
3850
13
3150
23
18250
33
3850
0
3DFACE
8
WALL
10
4800
20
18250
30
450
11
4800
21
18350
31
450
12
4800
22
18350
32
3850
13
4800
23
18250
33
3850
0
3DFACE
8
WALL
10
3150
20
20750
30
450
11
4000
21
20750
31
450
12
4000
22
20850
32
450
13
3150
23
20850
33
450
0
3DFACE
8
WALL
10
3150
20
20750
30
3850
11
4000
21
20750
31
3850
12
4000
22
20850
32
3850
13
3150
23
20850
33
3850
0
3DFACE
8
WALL
10
3150
20
20750
30
450
11
4000
21
20750
31
450
12
4000
22
20750
32
3850
13
3150
23
20750
33
3850
0
3DFACE
8
WALL
10
3150
20
20850
30
450
11
4000
21
20850
31
450
12
4000
22
20850
32
3850
13
3150
23
20850
33
3850
0
3DFACE
8
WALL
10
3150
20
20750
30
450
11
3150
21
20850
31
450
12
3150
22
20850
32
3850
13
3150
23
20750
33
3850
0
3DFACE
8
WALL
10
4000
20
20750
30
450
11
4000
21
20850
31
450
12
4000
22
20850
32
3850
13
4000
23
20750
33
3850
0
3DFACE
8
WALL
10
4000
20
20750
30
2650
11
4700
21
20750
31
2650
12
4700
22
20850
32
2650
13
4000
23
20850
33
2650
0
3DFACE
8
WALL
10
4000
20
20750
30
3850
11
4700
21
20750
31
3850
12
4700
22
20850
32
3850
13
4000
23
20850
33
3850
0
3DFACE
8
WALL
10
4000
20
20750
30
2650
11
4700
21
20750
31
2650
12
4700
22
20750
32
3850
13
4000
23
20750
33
3850
0
3DFACE
8
WALL
10
4000
20
20850
30
2650
11
4700
21
20850
31
2650
12
4700
22
20850
32
3850
13
4000
23
20850
33
3850
0
3DFACE
8
WALL
10
4000
20
20750
30
2650
11
4000
21
20850
31
2650
12
4000
22
20850
32
3850
13
4000
23
20750
33
3850
0
3DFACE
8
WALL
10
4700
20
20750
30
2650
11
4700
21
20850
31
2650
12
4700
22
20850
32
3850
13
4700
23
20750
33
3850
0
3DFACE
8
WALL
10
4700
20
20750
30
450
11
4800
21
20750
31
450
12
4800
22
20850
32
450
13
4700
23
20850
33
450
0
3DFACE
8
WALL
10
4700
20
20750
30
3850
11
4800
21
20750
31
3850
12
4800
22
20850
32
3850
13
4700
23
20850
33
3850
0
3DFACE
8
WALL
10
4700
20
20750
30
450
11
4800
21
20750
31
450
12
4800
22
20750
32
3850
13
4700
23
20750
33
3850
0
3DFACE
8
WALL
10
4700
20
20850
30
450
11
4800
21
20850
31
450
12
4800
22
20850
32
3850
13
4700
23
20850
33
3850
0
3DFACE
8
WALL
10
4700
20
20750
30
450
11
4700
21
20850
31
450
12
4700
22
20850
32
3850
13
4700
23
20750
33
3850
0
3DFACE
8
WALL
10
4800
20
20750
30
450
11
4800
21
20850
31
450
12
4800
22
20850
32
3850
13
4800
23
20750
33
3850
0
3DFACE
8
WALL
10
200.00000000000017
20
21150
30
450
11
2200
21
21150
31
450
12
2200
22
21250
32
450
13
200.00000000000017
23
21250
33
450
0
3DFACE
8
WALL
10
200.00000000000017
20
21150
30
3850
11
2200
21
21150
31
3850
12
2200
22
21250
32
3850
13
200.00000000000017
23
21250
33
3850
0
3DFACE
8
WALL
10
200.00000000000017
20
21150
30
450
11
2200
21
21150
31
450
12
2200
22
21150
32
3850
13
200.00000000000017
23
21150
33
3850
0
3DFACE
8
WALL
10
200.00000000000017
20
21250
30
450
11
2200
21
21250
31
450
12
2200
22
21250
32
3850
13
200.00000000000017
23
21250
33
3850
0
3DFACE
8
WALL
10
200.00000000000017
20
21150
30
450
11
200.00000000000017
21
21250
31
450
12
200.00000000000017
22
21250
32
3850
13
200.00000000000017
23
21150
33
3850
0
3DFACE
8
WALL
10
2200
20
21150
30
450
11
2200
21
21250
31
450
12
2200
22
21250
32
3850
13
2200
23
21150
33
3850
0
3DFACE
8
WALL
10
2200
20
21150
30
2650
11
3000
21
21150
31
2650
12
3000
22
21250
32
2650
13
2200
23
21250
33
2650
0
3DFACE
8
WALL
10
2200
20
21150
30
3850
11
3000
21
21150
31
3850
12
3000
22
21250
32
3850
13
2200
23
21250
33
3850
0
3DFACE
8
WALL
10
2200
20
21150
30
2650
11
3000
21
21150
31
2650
12
3000
22
21150
32
3850
13
2200
23
21150
33
3850
0
3DFACE
8
WALL
10
2200
20
21250
30
2650
11
3000
21
21250
31
2650
12
3000
22
21250
32
3850
13
2200
23
21250
33
3850
0
3DFACE
8
WALL
10
2200
20
21150
30
2650
11
2200
21
21250
31
2650
12
2200
22
21250
32
3850
13
2200
23
21150
33
3850
0
3DFACE
8
WALL
10
3000
20
21150
30
2650
11
3000
21
21250
31
2650
12
3000
22
21250
32
3850
13
3000
23
21150
33
3850
0
3DFACE
8
WALL
10
3000
20
21150
30
450
11
4800
21
21150
31
450
12
4800
22
21250
32
450
13
3000
23
21250
33
450
0
3DFACE
8
WALL
10
3000
20
21150
30
3850
11
4800
21
21150
31
3850
12
4800
22
21250
32
3850
13
3000
23
21250
33
3850
0
3DFACE
8
WALL
10
3000
20
21150
30
450
11
4800
21
21150
31
450
12
4800
22
21150
32
3850
13
3000
23
21150
33
3850
0
3DFACE
8
WALL
10
3000
20
21250
30
450
11
4800
21
21250
31
450
12
4800
22
21250
32
3850
13
3000
23
21250
33
3850
0
3DFACE
8
WALL
10
3000
20
21150
30
450
11
3000
21
21250
31
450
12
3000
22
21250
32
3850
13
3000
23
21150
33
3850
0
3DFACE
8
WALL
10
4800
20
21150
30
450
11
4800
21
21250
31
450
12
4800
22
21250
32
3850
13
4800
23
21150
33
3850
0
3DFACE
8
GLASS
10
1200
20
17890
30
4050
11
2750
21
17890
31
4050
12
2750
22
17910
32
4050
13
1200
23
17910
33
4050
0
3DFACE
8
GLASS
10
1200
20
17890
30
5150
11
2750
21
17890
31
5150
12
2750
22
17910
32
5150
13
1200
23
17910
33
5150
0
3DFACE
8
GLASS
10
1200
20
17890
30
4050
11
2750
21
17890
31
4050
12
2750
22
17890
32
5150
13
1200
23
17890
33
5150
0
3DFACE
8
GLASS
10
1200
20
17910
30
4050
11
2750
21
17910
31
4050
12
2750
22
17910
32
5150
13
1200
23
17910
33
5150
0
3DFACE
8
GLASS
10
1200
20
17890
30
4050
11
1200
21
17910
31
4050
12
1200
22
17910
32
5150
13
1200
23
17890
33
5150
0
3DFACE
8
GLASS
10
2750
20
17890
30
4050
11
2750
21
17910
31
4050
12
2750
22
17910
32
5150
13
2750
23
17890
33
5150
0
3DFACE
8
GLASS
10
1200
20
20790
30
4050
11
2750
21
20790
31
4050
12
2750
22
20810
32
4050
13
1200
23
20810
33
4050
0
3DFACE
8
GLASS
10
1200
20
20790
30
5150
11
2750
21
20790
31
5150
12
2750
22
20810
32
5150
13
1200
23
20810
33
5150
0
3DFACE
8
GLASS
10
1200
20
20790
30
4050
11
2750
21
20790
31
4050
12
2750
22
20790
32
5150
13
1200
23
20790
33
5150
0
3DFACE
8
GLASS
10
1200
20
20810
30
4050
11
2750
21
20810
31
4050
12
2750
22
20810
32
5150
13
1200
23
20810
33
5150
0
3DFACE
8
GLASS
10
1200
20
20790
30
4050
11
1200
21
20810
31
4050
12
1200
22
20810
32
5150
13
1200
23
20790
33
5150
0
3DFACE
8
GLASS
10
2750
20
20790
30
4050
11
2750
21
20810
31
4050
12
2750
22
20810
32
5150
13
2750
23
20790
33
5150
0
3DFACE
8
GLASS
10
1190
20
17900
30
4050
11
1210
21
17900
31
4050
12
1210
22
20800
32
4050
13
1190
23
20800
33
4050
0
3DFACE
8
GLASS
10
1190
20
17900
30
5150
11
1210
21
17900
31
5150
12
1210
22
20800
32
5150
13
1190
23
20800
33
5150
0
3DFACE
8
GLASS
10
1190
20
17900
30
4050
11
1210
21
17900
31
4050
12
1210
22
17900
32
5150
13
1190
23
17900
33
5150
0
3DFACE
8
GLASS
10
1190
20
20800
30
4050
11
1210
21
20800
31
4050
12
1210
22
20800
32
5150
13
1190
23
20800
33
5150
0
3DFACE
8
GLASS
10
1190
20
17900
30
4050
11
1190
21
20800
31
4050
12
1190
22
20800
32
5150
13
1190
23
17900
33
5150
0
3DFACE
8
GLASS
10
1210
20
17900
30
4050
11
1210
21
20800
31
4050
12
1210
22
20800
32
5150
13
1210
23
17900
33
5150
0
3DFACE
8
GLASS
10
2740
20
17900
30
4050
11
2760
21
17900
31
4050
12
2760
22
20800
32
4050
13
2740
23
20800
33
4050
0
3DFACE
8
GLASS
10
2740
20
17900
30
5150
11
2760
21
17900
31
5150
12
2760
22
20800
32
5150
13
2740
23
20800
33
5150
0
3DFACE
8
GLASS
10
2740
20
17900
30
4050
11
2760
21
17900
31
4050
12
2760
22
17900
32
5150
13
2740
23
17900
33
5150
0
3DFACE
8
GLASS
10
2740
20
20800
30
4050
11
2760
21
20800
31
4050
12
2760
22
20800
32
5150
13
2740
23
20800
33
5150
0
3DFACE
8
GLASS
10
2740
20
17900
30
4050
11
2740
21
20800
31
4050
12
2740
22
20800
32
5150
13
2740
23
17900
33
5150
0
3DFACE
8
GLASS
10
2760
20
17900
30
4050
11
2760
21
20800
31
4050
12
2760
22
20800
32
5150
13
2760
23
17900
33
5150
0
3DFACE
8
WALL
10
200.00000000000017
20
13350
30
4050
11
3900
21
13350
31
4050
12
3900
22
13450
32
4050
13
200.00000000000017
23
13450
33
4050
0
3DFACE
8
WALL
10
200.00000000000017
20
13350
30
7150
11
3900
21
13350
31
7150
12
3900
22
13450
32
7150
13
200.00000000000017
23
13450
33
7150
0
3DFACE
8
WALL
10
200.00000000000017
20
13350
30
4050
11
3900
21
13350
31
4050
12
3900
22
13350
32
7150
13
200.00000000000017
23
13350
33
7150
0
3DFACE
8
WALL
10
200.00000000000017
20
13450
30
4050
11
3900
21
13450
31
4050
12
3900
22
13450
32
7150
13
200.00000000000017
23
13450
33
7150
0
3DFACE
8
WALL
10
200.00000000000017
20
13350
30
4050
11
200.00000000000017
21
13450
31
4050
12
200.00000000000017
22
13450
32
7150
13
200.00000000000017
23
13350
33
7150
0
3DFACE
8
WALL
10
3900
20
13350
30
4050
11
3900
21
13450
31
4050
12
3900
22
13450
32
7150
13
3900
23
13350
33
7150
0
3DFACE
8
WALL
10
3900
20
13350
30
6250
11
4700
21
13350
31
6250
12
4700
22
13450
32
6250
13
3900
23
13450
33
6250
0
3DFACE
8
WALL
10
3900
20
13350
30
7150
11
4700
21
13350
31
7150
12
4700
22
13450
32
7150
13
3900
23
13450
33
7150
0
3DFACE
8
WALL
10
3900
20
13350
30
6250
11
4700
21
13350
31
6250
12
4700
22
13350
32
7150
13
3900
23
13350
33
7150
0
3DFACE
8
WALL
10
3900
20
13450
30
6250
11
4700
21
13450
31
6250
12
4700
22
13450
32
7150
13
3900
23
13450
33
7150
0
3DFACE
8
WALL
10
3900
20
13350
30
6250
11
3900
21
13450
31
6250
12
3900
22
13450
32
7150
13
3900
23
13350
33
7150
0
3DFACE
8
WALL
10
4700
20
13350
30
6250
11
4700
21
13450
31
6250
12
4700
22
13450
32
7150
13
4700
23
13350
33
7150
0
3DFACE
8
WALL
10
4700
20
13350
30
4050
11
4800
21
13350
31
4050
12
4800
22
13450
32
4050
13
4700
23
13450
33
4050
0
3DFACE
8
WALL
10
4700
20
13350
30
7150
11
4800
21
13350
31
7150
12
4800
22
13450
32
7150
13
4700
23
13450
33
7150
0
3DFACE
8
WALL
10
4700
20
13350
30
4050
11
4800
21
13350
31
4050
12
4800
22
13350
32
7150
13
4700
23
13350
33
7150
0
3DFACE
8
WALL
10
4700
20
13450
30
4050
11
4800
21
13450
31
4050
12
4800
22
13450
32
7150
13
4700
23
13450
33
7150
0
3DFACE
8
WALL
10
4700
20
13350
30
4050
11
4700
21
13450
31
4050
12
4700
22
13450
32
7150
13
4700
23
13350
33
7150
0
3DFACE
8
WALL
10
4800
20
13350
30
4050
11
4800
21
13450
31
4050
12
4800
22
13450
32
7150
13
4800
23
13350
33
7150
0
3DFACE
8
WALL
10
200.00000000000017
20
17550
30
4050
11
1200
21
17550
31
4050
12
1200
22
17650
32
4050
13
200.00000000000017
23
17650
33
4050
0
3DFACE
8
WALL
10
200.00000000000017
20
17550
30
7150
11
1200
21
17550
31
7150
12
1200
22
17650
32
7150
13
200.00000000000017
23
17650
33
7150
0
3DFACE
8
WALL
10
200.00000000000017
20
17550
30
4050
11
1200
21
17550
31
4050
12
1200
22
17550
32
7150
13
200.00000000000017
23
17550
33
7150
0
3DFACE
8
WALL
10
200.00000000000017
20
17650
30
4050
11
1200
21
17650
31
4050
12
1200
22
17650
32
7150
13
200.00000000000017
23
17650
33
7150
0
3DFACE
8
WALL
10
200.00000000000017
20
17550
30
4050
11
200.00000000000017
21
17650
31
4050
12
200.00000000000017
22
17650
32
7150
13
200.00000000000017
23
17550
33
7150
0
3DFACE
8
WALL
10
1200
20
17550
30
4050
11
1200
21
17650
31
4050
12
1200
22
17650
32
7150
13
1200
23
17550
33
7150
0
3DFACE
8
GLASS
10
1200
20
17550
30
4050
11
2600
21
17550
31
4050
12
2600
22
17650
32
4050
13
1200
23
17650
33
4050
0
3DFACE
8
GLASS
10
1200
20
17550
30
7150
11
2600
21
17550
31
7150
12
2600
22
17650
32
7150
13
1200
23
17650
33
7150
0
3DFACE
8
GLASS
10
1200
20
17550
30
4050
11
2600
21
17550
31
4050
12
2600
22
17550
32
7150
13
1200
23
17550
33
7150
0
3DFACE
8
GLASS
10
1200
20
17650
30
4050
11
2600
21
17650
31
4050
12
2600
22
17650
32
7150
13
1200
23
17650
33
7150
0
3DFACE
8
GLASS
10
1200
20
17550
30
4050
11
1200
21
17650
31
4050
12
1200
22
17650
32
7150
13
1200
23
17550
33
7150
0
3DFACE
8
GLASS
10
2600
20
17550
30
4050
11
2600
21
17650
31
4050
12
2600
22
17650
32
7150
13
2600
23
17550
33
7150
0
3DFACE
8
WALL
10
2600
20
17550
30
4050
11
3900
21
17550
31
4050
12
3900
22
17650
32
4050
13
2600
23
17650
33
4050
0
3DFACE
8
WALL
10
2600
20
17550
30
7150
11
3900
21
17550
31
7150
12
3900
22
17650
32
7150
13
2600
23
17650
33
7150
0
3DFACE
8
WALL
10
2600
20
17550
30
4050
11
3900
21
17550
31
4050
12
3900
22
17550
32
7150
13
2600
23
17550
33
7150
0
3DFACE
8
WALL
10
2600
20
17650
30
4050
11
3900
21
17650
31
4050
12
3900
22
17650
32
7150
13
2600
23
17650
33
7150
0
3DFACE
8
WALL
10
2600
20
17550
30
4050
11
2600
21
17650
31
4050
12
2600
22
17650
32
7150
13
2600
23
17550
33
7150
0
3DFACE
8
WALL
10
3900
20
17550
30
4050
11
3900
21
17650
31
4050
12
3900
22
17650
32
7150
13
3900
23
17550
33
7150
0
3DFACE
8
WALL
10
3900
20
17550
30
6250
11
4700
21
17550
31
6250
12
4700
22
17650
32
6250
13
3900
23
17650
33
6250
0
3DFACE
8
WALL
10
3900
20
17550
30
7150
11
4700
21
17550
31
7150
12
4700
22
17650
32
7150
13
3900
23
17650
33
7150
0
3DFACE
8
WALL
10
3900
20
17550
30
6250
11
4700
21
17550
31
6250
12
4700
22
17550
32
7150
13
3900
23
17550
33
7150
0
3DFACE
8
WALL
10
3900
20
17650
30
6250
11
4700
21
17650
31
6250
12
4700
22
17650
32
7150
13
3900
23
17650
33
7150
0
3DFACE
8
WALL
10
3900
20
17550
30
6250
11
3900
21
17650
31
6250
12
3900
22
17650
32
7150
13
3900
23
17550
33
7150
0
3DFACE
8
WALL
10
4700
20
17550
30
6250
11
4700
21
17650
31
6250
12
4700
22
17650
32
7150
13
4700
23
17550
33
7150
0
3DFACE
8
WALL
10
4700
20
17550
30
4050
11
4800
21
17550
31
4050
12
4800
22
17650
32
4050
13
4700
23
17650
33
4050
0
3DFACE
8
WALL
10
4700
20
17550
30
7150
11
4800
21
17550
31
7150
12
4800
22
17650
32
7150
13
4700
23
17650
33
7150
0
3DFACE
8
WALL
10
4700
20
17550
30
4050
11
4800
21
17550
31
4050
12
4800
22
17550
32
7150
13
4700
23
17550
33
7150
0
3DFACE
8
WALL
10
4700
20
17650
30
4050
11
4800
21
17650
31
4050
12
4800
22
17650
32
7150
13
4700
23
17650
33
7150
0
3DFACE
8
WALL
10
4700
20
17550
30
4050
11
4700
21
17650
31
4050
12
4700
22
17650
32
7150
13
4700
23
17550
33
7150
0
3DFACE
8
WALL
10
4800
20
17550
30
4050
11
4800
21
17650
31
4050
12
4800
22
17650
32
7150
13
4800
23
17550
33
7150
0
3DFACE
8
WALL
10
2800
20
18050
30
4050
11
2900
21
18050
31
4050
12
2900
22
18900
32
4050
13
2800
23
18900
33
4050
0
3DFACE
8
WALL
10
2800
20
18050
30
7150
11
2900
21
18050
31
7150
12
2900
22
18900
32
7150
13
2800
23
18900
33
7150
0
3DFACE
8
WALL
10
2800
20
18050
30
4050
11
2900
21
18050
31
4050
12
2900
22
18050
32
7150
13
2800
23
18050
33
7150
0
3DFACE
8
WALL
10
2800
20
18900
30
4050
11
2900
21
18900
31
4050
12
2900
22
18900
32
7150
13
2800
23
18900
33
7150
0
3DFACE
8
WALL
10
2800
20
18050
30
4050
11
2800
21
18900
31
4050
12
2800
22
18900
32
7150
13
2800
23
18050
33
7150
0
3DFACE
8
WALL
10
2900
20
18050
30
4050
11
2900
21
18900
31
4050
12
2900
22
18900
32
7150
13
2900
23
18050
33
7150
0
3DFACE
8
WALL
10
2800
20
18900
30
6250
11
2900
21
18900
31
6250
12
2900
22
19600
32
6250
13
2800
23
19600
33
6250
0
3DFACE
8
WALL
10
2800
20
18900
30
7150
11
2900
21
18900
31
7150
12
2900
22
19600
32
7150
13
2800
23
19600
33
7150
0
3DFACE
8
WALL
10
2800
20
18900
30
6250
11
2900
21
18900
31
6250
12
2900
22
18900
32
7150
13
2800
23
18900
33
7150
0
3DFACE
8
WALL
10
2800
20
19600
30
6250
11
2900
21
19600
31
6250
12
2900
22
19600
32
7150
13
2800
23
19600
33
7150
0
3DFACE
8
WALL
10
2800
20
18900
30
6250
11
2800
21
19600
31
6250
12
2800
22
19600
32
7150
13
2800
23
18900
33
7150
0
3DFACE
8
WALL
10
2900
20
18900
30
6250
11
2900
21
19600
31
6250
12
2900
22
19600
32
7150
13
2900
23
18900
33
7150
0
3DFACE
8
WALL
10
2800
20
19600
30
4050
11
2900
21
19600
31
4050
12
2900
22
20900
32
4050
13
2800
23
20900
33
4050
0
3DFACE
8
WALL
10
2800
20
19600
30
7150
11
2900
21
19600
31
7150
12
2900
22
20900
32
7150
13
2800
23
20900
33
7150
0
3DFACE
8
WALL
10
2800
20
19600
30
4050
11
2900
21
19600
31
4050
12
2900
22
19600
32
7150
13
2800
23
19600
33
7150
0
3DFACE
8
WALL
10
2800
20
20900
30
4050
11
2900
21
20900
31
4050
12
2900
22
20900
32
7150
13
2800
23
20900
33
7150
0
3DFACE
8
WALL
10
2800
20
19600
30
4050
11
2800
21
20900
31
4050
12
2800
22
20900
32
7150
13
2800
23
19600
33
7150
0
3DFACE
8
WALL
10
2900
20
19600
30
4050
11
2900
21
20900
31
4050
12
2900
22
20900
32
7150
13
2900
23
19600
33
7150
0
3DFACE
8
WALL
10
2850
20
18000
30
4050
11
4800
21
18000
31
4050
12
4800
22
18100
32
4050
13
2850
23
18100
33
4050
0
3DFACE
8
WALL
10
2850
20
18000
30
7150
11
4800
21
18000
31
7150
12
4800
22
18100
32
7150
13
2850
23
18100
33
7150
0
3DFACE
8
WALL
10
2850
20
18000
30
4050
11
4800
21
18000
31
4050
12
4800
22
18000
32
7150
13
2850
23
18000
33
7150
0
3DFACE
8
WALL
10
2850
20
18100
30
4050
11
4800
21
18100
31
4050
12
4800
22
18100
32
7150
13
2850
23
18100
33
7150
0
3DFACE
8
WALL
10
2850
20
18000
30
4050
11
2850
21
18100
31
4050
12
2850
22
18100
32
7150
13
2850
23
18000
33
7150
0
3DFACE
8
WALL
10
4800
20
18000
30
4050
11
4800
21
18100
31
4050
12
4800
22
18100
32
7150
13
4800
23
18000
33
7150
0
3DFACE
8
WALL
10
2850
20
20850
30
4050
11
4800
21
20850
31
4050
12
4800
22
20950
32
4050
13
2850
23
20950
33
4050
0
3DFACE
8
WALL
10
2850
20
20850
30
7150
11
4800
21
20850
31
7150
12
4800
22
20950
32
7150
13
2850
23
20950
33
7150
0
3DFACE
8
WALL
10
2850
20
20850
30
4050
11
4800
21
20850
31
4050
12
4800
22
20850
32
7150
13
2850
23
20850
33
7150
0
3DFACE
8
WALL
10
2850
20
20950
30
4050
11
4800
21
20950
31
4050
12
4800
22
20950
32
7150
13
2850
23
20950
33
7150
0
3DFACE
8
WALL
10
2850
20
20850
30
4050
11
2850
21
20950
31
4050
12
2850
22
20950
32
7150
13
2850
23
20850
33
7150
0
3DFACE
8
WALL
10
4800
20
20850
30
4050
11
4800
21
20950
31
4050
12
4800
22
20950
32
7150
13
4800
23
20850
33
7150
0
3DFACE
8
WALL
10
200.00000000000017
20
21150
30
4050
11
3900
21
21150
31
4050
12
3900
22
21250
32
4050
13
200.00000000000017
23
21250
33
4050
0
3DFACE
8
WALL
10
200.00000000000017
20
21150
30
7150
11
3900
21
21150
31
7150
12
3900
22
21250
32
7150
13
200.00000000000017
23
21250
33
7150
0
3DFACE
8
WALL
10
200.00000000000017
20
21150
30
4050
11
3900
21
21150
31
4050
12
3900
22
21150
32
7150
13
200.00000000000017
23
21150
33
7150
0
3DFACE
8
WALL
10
200.00000000000017
20
21250
30
4050
11
3900
21
21250
31
4050
12
3900
22
21250
32
7150
13
200.00000000000017
23
21250
33
7150
0
3DFACE
8
WALL
10
200.00000000000017
20
21150
30
4050
11
200.00000000000017
21
21250
31
4050
12
200.00000000000017
22
21250
32
7150
13
200.00000000000017
23
21150
33
7150
0
3DFACE
8
WALL
10
3900
20
21150
30
4050
11
3900
21
21250
31
4050
12
3900
22
21250
32
7150
13
3900
23
21150
33
7150
0
3DFACE
8
WALL
10
3900
20
21150
30
6250
11
4700
21
21150
31
6250
12
4700
22
21250
32
6250
13
3900
23
21250
33
6250
0
3DFACE
8
WALL
10
3900
20
21150
30
7150
11
4700
21
21150
31
7150
12
4700
22
21250
32
7150
13
3900
23
21250
33
7150
0
3DFACE
8
WALL
10
3900
20
21150
30
6250
11
4700
21
21150
31
6250
12
4700
22
21150
32
7150
13
3900
23
21150
33
7150
0
3DFACE
8
WALL
10
3900
20
21250
30
6250
11
4700
21
21250
31
6250
12
4700
22
21250
32
7150
13
3900
23
21250
33
7150
0
3DFACE
8
WALL
10
3900
20
21150
30
6250
11
3900
21
21250
31
6250
12
3900
22
21250
32
7150
13
3900
23
21150
33
7150
0
3DFACE
8
WALL
10
4700
20
21150
30
6250
11
4700
21
21250
31
6250
12
4700
22
21250
32
7150
13
4700
23
21150
33
7150
0
3DFACE
8
WALL
10
4700
20
21150
30
4050
11
4800
21
21150
31
4050
12
4800
22
21250
32
4050
13
4700
23
21250
33
4050
0
3DFACE
8
WALL
10
4700
20
21150
30
7150
11
4800
21
21150
31
7150
12
4800
22
21250
32
7150
13
4700
23
21250
33
7150
0
3DFACE
8
WALL
10
4700
20
21150
30
4050
11
4800
21
21150
31
4050
12
4800
22
21150
32
7150
13
4700
23
21150
33
7150
0
3DFACE
8
WALL
10
4700
20
21250
30
4050
11
4800
21
21250
31
4050
12
4800
22
21250
32
7150
13
4700
23
21250
33
7150
0
3DFACE
8
WALL
10
4700
20
21150
30
4050
11
4700
21
21250
31
4050
12
4700
22
21250
32
7150
13
4700
23
21150
33
7150
0
3DFACE
8
WALL
10
4800
20
21150
30
4050
11
4800
21
21250
31
4050
12
4800
22
21250
32
7150
13
4800
23
21150
33
7150
0
3DFACE
8
GLASS
10
1200
20
17890
30
7350
11
2750
21
17890
31
7350
12
2750
22
17910
32
7350
13
1200
23
17910
33
7350
0
3DFACE
8
GLASS
10
1200
20
17890
30
8450
11
2750
21
17890
31
8450
12
2750
22
17910
32
8450
13
1200
23
17910
33
8450
0
3DFACE
8
GLASS
10
1200
20
17890
30
7350
11
2750
21
17890
31
7350
12
2750
22
17890
32
8450
13
1200
23
17890
33
8450
0
3DFACE
8
GLASS
10
1200
20
17910
30
7350
11
2750
21
17910
31
7350
12
2750
22
17910
32
8450
13
1200
23
17910
33
8450
0
3DFACE
8
GLASS
10
1200
20
17890
30
7350
11
1200
21
17910
31
7350
12
1200
22
17910
32
8450
13
1200
23
17890
33
8450
0
3DFACE
8
GLASS
10
2750
20
17890
30
7350
11
2750
21
17910
31
7350
12
2750
22
17910
32
8450
13
2750
23
17890
33
8450
0
3DFACE
8
GLASS
10
1200
20
20790
30
7350
11
2750
21
20790
31
7350
12
2750
22
20810
32
7350
13
1200
23
20810
33
7350
0
3DFACE
8
GLASS
10
1200
20
20790
30
8450
11
2750
21
20790
31
8450
12
2750
22
20810
32
8450
13
1200
23
20810
33
8450
0
3DFACE
8
GLASS
10
1200
20
20790
30
7350
11
2750
21
20790
31
7350
12
2750
22
20790
32
8450
13
1200
23
20790
33
8450
0
3DFACE
8
GLASS
10
1200
20
20810
30
7350
11
2750
21
20810
31
7350
12
2750
22
20810
32
8450
13
1200
23
20810
33
8450
0
3DFACE
8
GLASS
10
1200
20
20790
30
7350
11
1200
21
20810
31
7350
12
1200
22
20810
32
8450
13
1200
23
20790
33
8450
0
3DFACE
8
GLASS
10
2750
20
20790
30
7350
11
2750
21
20810
31
7350
12
2750
22
20810
32
8450
13
2750
23
20790
33
8450
0
3DFACE
8
GLASS
10
1190
20
17900
30
7350
11
1210
21
17900
31
7350
12
1210
22
20800
32
7350
13
1190
23
20800
33
7350
0
3DFACE
8
GLASS
10
1190
20
17900
30
8450
11
1210
21
17900
31
8450
12
1210
22
20800
32
8450
13
1190
23
20800
33
8450
0
3DFACE
8
GLASS
10
1190
20
17900
30
7350
11
1210
21
17900
31
7350
12
1210
22
17900
32
8450
13
1190
23
17900
33
8450
0
3DFACE
8
GLASS
10
1190
20
20800
30
7350
11
1210
21
20800
31
7350
12
1210
22
20800
32
8450
13
1190
23
20800
33
8450
0
3DFACE
8
GLASS
10
1190
20
17900
30
7350
11
1190
21
20800
31
7350
12
1190
22
20800
32
8450
13
1190
23
17900
33
8450
0
3DFACE
8
GLASS
10
1210
20
17900
30
7350
11
1210
21
20800
31
7350
12
1210
22
20800
32
8450
13
1210
23
17900
33
8450
0
3DFACE
8
GLASS
10
2740
20
17900
30
7350
11
2760
21
17900
31
7350
12
2760
22
20800
32
7350
13
2740
23
20800
33
7350
0
3DFACE
8
GLASS
10
2740
20
17900
30
8450
11
2760
21
17900
31
8450
12
2760
22
20800
32
8450
13
2740
23
20800
33
8450
0
3DFACE
8
GLASS
10
2740
20
17900
30
7350
11
2760
21
17900
31
7350
12
2760
22
17900
32
8450
13
2740
23
17900
33
8450
0
3DFACE
8
GLASS
10
2740
20
20800
30
7350
11
2760
21
20800
31
7350
12
2760
22
20800
32
8450
13
2740
23
20800
33
8450
0
3DFACE
8
GLASS
10
2740
20
17900
30
7350
11
2740
21
20800
31
7350
12
2740
22
20800
32
8450
13
2740
23
17900
33
8450
0
3DFACE
8
GLASS
10
2760
20
17900
30
7350
11
2760
21
20800
31
7350
12
2760
22
20800
32
8450
13
2760
23
17900
33
8450
0
3DFACE
8
WALL
10
200.00000000000017
20
17150
30
7350
11
3900
21
17150
31
7350
12
3900
22
17250
32
7350
13
200.00000000000017
23
17250
33
7350
0
3DFACE
8
WALL
10
200.00000000000017
20
17150
30
10150
11
3900
21
17150
31
10150
12
3900
22
17250
32
10150
13
200.00000000000017
23
17250
33
10150
0
3DFACE
8
WALL
10
200.00000000000017
20
17150
30
7350
11
3900
21
17150
31
7350
12
3900
22
17150
32
10150
13
200.00000000000017
23
17150
33
10150
0
3DFACE
8
WALL
10
200.00000000000017
20
17250
30
7350
11
3900
21
17250
31
7350
12
3900
22
17250
32
10150
13
200.00000000000017
23
17250
33
10150
0
3DFACE
8
WALL
10
200.00000000000017
20
17150
30
7350
11
200.00000000000017
21
17250
31
7350
12
200.00000000000017
22
17250
32
10150
13
200.00000000000017
23
17150
33
10150
0
3DFACE
8
WALL
10
3900
20
17150
30
7350
11
3900
21
17250
31
7350
12
3900
22
17250
32
10150
13
3900
23
17150
33
10150
0
3DFACE
8
WALL
10
3900
20
17150
30
9550
11
4700
21
17150
31
9550
12
4700
22
17250
32
9550
13
3900
23
17250
33
9550
0
3DFACE
8
WALL
10
3900
20
17150
30
10150
11
4700
21
17150
31
10150
12
4700
22
17250
32
10150
13
3900
23
17250
33
10150
0
3DFACE
8
WALL
10
3900
20
17150
30
9550
11
4700
21
17150
31
9550
12
4700
22
17150
32
10150
13
3900
23
17150
33
10150
0
3DFACE
8
WALL
10
3900
20
17250
30
9550
11
4700
21
17250
31
9550
12
4700
22
17250
32
10150
13
3900
23
17250
33
10150
0
3DFACE
8
WALL
10
3900
20
17150
30
9550
11
3900
21
17250
31
9550
12
3900
22
17250
32
10150
13
3900
23
17150
33
10150
0
3DFACE
8
WALL
10
4700
20
17150
30
9550
11
4700
21
17250
31
9550
12
4700
22
17250
32
10150
13
4700
23
17150
33
10150
0
3DFACE
8
WALL
10
4700
20
17150
30
7350
11
4800
21
17150
31
7350
12
4800
22
17250
32
7350
13
4700
23
17250
33
7350
0
3DFACE
8
WALL
10
4700
20
17150
30
10150
11
4800
21
17150
31
10150
12
4800
22
17250
32
10150
13
4700
23
17250
33
10150
0
3DFACE
8
WALL
10
4700
20
17150
30
7350
11
4800
21
17150
31
7350
12
4800
22
17150
32
10150
13
4700
23
17150
33
10150
0
3DFACE
8
WALL
10
4700
20
17250
30
7350
11
4800
21
17250
31
7350
12
4800
22
17250
32
10150
13
4700
23
17250
33
10150
0
3DFACE
8
WALL
10
4700
20
17150
30
7350
11
4700
21
17250
31
7350
12
4700
22
17250
32
10150
13
4700
23
17150
33
10150
0
3DFACE
8
WALL
10
4800
20
17150
30
7350
11
4800
21
17250
31
7350
12
4800
22
17250
32
10150
13
4800
23
17150
33
10150
0
3DFACE
8
WALL
10
200.00000000000017
20
21000
30
7350
11
3900
21
21000
31
7350
12
3900
22
21200
32
7350
13
200.00000000000017
23
21200
33
7350
0
3DFACE
8
WALL
10
200.00000000000017
20
21000
30
10150
11
3900
21
21000
31
10150
12
3900
22
21200
32
10150
13
200.00000000000017
23
21200
33
10150
0
3DFACE
8
WALL
10
200.00000000000017
20
21000
30
7350
11
3900
21
21000
31
7350
12
3900
22
21000
32
10150
13
200.00000000000017
23
21000
33
10150
0
3DFACE
8
WALL
10
200.00000000000017
20
21200
30
7350
11
3900
21
21200
31
7350
12
3900
22
21200
32
10150
13
200.00000000000017
23
21200
33
10150
0
3DFACE
8
WALL
10
200.00000000000017
20
21000
30
7350
11
200.00000000000017
21
21200
31
7350
12
200.00000000000017
22
21200
32
10150
13
200.00000000000017
23
21000
33
10150
0
3DFACE
8
WALL
10
3900
20
21000
30
7350
11
3900
21
21200
31
7350
12
3900
22
21200
32
10150
13
3900
23
21000
33
10150
0
3DFACE
8
WALL
10
3900
20
21000
30
9550
11
4800
21
21000
31
9550
12
4800
22
21200
32
9550
13
3900
23
21200
33
9550
0
3DFACE
8
WALL
10
3900
20
21000
30
10150
11
4800
21
21000
31
10150
12
4800
22
21200
32
10150
13
3900
23
21200
33
10150
0
3DFACE
8
WALL
10
3900
20
21000
30
9550
11
4800
21
21000
31
9550
12
4800
22
21000
32
10150
13
3900
23
21000
33
10150
0
3DFACE
8
WALL
10
3900
20
21200
30
9550
11
4800
21
21200
31
9550
12
4800
22
21200
32
10150
13
3900
23
21200
33
10150
0
3DFACE
8
WALL
10
3900
20
21000
30
9550
11
3900
21
21200
31
9550
12
3900
22
21200
32
10150
13
3900
23
21000
33
10150
0
3DFACE
8
WALL
10
4800
20
21000
30
9550
11
4800
21
21200
31
9550
12
4800
22
21200
32
10150
13
4800
23
21000
33
10150
0
3DFACE
8
STAIR
10
200.00000000000017
20
17600
30
450
11
700
21
17600
31
450
12
700
22
17860
32
450
13
200.00000000000017
23
17860
33
450
0
3DFACE
8
STAIR
10
200.00000000000017
20
17600
30
613.6363636363636
11
700
21
17600
31
613.6363636363636
12
700
22
17860
32
613.6363636363636
13
200.00000000000017
23
17860
33
613.6363636363636
0
3DFACE
8
STAIR
10
200.00000000000017
20
17600
30
450
11
700
21
17600
31
450
12
700
22
17600
32
613.6363636363636
13
200.00000000000017
23
17600
33
613.6363636363636
0
3DFACE
8
STAIR
10
200.00000000000017
20
17860
30
450
11
700
21
17860
31
450
12
700
22
17860
32
613.6363636363636
13
200.00000000000017
23
17860
33
613.6363636363636
0
3DFACE
8
STAIR
10
200.00000000000017
20
17600
30
450
11
200.00000000000017
21
17860
31
450
12
200.00000000000017
22
17860
32
613.6363636363636
13
200.00000000000017
23
17600
33
613.6363636363636
0
3DFACE
8
STAIR
10
700
20
17600
30
450
11
700
21
17860
31
450
12
700
22
17860
32
613.6363636363636
13
700
23
17600
33
613.6363636363636
0
3DFACE
8
STAIR
10
700
20
20200
30
450
11
1200
21
20200
31
450
12
1200
22
20460
32
450
13
700
23
20460
33
450
0
3DFACE
8
STAIR
10
700
20
20200
30
2413.6363636363635
11
1200
21
20200
31
2413.6363636363635
12
1200
22
20460
32
2413.6363636363635
13
700
23
20460
33
2413.6363636363635
0
3DFACE
8
STAIR
10
700
20
20200
30
450
11
1200
21
20200
31
450
12
1200
22
20200
32
2413.6363636363635
13
700
23
20200
33
2413.6363636363635
0
3DFACE
8
STAIR
10
700
20
20460
30
450
11
1200
21
20460
31
450
12
1200
22
20460
32
2413.6363636363635
13
700
23
20460
33
2413.6363636363635
0
3DFACE
8
STAIR
10
700
20
20200
30
450
11
700
21
20460
31
450
12
700
22
20460
32
2413.6363636363635
13
700
23
20200
33
2413.6363636363635
0
3DFACE
8
STAIR
10
1200
20
20200
30
450
11
1200
21
20460
31
450
12
1200
22
20460
32
2413.6363636363635
13
1200
23
20200
33
2413.6363636363635
0
3DFACE
8
STAIR
10
200.00000000000017
20
17860
30
450
11
700
21
17860
31
450
12
700
22
18120
32
450
13
200.00000000000017
23
18120
33
450
0
3DFACE
8
STAIR
10
200.00000000000017
20
17860
30
777.2727272727273
11
700
21
17860
31
777.2727272727273
12
700
22
18120
32
777.2727272727273
13
200.00000000000017
23
18120
33
777.2727272727273
0
3DFACE
8
STAIR
10
200.00000000000017
20
17860
30
450
11
700
21
17860
31
450
12
700
22
17860
32
777.2727272727273
13
200.00000000000017
23
17860
33
777.2727272727273
0
3DFACE
8
STAIR
10
200.00000000000017
20
18120
30
450
11
700
21
18120
31
450
12
700
22
18120
32
777.2727272727273
13
200.00000000000017
23
18120
33
777.2727272727273
0
3DFACE
8
STAIR
10
200.00000000000017
20
17860
30
450
11
200.00000000000017
21
18120
31
450
12
200.00000000000017
22
18120
32
777.2727272727273
13
200.00000000000017
23
17860
33
777.2727272727273
0
3DFACE
8
STAIR
10
700
20
17860
30
450
11
700
21
18120
31
450
12
700
22
18120
32
777.2727272727273
13
700
23
17860
33
777.2727272727273
0
3DFACE
8
STAIR
10
700
20
19940
30
450
11
1200
21
19940
31
450
12
1200
22
20200
32
450
13
700
23
20200
33
450
0
3DFACE
8
STAIR
10
700
20
19940
30
2577.272727272727
11
1200
21
19940
31
2577.272727272727
12
1200
22
20200
32
2577.272727272727
13
700
23
20200
33
2577.272727272727
0
3DFACE
8
STAIR
10
700
20
19940
30
450
11
1200
21
19940
31
450
12
1200
22
19940
32
2577.272727272727
13
700
23
19940
33
2577.272727272727
0
3DFACE
8
STAIR
10
700
20
20200
30
450
11
1200
21
20200
31
450
12
1200
22
20200
32
2577.272727272727
13
700
23
20200
33
2577.272727272727
0
3DFACE
8
STAIR
10
700
20
19940
30
450
11
700
21
20200
31
450
12
700
22
20200
32
2577.272727272727
13
700
23
19940
33
2577.272727272727
0
3DFACE
8
STAIR
10
1200
20
19940
30
450
11
1200
21
20200
31
450
12
1200
22
20200
32
2577.272727272727
13
1200
23
19940
33
2577.272727272727
0
3DFACE
8
STAIR
10
200.00000000000017
20
18120
30
450
11
700
21
18120
31
450
12
700
22
18380
32
450
13
200.00000000000017
23
18380
33
450
0
3DFACE
8
STAIR
10
200.00000000000017
20
18120
30
940.9090909090909
11
700
21
18120
31
940.9090909090909
12
700
22
18380
32
940.9090909090909
13
200.00000000000017
23
18380
33
940.9090909090909
0
3DFACE
8
STAIR
10
200.00000000000017
20
18120
30
450
11
700
21
18120
31
450
12
700
22
18120
32
940.9090909090909
13
200.00000000000017
23
18120
33
940.9090909090909
0
3DFACE
8
STAIR
10
200.00000000000017
20
18380
30
450
11
700
21
18380
31
450
12
700
22
18380
32
940.9090909090909
13
200.00000000000017
23
18380
33
940.9090909090909
0
3DFACE
8
STAIR
10
200.00000000000017
20
18120
30
450
11
200.00000000000017
21
18380
31
450
12
200.00000000000017
22
18380
32
940.9090909090909
13
200.00000000000017
23
18120
33
940.9090909090909
0
3DFACE
8
STAIR
10
700
20
18120
30
450
11
700
21
18380
31
450
12
700
22
18380
32
940.9090909090909
13
700
23
18120
33
940.9090909090909
0
3DFACE
8
STAIR
10
700
20
19680
30
450
11
1200
21
19680
31
450
12
1200
22
19940
32
450
13
700
23
19940
33
450
0
3DFACE
8
STAIR
10
700
20
19680
30
2740.909090909091
11
1200
21
19680
31
2740.909090909091
12
1200
22
19940
32
2740.909090909091
13
700
23
19940
33
2740.909090909091
0
3DFACE
8
STAIR
10
700
20
19680
30
450
11
1200
21
19680
31
450
12
1200
22
19680
32
2740.909090909091
13
700
23
19680
33
2740.909090909091
0
3DFACE
8
STAIR
10
700
20
19940
30
450
11
1200
21
19940
31
450
12
1200
22
19940
32
2740.909090909091
13
700
23
19940
33
2740.909090909091
0
3DFACE
8
STAIR
10
700
20
19680
30
450
11
700
21
19940
31
450
12
700
22
19940
32
2740.909090909091
13
700
23
19680
33
2740.909090909091
0
3DFACE
8
STAIR
10
1200
20
19680
30
450
11
1200
21
19940
31
450
12
1200
22
19940
32
2740.909090909091
13
1200
23
19680
33
2740.909090909091
0
3DFACE
8
STAIR
10
200.00000000000017
20
18380
30
450
11
700
21
18380
31
450
12
700
22
18640
32
450
13
200.00000000000017
23
18640
33
450
0
3DFACE
8
STAIR
10
200.00000000000017
20
18380
30
1104.5454545454545
11
700
21
18380
31
1104.5454545454545
12
700
22
18640
32
1104.5454545454545
13
200.00000000000017
23
18640
33
1104.5454545454545
0
3DFACE
8
STAIR
10
200.00000000000017
20
18380
30
450
11
700
21
18380
31
450
12
700
22
18380
32
1104.5454545454545
13
200.00000000000017
23
18380
33
1104.5454545454545
0
3DFACE
8
STAIR
10
200.00000000000017
20
18640
30
450
11
700
21
18640
31
450
12
700
22
18640
32
1104.5454545454545
13
200.00000000000017
23
18640
33
1104.5454545454545
0
3DFACE
8
STAIR
10
200.00000000000017
20
18380
30
450
11
200.00000000000017
21
18640
31
450
12
200.00000000000017
22
18640
32
1104.5454545454545
13
200.00000000000017
23
18380
33
1104.5454545454545
0
3DFACE
8
STAIR
10
700
20
18380
30
450
11
700
21
18640
31
450
12
700
22
18640
32
1104.5454545454545
13
700
23
18380
33
1104.5454545454545
0
3DFACE
8
STAIR
10
700
20
19420
30
450
11
1200
21
19420
31
450
12
1200
22
19680
32
450
13
700
23
19680
33
450
0
3DFACE
8
STAIR
10
700
20
19420
30
2904.5454545454545
11
1200
21
19420
31
2904.5454545454545
12
1200
22
19680
32
2904.5454545454545
13
700
23
19680
33
2904.5454545454545
0
3DFACE
8
STAIR
10
700
20
19420
30
450
11
1200
21
19420
31
450
12
1200
22
19420
32
2904.5454545454545
13
700
23
19420
33
2904.5454545454545
0
3DFACE
8
STAIR
10
700
20
19680
30
450
11
1200
21
19680
31
450
12
1200
22
19680
32
2904.5454545454545
13
700
23
19680
33
2904.5454545454545
0
3DFACE
8
STAIR
10
700
20
19420
30
450
11
700
21
19680
31
450
12
700
22
19680
32
2904.5454545454545
13
700
23
19420
33
2904.5454545454545
0
3DFACE
8
STAIR
10
1200
20
19420
30
450
11
1200
21
19680
31
450
12
1200
22
19680
32
2904.5454545454545
13
1200
23
19420
33
2904.5454545454545
0
3DFACE
8
STAIR
10
200.00000000000017
20
18640
30
450
11
700
21
18640
31
450
12
700
22
18900
32
450
13
200.00000000000017
23
18900
33
450
0
3DFACE
8
STAIR
10
200.00000000000017
20
18640
30
1268.181818181818
11
700
21
18640
31
1268.181818181818
12
700
22
18900
32
1268.181818181818
13
200.00000000000017
23
18900
33
1268.181818181818
0
3DFACE
8
STAIR
10
200.00000000000017
20
18640
30
450
11
700
21
18640
31
450
12
700
22
18640
32
1268.181818181818
13
200.00000000000017
23
18640
33
1268.181818181818
0
3DFACE
8
STAIR
10
200.00000000000017
20
18900
30
450
11
700
21
18900
31
450
12
700
22
18900
32
1268.181818181818
13
200.00000000000017
23
18900
33
1268.181818181818
0
3DFACE
8
STAIR
10
200.00000000000017
20
18640
30
450
11
200.00000000000017
21
18900
31
450
12
200.00000000000017
22
18900
32
1268.181818181818
13
200.00000000000017
23
18640
33
1268.181818181818
0
3DFACE
8
STAIR
10
700
20
18640
30
450
11
700
21
18900
31
450
12
700
22
18900
32
1268.181818181818
13
700
23
18640
33
1268.181818181818
0
3DFACE
8
STAIR
10
700
20
19160
30
450
11
1200
21
19160
31
450
12
1200
22
19420
32
450
13
700
23
19420
33
450
0
3DFACE
8
STAIR
10
700
20
19160
30
3068.181818181818
11
1200
21
19160
31
3068.181818181818
12
1200
22
19420
32
3068.181818181818
13
700
23
19420
33
3068.181818181818
0
3DFACE
8
STAIR
10
700
20
19160
30
450
11
1200
21
19160
31
450
12
1200
22
19160
32
3068.181818181818
13
700
23
19160
33
3068.181818181818
0
3DFACE
8
STAIR
10
700
20
19420
30
450
11
1200
21
19420
31
450
12
1200
22
19420
32
3068.181818181818
13
700
23
19420
33
3068.181818181818
0
3DFACE
8
STAIR
10
700
20
19160
30
450
11
700
21
19420
31
450
12
700
22
19420
32
3068.181818181818
13
700
23
19160
33
3068.181818181818
0
3DFACE
8
STAIR
10
1200
20
19160
30
450
11
1200
21
19420
31
450
12
1200
22
19420
32
3068.181818181818
13
1200
23
19160
33
3068.181818181818
0
3DFACE
8
STAIR
10
200.00000000000017
20
18900
30
450
11
700
21
18900
31
450
12
700
22
19160
32
450
13
200.00000000000017
23
19160
33
450
0
3DFACE
8
STAIR
10
200.00000000000017
20
18900
30
1431.8181818181818
11
700
21
18900
31
1431.8181818181818
12
700
22
19160
32
1431.8181818181818
13
200.00000000000017
23
19160
33
1431.8181818181818
0
3DFACE
8
STAIR
10
200.00000000000017
20
18900
30
450
11
700
21
18900
31
450
12
700
22
18900
32
1431.8181818181818
13
200.00000000000017
23
18900
33
1431.8181818181818
0
3DFACE
8
STAIR
10
200.00000000000017
20
19160
30
450
11
700
21
19160
31
450
12
700
22
19160
32
1431.8181818181818
13
200.00000000000017
23
19160
33
1431.8181818181818
0
3DFACE
8
STAIR
10
200.00000000000017
20
18900
30
450
11
200.00000000000017
21
19160
31
450
12
200.00000000000017
22
19160
32
1431.8181818181818
13
200.00000000000017
23
18900
33
1431.8181818181818
0
3DFACE
8
STAIR
10
700
20
18900
30
450
11
700
21
19160
31
450
12
700
22
19160
32
1431.8181818181818
13
700
23
18900
33
1431.8181818181818
0
3DFACE
8
STAIR
10
700
20
18900
30
450
11
1200
21
18900
31
450
12
1200
22
19160
32
450
13
700
23
19160
33
450
0
3DFACE
8
STAIR
10
700
20
18900
30
3231.8181818181815
11
1200
21
18900
31
3231.8181818181815
12
1200
22
19160
32
3231.8181818181815
13
700
23
19160
33
3231.8181818181815
0
3DFACE
8
STAIR
10
700
20
18900
30
450
11
1200
21
18900
31
450
12
1200
22
18900
32
3231.8181818181815
13
700
23
18900
33
3231.8181818181815
0
3DFACE
8
STAIR
10
700
20
19160
30
450
11
1200
21
19160
31
450
12
1200
22
19160
32
3231.8181818181815
13
700
23
19160
33
3231.8181818181815
0
3DFACE
8
STAIR
10
700
20
18900
30
450
11
700
21
19160
31
450
12
700
22
19160
32
3231.8181818181815
13
700
23
18900
33
3231.8181818181815
0
3DFACE
8
STAIR
10
1200
20
18900
30
450
11
1200
21
19160
31
450
12
1200
22
19160
32
3231.8181818181815
13
1200
23
18900
33
3231.8181818181815
0
3DFACE
8
STAIR
10
200.00000000000017
20
19160
30
450
11
700
21
19160
31
450
12
700
22
19420
32
450
13
200.00000000000017
23
19420
33
450
0
3DFACE
8
STAIR
10
200.00000000000017
20
19160
30
1595.4545454545455
11
700
21
19160
31
1595.4545454545455
12
700
22
19420
32
1595.4545454545455
13
200.00000000000017
23
19420
33
1595.4545454545455
0
3DFACE
8
STAIR
10
200.00000000000017
20
19160
30
450
11
700
21
19160
31
450
12
700
22
19160
32
1595.4545454545455
13
200.00000000000017
23
19160
33
1595.4545454545455
0
3DFACE
8
STAIR
10
200.00000000000017
20
19420
30
450
11
700
21
19420
31
450
12
700
22
19420
32
1595.4545454545455
13
200.00000000000017
23
19420
33
1595.4545454545455
0
3DFACE
8
STAIR
10
200.00000000000017
20
19160
30
450
11
200.00000000000017
21
19420
31
450
12
200.00000000000017
22
19420
32
1595.4545454545455
13
200.00000000000017
23
19160
33
1595.4545454545455
0
3DFACE
8
STAIR
10
700
20
19160
30
450
11
700
21
19420
31
450
12
700
22
19420
32
1595.4545454545455
13
700
23
19160
33
1595.4545454545455
0
3DFACE
8
STAIR
10
700
20
18640
30
450
11
1200
21
18640
31
450
12
1200
22
18900
32
450
13
700
23
18900
33
450
0
3DFACE
8
STAIR
10
700
20
18640
30
3395.454545454545
11
1200
21
18640
31
3395.454545454545
12
1200
22
18900
32
3395.454545454545
13
700
23
18900
33
3395.454545454545
0
3DFACE
8
STAIR
10
700
20
18640
30
450
11
1200
21
18640
31
450
12
1200
22
18640
32
3395.454545454545
13
700
23
18640
33
3395.454545454545
0
3DFACE
8
STAIR
10
700
20
18900
30
450
11
1200
21
18900
31
450
12
1200
22
18900
32
3395.454545454545
13
700
23
18900
33
3395.454545454545
0
3DFACE
8
STAIR
10
700
20
18640
30
450
11
700
21
18900
31
450
12
700
22
18900
32
3395.454545454545
13
700
23
18640
33
3395.454545454545
0
3DFACE
8
STAIR
10
1200
20
18640
30
450
11
1200
21
18900
31
450
12
1200
22
18900
32
3395.454545454545
13
1200
23
18640
33
3395.454545454545
0
3DFACE
8
STAIR
10
200.00000000000017
20
19420
30
450
11
700
21
19420
31
450
12
700
22
19680
32
450
13
200.00000000000017
23
19680
33
450
0
3DFACE
8
STAIR
10
200.00000000000017
20
19420
30
1759.090909090909
11
700
21
19420
31
1759.090909090909
12
700
22
19680
32
1759.090909090909
13
200.00000000000017
23
19680
33
1759.090909090909
0
3DFACE
8
STAIR
10
200.00000000000017
20
19420
30
450
11
700
21
19420
31
450
12
700
22
19420
32
1759.090909090909
13
200.00000000000017
23
19420
33
1759.090909090909
0
3DFACE
8
STAIR
10
200.00000000000017
20
19680
30
450
11
700
21
19680
31
450
12
700
22
19680
32
1759.090909090909
13
200.00000000000017
23
19680
33
1759.090909090909
0
3DFACE
8
STAIR
10
200.00000000000017
20
19420
30
450
11
200.00000000000017
21
19680
31
450
12
200.00000000000017
22
19680
32
1759.090909090909
13
200.00000000000017
23
19420
33
1759.090909090909
0
3DFACE
8
STAIR
10
700
20
19420
30
450
11
700
21
19680
31
450
12
700
22
19680
32
1759.090909090909
13
700
23
19420
33
1759.090909090909
0
3DFACE
8
STAIR
10
700
20
18380
30
450
11
1200
21
18380
31
450
12
1200
22
18640
32
450
13
700
23
18640
33
450
0
3DFACE
8
STAIR
10
700
20
18380
30
3559.090909090909
11
1200
21
18380
31
3559.090909090909
12
1200
22
18640
32
3559.090909090909
13
700
23
18640
33
3559.090909090909
0
3DFACE
8
STAIR
10
700
20
18380
30
450
11
1200
21
18380
31
450
12
1200
22
18380
32
3559.090909090909
13
700
23
18380
33
3559.090909090909
0
3DFACE
8
STAIR
10
700
20
18640
30
450
11
1200
21
18640
31
450
12
1200
22
18640
32
3559.090909090909
13
700
23
18640
33
3559.090909090909
0
3DFACE
8
STAIR
10
700
20
18380
30
450
11
700
21
18640
31
450
12
700
22
18640
32
3559.090909090909
13
700
23
18380
33
3559.090909090909
0
3DFACE
8
STAIR
10
1200
20
18380
30
450
11
1200
21
18640
31
450
12
1200
22
18640
32
3559.090909090909
13
1200
23
18380
33
3559.090909090909
0
3DFACE
8
STAIR
10
200.00000000000017
20
19680
30
450
11
700
21
19680
31
450
12
700
22
19940
32
450
13
200.00000000000017
23
19940
33
450
0
3DFACE
8
STAIR
10
200.00000000000017
20
19680
30
1922.7272727272725
11
700
21
19680
31
1922.7272727272725
12
700
22
19940
32
1922.7272727272725
13
200.00000000000017
23
19940
33
1922.7272727272725
0
3DFACE
8
STAIR
10
200.00000000000017
20
19680
30
450
11
700
21
19680
31
450
12
700
22
19680
32
1922.7272727272725
13
200.00000000000017
23
19680
33
1922.7272727272725
0
3DFACE
8
STAIR
10
200.00000000000017
20
19940
30
450
11
700
21
19940
31
450
12
700
22
19940
32
1922.7272727272725
13
200.00000000000017
23
19940
33
1922.7272727272725
0
3DFACE
8
STAIR
10
200.00000000000017
20
19680
30
450
11
200.00000000000017
21
19940
31
450
12
200.00000000000017
22
19940
32
1922.7272727272725
13
200.00000000000017
23
19680
33
1922.7272727272725
0
3DFACE
8
STAIR
10
700
20
19680
30
450
11
700
21
19940
31
450
12
700
22
19940
32
1922.7272727272725
13
700
23
19680
33
1922.7272727272725
0
3DFACE
8
STAIR
10
700
20
18120
30
450
11
1200
21
18120
31
450
12
1200
22
18380
32
450
13
700
23
18380
33
450
0
3DFACE
8
STAIR
10
700
20
18120
30
3722.7272727272725
11
1200
21
18120
31
3722.7272727272725
12
1200
22
18380
32
3722.7272727272725
13
700
23
18380
33
3722.7272727272725
0
3DFACE
8
STAIR
10
700
20
18120
30
450
11
1200
21
18120
31
450
12
1200
22
18120
32
3722.7272727272725
13
700
23
18120
33
3722.7272727272725
0
3DFACE
8
STAIR
10
700
20
18380
30
450
11
1200
21
18380
31
450
12
1200
22
18380
32
3722.7272727272725
13
700
23
18380
33
3722.7272727272725
0
3DFACE
8
STAIR
10
700
20
18120
30
450
11
700
21
18380
31
450
12
700
22
18380
32
3722.7272727272725
13
700
23
18120
33
3722.7272727272725
0
3DFACE
8
STAIR
10
1200
20
18120
30
450
11
1200
21
18380
31
450
12
1200
22
18380
32
3722.7272727272725
13
1200
23
18120
33
3722.7272727272725
0
3DFACE
8
STAIR
10
200.00000000000017
20
19940
30
450
11
700
21
19940
31
450
12
700
22
20200
32
450
13
200.00000000000017
23
20200
33
450
0
3DFACE
8
STAIR
10
200.00000000000017
20
19940
30
2086.363636363636
11
700
21
19940
31
2086.363636363636
12
700
22
20200
32
2086.363636363636
13
200.00000000000017
23
20200
33
2086.363636363636
0
3DFACE
8
STAIR
10
200.00000000000017
20
19940
30
450
11
700
21
19940
31
450
12
700
22
19940
32
2086.363636363636
13
200.00000000000017
23
19940
33
2086.363636363636
0
3DFACE
8
STAIR
10
200.00000000000017
20
20200
30
450
11
700
21
20200
31
450
12
700
22
20200
32
2086.363636363636
13
200.00000000000017
23
20200
33
2086.363636363636
0
3DFACE
8
STAIR
10
200.00000000000017
20
19940
30
450
11
200.00000000000017
21
20200
31
450
12
200.00000000000017
22
20200
32
2086.363636363636
13
200.00000000000017
23
19940
33
2086.363636363636
0
3DFACE
8
STAIR
10
700
20
19940
30
450
11
700
21
20200
31
450
12
700
22
20200
32
2086.363636363636
13
700
23
19940
33
2086.363636363636
0
3DFACE
8
STAIR
10
700
20
17860
30
450
11
1200
21
17860
31
450
12
1200
22
18120
32
450
13
700
23
18120
33
450
0
3DFACE
8
STAIR
10
700
20
17860
30
3886.363636363636
11
1200
21
17860
31
3886.363636363636
12
1200
22
18120
32
3886.363636363636
13
700
23
18120
33
3886.363636363636
0
3DFACE
8
STAIR
10
700
20
17860
30
450
11
1200
21
17860
31
450
12
1200
22
17860
32
3886.363636363636
13
700
23
17860
33
3886.363636363636
0
3DFACE
8
STAIR
10
700
20
18120
30
450
11
1200
21
18120
31
450
12
1200
22
18120
32
3886.363636363636
13
700
23
18120
33
3886.363636363636
0
3DFACE
8
STAIR
10
700
20
17860
30
450
11
700
21
18120
31
450
12
700
22
18120
32
3886.363636363636
13
700
23
17860
33
3886.363636363636
0
3DFACE
8
STAIR
10
1200
20
17860
30
450
11
1200
21
18120
31
450
12
1200
22
18120
32
3886.363636363636
13
1200
23
17860
33
3886.363636363636
0
3DFACE
8
STAIR
10
200.00000000000017
20
20200
30
450
11
700
21
20200
31
450
12
700
22
20460
32
450
13
200.00000000000017
23
20460
33
450
0
3DFACE
8
STAIR
10
200.00000000000017
20
20200
30
2250
11
700
21
20200
31
2250
12
700
22
20460
32
2250
13
200.00000000000017
23
20460
33
2250
0
3DFACE
8
STAIR
10
200.00000000000017
20
20200
30
450
11
700
21
20200
31
450
12
700
22
20200
32
2250
13
200.00000000000017
23
20200
33
2250
0
3DFACE
8
STAIR
10
200.00000000000017
20
20460
30
450
11
700
21
20460
31
450
12
700
22
20460
32
2250
13
200.00000000000017
23
20460
33
2250
0
3DFACE
8
STAIR
10
200.00000000000017
20
20200
30
450
11
200.00000000000017
21
20460
31
450
12
200.00000000000017
22
20460
32
2250
13
200.00000000000017
23
20200
33
2250
0
3DFACE
8
STAIR
10
700
20
20200
30
450
11
700
21
20460
31
450
12
700
22
20460
32
2250
13
700
23
20200
33
2250
0
3DFACE
8
STAIR
10
700
20
17600
30
450
11
1200
21
17600
31
450
12
1200
22
17860
32
450
13
700
23
17860
33
450
0
3DFACE
8
STAIR
10
700
20
17600
30
4050
11
1200
21
17600
31
4050
12
1200
22
17860
32
4050
13
700
23
17860
33
4050
0
3DFACE
8
STAIR
10
700
20
17600
30
450
11
1200
21
17600
31
450
12
1200
22
17600
32
4050
13
700
23
17600
33
4050
0
3DFACE
8
STAIR
10
700
20
17860
30
450
11
1200
21
17860
31
450
12
1200
22
17860
32
4050
13
700
23
17860
33
4050
0
3DFACE
8
STAIR
10
700
20
17600
30
450
11
700
21
17860
31
450
12
700
22
17860
32
4050
13
700
23
17600
33
4050
0
3DFACE
8
STAIR
10
1200
20
17600
30
450
11
1200
21
17860
31
450
12
1200
22
17860
32
4050
13
1200
23
17600
33
4050
0
3DFACE
8
STAIR
10
200.00000000000017
20
20460
30
2100
11
1200
21
20460
31
2100
12
1200
22
21200
32
2100
13
200.00000000000017
23
21200
33
2100
0
3DFACE
8
STAIR
10
200.00000000000017
20
20460
30
2250
11
1200
21
20460
31
2250
12
1200
22
21200
32
2250
13
200.00000000000017
23
21200
33
2250
0
3DFACE
8
STAIR
10
200.00000000000017
20
20460
30
2100
11
1200
21
20460
31
2100
12
1200
22
20460
32
2250
13
200.00000000000017
23
20460
33
2250
0
3DFACE
8
STAIR
10
200.00000000000017
20
21200
30
2100
11
1200
21
21200
31
2100
12
1200
22
21200
32
2250
13
200.00000000000017
23
21200
33
2250
0
3DFACE
8
STAIR
10
200.00000000000017
20
20460
30
2100
11
200.00000000000017
21
21200
31
2100
12
200.00000000000017
22
21200
32
2250
13
200.00000000000017
23
20460
33
2250
0
3DFACE
8
STAIR
10
1200
20
20460
30
2100
11
1200
21
21200
31
2100
12
1200
22
21200
32
2250
13
1200
23
20460
33
2250
0
3DFACE
8
STAIR
10
200.00000000000017
20
17600
30
4050
11
700
21
17600
31
4050
12
700
22
17860
32
4050
13
200.00000000000017
23
17860
33
4050
0
3DFACE
8
STAIR
10
200.00000000000017
20
17600
30
4200
11
700
21
17600
31
4200
12
700
22
17860
32
4200
13
200.00000000000017
23
17860
33
4200
0
3DFACE
8
STAIR
10
200.00000000000017
20
17600
30
4050
11
700
21
17600
31
4050
12
700
22
17600
32
4200
13
200.00000000000017
23
17600
33
4200
0
3DFACE
8
STAIR
10
200.00000000000017
20
17860
30
4050
11
700
21
17860
31
4050
12
700
22
17860
32
4200
13
200.00000000000017
23
17860
33
4200
0
3DFACE
8
STAIR
10
200.00000000000017
20
17600
30
4050
11
200.00000000000017
21
17860
31
4050
12
200.00000000000017
22
17860
32
4200
13
200.00000000000017
23
17600
33
4200
0
3DFACE
8
STAIR
10
700
20
17600
30
4050
11
700
21
17860
31
4050
12
700
22
17860
32
4200
13
700
23
17600
33
4200
0
3DFACE
8
STAIR
10
700
20
20200
30
4050
11
1200
21
20200
31
4050
12
1200
22
20460
32
4050
13
700
23
20460
33
4050
0
3DFACE
8
STAIR
10
700
20
20200
30
5850
11
1200
21
20200
31
5850
12
1200
22
20460
32
5850
13
700
23
20460
33
5850
0
3DFACE
8
STAIR
10
700
20
20200
30
4050
11
1200
21
20200
31
4050
12
1200
22
20200
32
5850
13
700
23
20200
33
5850
0
3DFACE
8
STAIR
10
700
20
20460
30
4050
11
1200
21
20460
31
4050
12
1200
22
20460
32
5850
13
700
23
20460
33
5850
0
3DFACE
8
STAIR
10
700
20
20200
30
4050
11
700
21
20460
31
4050
12
700
22
20460
32
5850
13
700
23
20200
33
5850
0
3DFACE
8
STAIR
10
1200
20
20200
30
4050
11
1200
21
20460
31
4050
12
1200
22
20460
32
5850
13
1200
23
20200
33
5850
0
3DFACE
8
STAIR
10
200.00000000000017
20
17860
30
4050
11
700
21
17860
31
4050
12
700
22
18120
32
4050
13
200.00000000000017
23
18120
33
4050
0
3DFACE
8
STAIR
10
200.00000000000017
20
17860
30
4350
11
700
21
17860
31
4350
12
700
22
18120
32
4350
13
200.00000000000017
23
18120
33
4350
0
3DFACE
8
STAIR
10
200.00000000000017
20
17860
30
4050
11
700
21
17860
31
4050
12
700
22
17860
32
4350
13
200.00000000000017
23
17860
33
4350
0
3DFACE
8
STAIR
10
200.00000000000017
20
18120
30
4050
11
700
21
18120
31
4050
12
700
22
18120
32
4350
13
200.00000000000017
23
18120
33
4350
0
3DFACE
8
STAIR
10
200.00000000000017
20
17860
30
4050
11
200.00000000000017
21
18120
31
4050
12
200.00000000000017
22
18120
32
4350
13
200.00000000000017
23
17860
33
4350
0
3DFACE
8
STAIR
10
700
20
17860
30
4050
11
700
21
18120
31
4050
12
700
22
18120
32
4350
13
700
23
17860
33
4350
0
3DFACE
8
STAIR
10
700
20
19940
30
4050
11
1200
21
19940
31
4050
12
1200
22
20200
32
4050
13
700
23
20200
33
4050
0
3DFACE
8
STAIR
10
700
20
19940
30
6000
11
1200
21
19940
31
6000
12
1200
22
20200
32
6000
13
700
23
20200
33
6000
0
3DFACE
8
STAIR
10
700
20
19940
30
4050
11
1200
21
19940
31
4050
12
1200
22
19940
32
6000
13
700
23
19940
33
6000
0
3DFACE
8
STAIR
10
700
20
20200
30
4050
11
1200
21
20200
31
4050
12
1200
22
20200
32
6000
13
700
23
20200
33
6000
0
3DFACE
8
STAIR
10
700
20
19940
30
4050
11
700
21
20200
31
4050
12
700
22
20200
32
6000
13
700
23
19940
33
6000
0
3DFACE
8
STAIR
10
1200
20
19940
30
4050
11
1200
21
20200
31
4050
12
1200
22
20200
32
6000
13
1200
23
19940
33
6000
0
3DFACE
8
STAIR
10
200.00000000000017
20
18120
30
4050
11
700
21
18120
31
4050
12
700
22
18380
32
4050
13
200.00000000000017
23
18380
33
4050
0
3DFACE
8
STAIR
10
200.00000000000017
20
18120
30
4500
11
700
21
18120
31
4500
12
700
22
18380
32
4500
13
200.00000000000017
23
18380
33
4500
0
3DFACE
8
STAIR
10
200.00000000000017
20
18120
30
4050
11
700
21
18120
31
4050
12
700
22
18120
32
4500
13
200.00000000000017
23
18120
33
4500
0
3DFACE
8
STAIR
10
200.00000000000017
20
18380
30
4050
11
700
21
18380
31
4050
12
700
22
18380
32
4500
13
200.00000000000017
23
18380
33
4500
0
3DFACE
8
STAIR
10
200.00000000000017
20
18120
30
4050
11
200.00000000000017
21
18380
31
4050
12
200.00000000000017
22
18380
32
4500
13
200.00000000000017
23
18120
33
4500
0
3DFACE
8
STAIR
10
700
20
18120
30
4050
11
700
21
18380
31
4050
12
700
22
18380
32
4500
13
700
23
18120
33
4500
0
3DFACE
8
STAIR
10
700
20
19680
30
4050
11
1200
21
19680
31
4050
12
1200
22
19940
32
4050
13
700
23
19940
33
4050
0
3DFACE
8
STAIR
10
700
20
19680
30
6150
11
1200
21
19680
31
6150
12
1200
22
19940
32
6150
13
700
23
19940
33
6150
0
3DFACE
8
STAIR
10
700
20
19680
30
4050
11
1200
21
19680
31
4050
12
1200
22
19680
32
6150
13
700
23
19680
33
6150
0
3DFACE
8
STAIR
10
700
20
19940
30
4050
11
1200
21
19940
31
4050
12
1200
22
19940
32
6150
13
700
23
19940
33
6150
0
3DFACE
8
STAIR
10
700
20
19680
30
4050
11
700
21
19940
31
4050
12
700
22
19940
32
6150
13
700
23
19680
33
6150
0
3DFACE
8
STAIR
10
1200
20
19680
30
4050
11
1200
21
19940
31
4050
12
1200
22
19940
32
6150
13
1200
23
19680
33
6150
0
3DFACE
8
STAIR
10
200.00000000000017
20
18380
30
4050
11
700
21
18380
31
4050
12
700
22
18640
32
4050
13
200.00000000000017
23
18640
33
4050
0
3DFACE
8
STAIR
10
200.00000000000017
20
18380
30
4650
11
700
21
18380
31
4650
12
700
22
18640
32
4650
13
200.00000000000017
23
18640
33
4650
0
3DFACE
8
STAIR
10
200.00000000000017
20
18380
30
4050
11
700
21
18380
31
4050
12
700
22
18380
32
4650
13
200.00000000000017
23
18380
33
4650
0
3DFACE
8
STAIR
10
200.00000000000017
20
18640
30
4050
11
700
21
18640
31
4050
12
700
22
18640
32
4650
13
200.00000000000017
23
18640
33
4650
0
3DFACE
8
STAIR
10
200.00000000000017
20
18380
30
4050
11
200.00000000000017
21
18640
31
4050
12
200.00000000000017
22
18640
32
4650
13
200.00000000000017
23
18380
33
4650
0
3DFACE
8
STAIR
10
700
20
18380
30
4050
11
700
21
18640
31
4050
12
700
22
18640
32
4650
13
700
23
18380
33
4650
0
3DFACE
8
STAIR
10
700
20
19420
30
4050
11
1200
21
19420
31
4050
12
1200
22
19680
32
4050
13
700
23
19680
33
4050
0
3DFACE
8
STAIR
10
700
20
19420
30
6300
11
1200
21
19420
31
6300
12
1200
22
19680
32
6300
13
700
23
19680
33
6300
0
3DFACE
8
STAIR
10
700
20
19420
30
4050
11
1200
21
19420
31
4050
12
1200
22
19420
32
6300
13
700
23
19420
33
6300
0
3DFACE
8
STAIR
10
700
20
19680
30
4050
11
1200
21
19680
31
4050
12
1200
22
19680
32
6300
13
700
23
19680
33
6300
0
3DFACE
8
STAIR
10
700
20
19420
30
4050
11
700
21
19680
31
4050
12
700
22
19680
32
6300
13
700
23
19420
33
6300
0
3DFACE
8
STAIR
10
1200
20
19420
30
4050
11
1200
21
19680
31
4050
12
1200
22
19680
32
6300
13
1200
23
19420
33
6300
0
3DFACE
8
STAIR
10
200.00000000000017
20
18640
30
4050
11
700
21
18640
31
4050
12
700
22
18900
32
4050
13
200.00000000000017
23
18900
33
4050
0
3DFACE
8
STAIR
10
200.00000000000017
20
18640
30
4800
11
700
21
18640
31
4800
12
700
22
18900
32
4800
13
200.00000000000017
23
18900
33
4800
0
3DFACE
8
STAIR
10
200.00000000000017
20
18640
30
4050
11
700
21
18640
31
4050
12
700
22
18640
32
4800
13
200.00000000000017
23
18640
33
4800
0
3DFACE
8
STAIR
10
200.00000000000017
20
18900
30
4050
11
700
21
18900
31
4050
12
700
22
18900
32
4800
13
200.00000000000017
23
18900
33
4800
0
3DFACE
8
STAIR
10
200.00000000000017
20
18640
30
4050
11
200.00000000000017
21
18900
31
4050
12
200.00000000000017
22
18900
32
4800
13
200.00000000000017
23
18640
33
4800
0
3DFACE
8
STAIR
10
700
20
18640
30
4050
11
700
21
18900
31
4050
12
700
22
18900
32
4800
13
700
23
18640
33
4800
0
3DFACE
8
STAIR
10
700
20
19160
30
4050
11
1200
21
19160
31
4050
12
1200
22
19420
32
4050
13
700
23
19420
33
4050
0
3DFACE
8
STAIR
10
700
20
19160
30
6450
11
1200
21
19160
31
6450
12
1200
22
19420
32
6450
13
700
23
19420
33
6450
0
3DFACE
8
STAIR
10
700
20
19160
30
4050
11
1200
21
19160
31
4050
12
1200
22
19160
32
6450
13
700
23
19160
33
6450
0
3DFACE
8
STAIR
10
700
20
19420
30
4050
11
1200
21
19420
31
4050
12
1200
22
19420
32
6450
13
700
23
19420
33
6450
0
3DFACE
8
STAIR
10
700
20
19160
30
4050
11
700
21
19420
31
4050
12
700
22
19420
32
6450
13
700
23
19160
33
6450
0
3DFACE
8
STAIR
10
1200
20
19160
30
4050
11
1200
21
19420
31
4050
12
1200
22
19420
32
6450
13
1200
23
19160
33
6450
0
3DFACE
8
STAIR
10
200.00000000000017
20
18900
30
4050
11
700
21
18900
31
4050
12
700
22
19160
32
4050
13
200.00000000000017
23
19160
33
4050
0
3DFACE
8
STAIR
10
200.00000000000017
20
18900
30
4950
11
700
21
18900
31
4950
12
700
22
19160
32
4950
13
200.00000000000017
23
19160
33
4950
0
3DFACE
8
STAIR
10
200.00000000000017
20
18900
30
4050
11
700
21
18900
31
4050
12
700
22
18900
32
4950
13
200.00000000000017
23
18900
33
4950
0
3DFACE
8
STAIR
10
200.00000000000017
20
19160
30
4050
11
700
21
19160
31
4050
12
700
22
19160
32
4950
13
200.00000000000017
23
19160
33
4950
0
3DFACE
8
STAIR
10
200.00000000000017
20
18900
30
4050
11
200.00000000000017
21
19160
31
4050
12
200.00000000000017
22
19160
32
4950
13
200.00000000000017
23
18900
33
4950
0
3DFACE
8
STAIR
10
700
20
18900
30
4050
11
700
21
19160
31
4050
12
700
22
19160
32
4950
13
700
23
18900
33
4950
0
3DFACE
8
STAIR
10
700
20
18900
30
4050
11
1200
21
18900
31
4050
12
1200
22
19160
32
4050
13
700
23
19160
33
4050
0
3DFACE
8
STAIR
10
700
20
18900
30
6600
11
1200
21
18900
31
6600
12
1200
22
19160
32
6600
13
700
23
19160
33
6600
0
3DFACE
8
STAIR
10
700
20
18900
30
4050
11
1200
21
18900
31
4050
12
1200
22
18900
32
6600
13
700
23
18900
33
6600
0
3DFACE
8
STAIR
10
700
20
19160
30
4050
11
1200
21
19160
31
4050
12
1200
22
19160
32
6600
13
700
23
19160
33
6600
0
3DFACE
8
STAIR
10
700
20
18900
30
4050
11
700
21
19160
31
4050
12
700
22
19160
32
6600
13
700
23
18900
33
6600
0
3DFACE
8
STAIR
10
1200
20
18900
30
4050
11
1200
21
19160
31
4050
12
1200
22
19160
32
6600
13
1200
23
18900
33
6600
0
3DFACE
8
STAIR
10
200.00000000000017
20
19160
30
4050
11
700
21
19160
31
4050
12
700
22
19420
32
4050
13
200.00000000000017
23
19420
33
4050
0
3DFACE
8
STAIR
10
200.00000000000017
20
19160
30
5100
11
700
21
19160
31
5100
12
700
22
19420
32
5100
13
200.00000000000017
23
19420
33
5100
0
3DFACE
8
STAIR
10
200.00000000000017
20
19160
30
4050
11
700
21
19160
31
4050
12
700
22
19160
32
5100
13
200.00000000000017
23
19160
33
5100
0
3DFACE
8
STAIR
10
200.00000000000017
20
19420
30
4050
11
700
21
19420
31
4050
12
700
22
19420
32
5100
13
200.00000000000017
23
19420
33
5100
0
3DFACE
8
STAIR
10
200.00000000000017
20
19160
30
4050
11
200.00000000000017
21
19420
31
4050
12
200.00000000000017
22
19420
32
5100
13
200.00000000000017
23
19160
33
5100
0
3DFACE
8
STAIR
10
700
20
19160
30
4050
11
700
21
19420
31
4050
12
700
22
19420
32
5100
13
700
23
19160
33
5100
0
3DFACE
8
STAIR
10
700
20
18640
30
4050
11
1200
21
18640
31
4050
12
1200
22
18900
32
4050
13
700
23
18900
33
4050
0
3DFACE
8
STAIR
10
700
20
18640
30
6750
11
1200
21
18640
31
6750
12
1200
22
18900
32
6750
13
700
23
18900
33
6750
0
3DFACE
8
STAIR
10
700
20
18640
30
4050
11
1200
21
18640
31
4050
12
1200
22
18640
32
6750
13
700
23
18640
33
6750
0
3DFACE
8
STAIR
10
700
20
18900
30
4050
11
1200
21
18900
31
4050
12
1200
22
18900
32
6750
13
700
23
18900
33
6750
0
3DFACE
8
STAIR
10
700
20
18640
30
4050
11
700
21
18900
31
4050
12
700
22
18900
32
6750
13
700
23
18640
33
6750
0
3DFACE
8
STAIR
10
1200
20
18640
30
4050
11
1200
21
18900
31
4050
12
1200
22
18900
32
6750
13
1200
23
18640
33
6750
0
3DFACE
8
STAIR
10
200.00000000000017
20
19420
30
4050
11
700
21
19420
31
4050
12
700
22
19680
32
4050
13
200.00000000000017
23
19680
33
4050
0
3DFACE
8
STAIR
10
200.00000000000017
20
19420
30
5250
11
700
21
19420
31
5250
12
700
22
19680
32
5250
13
200.00000000000017
23
19680
33
5250
0
3DFACE
8
STAIR
10
200.00000000000017
20
19420
30
4050
11
700
21
19420
31
4050
12
700
22
19420
32
5250
13
200.00000000000017
23
19420
33
5250
0
3DFACE
8
STAIR
10
200.00000000000017
20
19680
30
4050
11
700
21
19680
31
4050
12
700
22
19680
32
5250
13
200.00000000000017
23
19680
33
5250
0
3DFACE
8
STAIR
10
200.00000000000017
20
19420
30
4050
11
200.00000000000017
21
19680
31
4050
12
200.00000000000017
22
19680
32
5250
13
200.00000000000017
23
19420
33
5250
0
3DFACE
8
STAIR
10
700
20
19420
30
4050
11
700
21
19680
31
4050
12
700
22
19680
32
5250
13
700
23
19420
33
5250
0
3DFACE
8
STAIR
10
700
20
18380
30
4050
11
1200
21
18380
31
4050
12
1200
22
18640
32
4050
13
700
23
18640
33
4050
0
3DFACE
8
STAIR
10
700
20
18380
30
6900
11
1200
21
18380
31
6900
12
1200
22
18640
32
6900
13
700
23
18640
33
6900
0
3DFACE
8
STAIR
10
700
20
18380
30
4050
11
1200
21
18380
31
4050
12
1200
22
18380
32
6900
13
700
23
18380
33
6900
0
3DFACE
8
STAIR
10
700
20
18640
30
4050
11
1200
21
18640
31
4050
12
1200
22
18640
32
6900
13
700
23
18640
33
6900
0
3DFACE
8
STAIR
10
700
20
18380
30
4050
11
700
21
18640
31
4050
12
700
22
18640
32
6900
13
700
23
18380
33
6900
0
3DFACE
8
STAIR
10
1200
20
18380
30
4050
11
1200
21
18640
31
4050
12
1200
22
18640
32
6900
13
1200
23
18380
33
6900
0
3DFACE
8
STAIR
10
200.00000000000017
20
19680
30
4050
11
700
21
19680
31
4050
12
700
22
19940
32
4050
13
200.00000000000017
23
19940
33
4050
0
3DFACE
8
STAIR
10
200.00000000000017
20
19680
30
5400
11
700
21
19680
31
5400
12
700
22
19940
32
5400
13
200.00000000000017
23
19940
33
5400
0
3DFACE
8
STAIR
10
200.00000000000017
20
19680
30
4050
11
700
21
19680
31
4050
12
700
22
19680
32
5400
13
200.00000000000017
23
19680
33
5400
0
3DFACE
8
STAIR
10
200.00000000000017
20
19940
30
4050
11
700
21
19940
31
4050
12
700
22
19940
32
5400
13
200.00000000000017
23
19940
33
5400
0
3DFACE
8
STAIR
10
200.00000000000017
20
19680
30
4050
11
200.00000000000017
21
19940
31
4050
12
200.00000000000017
22
19940
32
5400
13
200.00000000000017
23
19680
33
5400
0
3DFACE
8
STAIR
10
700
20
19680
30
4050
11
700
21
19940
31
4050
12
700
22
19940
32
5400
13
700
23
19680
33
5400
0
3DFACE
8
STAIR
10
700
20
18120
30
4050
11
1200
21
18120
31
4050
12
1200
22
18380
32
4050
13
700
23
18380
33
4050
0
3DFACE
8
STAIR
10
700
20
18120
30
7050
11
1200
21
18120
31
7050
12
1200
22
18380
32
7050
13
700
23
18380
33
7050
0
3DFACE
8
STAIR
10
700
20
18120
30
4050
11
1200
21
18120
31
4050
12
1200
22
18120
32
7050
13
700
23
18120
33
7050
0
3DFACE
8
STAIR
10
700
20
18380
30
4050
11
1200
21
18380
31
4050
12
1200
22
18380
32
7050
13
700
23
18380
33
7050
0
3DFACE
8
STAIR
10
700
20
18120
30
4050
11
700
21
18380
31
4050
12
700
22
18380
32
7050
13
700
23
18120
33
7050
0
3DFACE
8
STAIR
10
1200
20
18120
30
4050
11
1200
21
18380
31
4050
12
1200
22
18380
32
7050
13
1200
23
18120
33
7050
0
3DFACE
8
STAIR
10
200.00000000000017
20
19940
30
4050
11
700
21
19940
31
4050
12
700
22
20200
32
4050
13
200.00000000000017
23
20200
33
4050
0
3DFACE
8
STAIR
10
200.00000000000017
20
19940
30
5550
11
700
21
19940
31
5550
12
700
22
20200
32
5550
13
200.00000000000017
23
20200
33
5550
0
3DFACE
8
STAIR
10
200.00000000000017
20
19940
30
4050
11
700
21
19940
31
4050
12
700
22
19940
32
5550
13
200.00000000000017
23
19940
33
5550
0
3DFACE
8
STAIR
10
200.00000000000017
20
20200
30
4050
11
700
21
20200
31
4050
12
700
22
20200
32
5550
13
200.00000000000017
23
20200
33
5550
0
3DFACE
8
STAIR
10
200.00000000000017
20
19940
30
4050
11
200.00000000000017
21
20200
31
4050
12
200.00000000000017
22
20200
32
5550
13
200.00000000000017
23
19940
33
5550
0
3DFACE
8
STAIR
10
700
20
19940
30
4050
11
700
21
20200
31
4050
12
700
22
20200
32
5550
13
700
23
19940
33
5550
0
3DFACE
8
STAIR
10
700
20
17860
30
4050
11
1200
21
17860
31
4050
12
1200
22
18120
32
4050
13
700
23
18120
33
4050
0
3DFACE
8
STAIR
10
700
20
17860
30
7200
11
1200
21
17860
31
7200
12
1200
22
18120
32
7200
13
700
23
18120
33
7200
0
3DFACE
8
STAIR
10
700
20
17860
30
4050
11
1200
21
17860
31
4050
12
1200
22
17860
32
7200
13
700
23
17860
33
7200
0
3DFACE
8
STAIR
10
700
20
18120
30
4050
11
1200
21
18120
31
4050
12
1200
22
18120
32
7200
13
700
23
18120
33
7200
0
3DFACE
8
STAIR
10
700
20
17860
30
4050
11
700
21
18120
31
4050
12
700
22
18120
32
7200
13
700
23
17860
33
7200
0
3DFACE
8
STAIR
10
1200
20
17860
30
4050
11
1200
21
18120
31
4050
12
1200
22
18120
32
7200
13
1200
23
17860
33
7200
0
3DFACE
8
STAIR
10
200.00000000000017
20
20200
30
4050
11
700
21
20200
31
4050
12
700
22
20460
32
4050
13
200.00000000000017
23
20460
33
4050
0
3DFACE
8
STAIR
10
200.00000000000017
20
20200
30
5700
11
700
21
20200
31
5700
12
700
22
20460
32
5700
13
200.00000000000017
23
20460
33
5700
0
3DFACE
8
STAIR
10
200.00000000000017
20
20200
30
4050
11
700
21
20200
31
4050
12
700
22
20200
32
5700
13
200.00000000000017
23
20200
33
5700
0
3DFACE
8
STAIR
10
200.00000000000017
20
20460
30
4050
11
700
21
20460
31
4050
12
700
22
20460
32
5700
13
200.00000000000017
23
20460
33
5700
0
3DFACE
8
STAIR
10
200.00000000000017
20
20200
30
4050
11
200.00000000000017
21
20460
31
4050
12
200.00000000000017
22
20460
32
5700
13
200.00000000000017
23
20200
33
5700
0
3DFACE
8
STAIR
10
700
20
20200
30
4050
11
700
21
20460
31
4050
12
700
22
20460
32
5700
13
700
23
20200
33
5700
0
3DFACE
8
STAIR
10
700
20
17600
30
4050
11
1200
21
17600
31
4050
12
1200
22
17860
32
4050
13
700
23
17860
33
4050
0
3DFACE
8
STAIR
10
700
20
17600
30
7350
11
1200
21
17600
31
7350
12
1200
22
17860
32
7350
13
700
23
17860
33
7350
0
3DFACE
8
STAIR
10
700
20
17600
30
4050
11
1200
21
17600
31
4050
12
1200
22
17600
32
7350
13
700
23
17600
33
7350
0
3DFACE
8
STAIR
10
700
20
17860
30
4050
11
1200
21
17860
31
4050
12
1200
22
17860
32
7350
13
700
23
17860
33
7350
0
3DFACE
8
STAIR
10
700
20
17600
30
4050
11
700
21
17860
31
4050
12
700
22
17860
32
7350
13
700
23
17600
33
7350
0
3DFACE
8
STAIR
10
1200
20
17600
30
4050
11
1200
21
17860
31
4050
12
1200
22
17860
32
7350
13
1200
23
17600
33
7350
0
3DFACE
8
STAIR
10
200.00000000000017
20
20460
30
5550
11
1200
21
20460
31
5550
12
1200
22
21200
32
5550
13
200.00000000000017
23
21200
33
5550
0
3DFACE
8
STAIR
10
200.00000000000017
20
20460
30
5700
11
1200
21
20460
31
5700
12
1200
22
21200
32
5700
13
200.00000000000017
23
21200
33
5700
0
3DFACE
8
STAIR
10
200.00000000000017
20
20460
30
5550
11
1200
21
20460
31
5550
12
1200
22
20460
32
5700
13
200.00000000000017
23
20460
33
5700
0
3DFACE
8
STAIR
10
200.00000000000017
20
21200
30
5550
11
1200
21
21200
31
5550
12
1200
22
21200
32
5700
13
200.00000000000017
23
21200
33
5700
0
3DFACE
8
STAIR
10
200.00000000000017
20
20460
30
5550
11
200.00000000000017
21
21200
31
5550
12
200.00000000000017
22
21200
32
5700
13
200.00000000000017
23
20460
33
5700
0
3DFACE
8
STAIR
10
1200
20
20460
30
5550
11
1200
21
21200
31
5550
12
1200
22
21200
32
5700
13
1200
23
20460
33
5700
0
ENDSEC
0
EOF
